<?xml version="1.0" standalone="no"?>
<!DOCTYPE svg PUBLIC "-//W3C//DTD SVG 20010904//EN"
 "http://www.w3.org/TR/2001/REC-SVG-20010904/DTD/svg10.dtd">
<svg version="1.0" xmlns="http://www.w3.org/2000/svg"
 width="765.000000pt" height="765.000000pt" viewBox="0 0 765.000000 765.000000"
 preserveAspectRatio="xMidYMid meet">

<g transform="translate(0.000000,765.000000) scale(0.100000,-0.100000)"
fill="#000000" stroke="none">
<path d="M2990 7313 c-724 -52 -1379 -356 -1870 -869 -672 -703 -938 -1698
-705 -2641 125 -510 378 -956 750 -1328 218 -219 455 -389 735 -529 281 -140
527 -218 855 -272 154 -25 554 -30 730 -10 452 52 853 199 1230 451 77 51 176
123 220 159 l80 65 29 -32 c16 -18 456 -460 978 -983 582 -584 962 -958 984
-969 54 -25 159 -18 208 15 62 42 90 93 94 170 3 49 0 77 -13 104 -11 22 -385
402 -969 984 -523 522 -965 962 -983 978 l-32 29 65 80 c36 44 108 143 159
220 252 377 399 778 451 1230 20 176 15 576 -10 730 -54 328 -132 574 -272
855 -258 516 -647 923 -1163 1215 -445 252 -1037 385 -1551 348z m535 -457
c513 -82 977 -317 1340 -681 193 -193 332 -389 456 -640 119 -243 192 -487
230 -765 17 -122 17 -458 0 -580 -73 -538 -294 -996 -666 -1379 -384 -395
-866 -636 -1425 -712 -122 -17 -458 -17 -580 0 -546 74 -1028 309 -1405 686
-366 365 -600 827 -681 1345 -26 161 -26 538 -1 699 41 258 112 482 227 717
356 722 1053 1216 1863 1319 144 18 501 13 642 -9z"/>
<path d="M3092 5779 c-46 -14 -115 -85 -130 -135 -9 -32 -12 -306 -12 -1171
l0 -1129 26 -53 c46 -92 142 -135 246 -110 69 16 139 84 156 151 16 64 17
2234 1 2293 -33 125 -157 191 -287 154z"/>
<path d="M3966 4906 c-21 -8 -56 -32 -78 -53 -69 -67 -68 -55 -68 -805 0 -479
3 -682 12 -716 17 -69 87 -136 159 -152 125 -27 247 53 264 174 3 22 5 349 3
726 l-3 685 -28 47 c-50 86 -168 128 -261 94z"/>
<path d="M2205 4461 c-50 -22 -101 -79 -115 -128 -8 -26 -10 -193 -8 -529 l3
-490 27 -42 c85 -128 274 -130 363 -4 l30 44 3 504 c2 481 2 505 -17 541 -55
107 -180 152 -286 104z"/>
</g>
</svg>
