<svg width="30" height="30" viewBox="0 0 32 32" fill="none" xmlns="http://www.w3.org/2000/svg">
<g opacity="0.5">
<path d="M14.3999 9.59961V17.5996H14.4959L18.4639 21.5516L20.7199 19.2956L17.5999 16.1756V9.59961H14.3999Z" fill="#7A7A7A"/>
<path d="M15.9998 1.59961C13.4994 1.60764 11.0441 2.26662 8.87569 3.5117C6.70727 4.75678 4.90043 6.54504 3.633 8.70048C2.36557 10.8559 1.68124 13.3042 1.64737 15.8045C1.61349 18.3047 2.23124 20.7706 3.4398 22.9596L0.799805 25.5996H9.5998V16.7996L5.7918 20.6076C4.79705 18.4039 4.54212 15.9375 5.06511 13.577C5.58811 11.2164 6.86093 9.08846 8.69338 7.51115C10.5258 5.93385 12.8195 4.99187 15.2316 4.826C17.6437 4.66013 20.0447 5.27927 22.0758 6.59089C24.1069 7.90251 25.659 9.83619 26.5002 12.1029C27.3414 14.3697 27.4265 16.8478 26.7428 19.1669C26.0591 21.486 24.6432 23.5216 22.7069 24.9694C20.7705 26.4173 18.4176 27.1996 15.9998 27.1996V30.3996C19.8189 30.3996 23.4816 28.8825 26.1821 26.1819C28.8827 23.4814 30.3998 19.8187 30.3998 15.9996C30.3998 12.1805 28.8827 8.5178 26.1821 5.81727C23.4816 3.11675 19.8189 1.59961 15.9998 1.59961Z" fill="#7A7A7A"/>
</g>
</svg>
