<svg width="14" height="12" viewBox="0 0 14 12" fill="none" xmlns="http://www.w3.org/2000/svg">
    <path
        d="M2.59995 3.3998C2.59995 2.92242 2.78959 2.46458 3.12716 2.12701C3.46472 1.78945 3.92256 1.5998 4.39995 1.5998C4.87734 1.5998 5.33518 1.78945 5.67274 2.12701C6.01031 2.46458 6.19995 2.92242 6.19995 3.3998C6.19995 3.87719 6.01031 4.33503 5.67274 4.6726C5.33518 5.01016 4.87734 5.1998 4.39995 5.1998C3.92256 5.1998 3.46472 5.01016 3.12716 4.6726C2.78959 4.33503 2.59995 3.87719 2.59995 3.3998ZM4.39995 0.799805C3.71039 0.799805 3.04907 1.07373 2.56147 1.56133C2.07388 2.04892 1.79995 2.71024 1.79995 3.3998C1.79995 4.08937 2.07388 4.75069 2.56147 5.23828C3.04907 5.72588 3.71039 5.9998 4.39995 5.9998C5.08951 5.9998 5.75083 5.72588 6.23843 5.23828C6.72602 4.75069 6.99995 4.08937 6.99995 3.3998C6.99995 2.71024 6.72602 2.04892 6.23843 1.56133C5.75083 1.07373 5.08951 0.799805 4.39995 0.799805ZM8.94955 10.1158C9.37995 10.2918 9.92155 10.3998 10.6 10.3998C12.1048 10.3998 12.9368 9.86541 13.3752 9.2526C13.6039 8.93103 13.7473 8.55669 13.792 8.16461C13.796 8.12818 13.7986 8.09162 13.8 8.05501V7.9998C13.8 7.84222 13.7689 7.68618 13.7086 7.54058C13.6483 7.39499 13.5599 7.26271 13.4485 7.15128C13.337 7.03985 13.2048 6.95145 13.0592 6.89115C12.9136 6.83084 12.7575 6.7998 12.6 6.7998H8.89595C9.08795 7.0318 9.23195 7.303 9.31595 7.5998H12.6C12.706 7.5998 12.8078 7.64195 12.8828 7.71696C12.9578 7.79198 13 7.89372 13 7.9998V8.043L12.996 8.083C12.9653 8.33666 12.8718 8.57864 12.724 8.787C12.4624 9.15421 11.8944 9.5998 10.6 9.5998C10.0144 9.5998 9.57755 9.50861 9.25035 9.375C9.18475 9.599 9.08955 9.8518 8.94955 10.1158ZM0.199951 8.3998C0.199951 7.97546 0.368522 7.56849 0.66858 7.26843C0.968638 6.96838 1.3756 6.7998 1.79995 6.7998H6.99995C7.4243 6.7998 7.83126 6.96838 8.13132 7.26843C8.43138 7.56849 8.59995 7.97546 8.59995 8.3998V8.467C8.59995 8.475 8.59995 8.4854 8.59835 8.499C8.58862 8.6574 8.56588 8.81473 8.53035 8.96941C8.46235 9.2638 8.32715 9.6574 8.05435 10.0526C7.49355 10.8638 6.41035 11.5998 4.39995 11.5998C2.38955 11.5998 1.30635 10.8638 0.745551 10.0526C0.45021 9.62241 0.266057 9.12575 0.209551 8.607C0.204771 8.56046 0.201569 8.51377 0.199951 8.467V8.3998ZM0.999951 8.4478V8.4622L1.00555 8.5286C1.0489 8.9121 1.1857 9.2791 1.40395 9.5974C1.79355 10.1606 2.61035 10.7998 4.39995 10.7998C6.18955 10.7998 7.00635 10.1606 7.39595 9.5974C7.61426 9.27913 7.75107 8.91212 7.79435 8.5286C7.79698 8.50656 7.79858 8.4844 7.79915 8.4622L7.79995 8.4486V8.3998C7.79995 8.18763 7.71567 7.98415 7.56564 7.83412C7.41561 7.68409 7.21212 7.5998 6.99995 7.5998H1.79995C1.58778 7.5998 1.38429 7.68409 1.23427 7.83412C1.08424 7.98415 0.999951 8.18763 0.999951 8.3998V8.4478ZM9.39995 3.9998C9.39995 3.68155 9.52638 3.37632 9.75142 3.15128C9.97647 2.92623 10.2817 2.7998 10.6 2.7998C10.9182 2.7998 11.2234 2.92623 11.4485 3.15128C11.6735 3.37632 11.8 3.68155 11.8 3.9998C11.8 4.31806 11.6735 4.62329 11.4485 4.84833C11.2234 5.07338 10.9182 5.1998 10.6 5.1998C10.2817 5.1998 9.97647 5.07338 9.75142 4.84833C9.52638 4.62329 9.39995 4.31806 9.39995 3.9998ZM10.6 1.9998C10.0695 1.9998 9.56081 2.21052 9.18574 2.58559C8.81067 2.96066 8.59995 3.46937 8.59995 3.9998C8.59995 4.53024 8.81067 5.03895 9.18574 5.41402C9.56081 5.78909 10.0695 5.9998 10.6 5.9998C11.1304 5.9998 11.6391 5.78909 12.0142 5.41402C12.3892 5.03895 12.6 4.53024 12.6 3.9998C12.6 3.46937 12.3892 2.96066 12.0142 2.58559C11.6391 2.21052 11.1304 1.9998 10.6 1.9998Z"
        fill="#262626" />
</svg>
