<svg width="14" height="15" viewBox="0 0 14 15" fill="none" xmlns="http://www.w3.org/2000/svg">
<g clip-path="url(#clip0_10772_33379)">
<path d="M6.5625 7.5C8.63379 7.5 10.3125 5.82129 10.3125 3.75C10.3125 1.67871 8.63379 0 6.5625 0C4.49121 0 2.8125 1.67871 2.8125 3.75C2.8125 5.82129 4.49121 7.5 6.5625 7.5ZM9.1875 8.4375H8.69824C8.04785 8.73633 7.32422 8.90625 6.5625 8.90625C5.80078 8.90625 5.08008 8.73633 4.42676 8.4375H3.9375C1.76367 8.4375 0 10.2012 0 12.375V13.5938C0 14.3701 0.629883 15 1.40625 15H11.7188C12.4951 15 13.125 14.3701 13.125 13.5938V12.375C13.125 10.2012 11.3613 8.4375 9.1875 8.4375Z" fill="#828282"/>
</g>
<defs>
<clipPath id="clip0_10772_33379">
<rect width="13.125" height="15" fill="white"/>
</clipPath>
</defs>
</svg>
