<svg width="19" height="19" viewBox="0 0 19 19" fill="none" xmlns="http://www.w3.org/2000/svg">
<path d="M6.28025 3.5C6.62525 3.5 6.96125 3.60575 7.24325 3.8015L7.36025 3.8915L9.1415 5.375H14.9375C15.3446 5.37487 15.738 5.52191 16.0453 5.78903C16.3525 6.05615 16.5528 6.42532 16.6093 6.8285L16.6213 6.947L16.625 7.0625V10.475C16.2782 10.2974 15.888 10.2223 15.5 10.2583V7.0625C15.5 6.92657 15.4508 6.79524 15.3614 6.6928C15.2721 6.59036 15.1487 6.52374 15.014 6.50525L14.9375 6.5H9.14075L7.36025 7.98425C7.09569 8.2044 6.77013 8.33839 6.42725 8.36825L6.28025 8.375L2.75 8.37425V13.8125C2.75 14.0975 2.9615 14.333 3.236 14.3698L3.3125 14.375H8.624C8.44586 14.7224 8.3606 15.1099 8.3765 15.5H3.3125C2.88491 15.5001 2.47323 15.3378 2.16068 15.046C1.84814 14.7542 1.65802 14.3546 1.62875 13.928L1.625 13.8125V5.1875C1.62495 4.75991 1.78722 4.34823 2.07903 4.03569C2.37083 3.72314 2.77041 3.53302 3.197 3.50375L3.3125 3.5H6.28025ZM6.28025 4.625H3.3125C3.17657 4.62501 3.04524 4.67423 2.9428 4.76358C2.84036 4.85292 2.77374 4.97633 2.75525 5.111L2.75 5.1875V7.24925L6.28025 7.25C6.38496 7.24988 6.48756 7.22052 6.5765 7.16525L6.64025 7.12025L8.0585 5.93675L6.641 4.7555C6.5603 4.68815 6.46235 4.64476 6.35825 4.63025L6.28025 4.625ZM11.9375 13.25C12.3851 13.25 12.8143 13.0722 13.1307 12.7557C13.4472 12.4393 13.625 12.0101 13.625 11.5625C13.625 11.1149 13.4472 10.6857 13.1307 10.3693C12.8143 10.0528 12.3851 9.875 11.9375 9.875C11.4899 9.875 11.0607 10.0528 10.7443 10.3693C10.4278 10.6857 10.25 11.1149 10.25 11.5625C10.25 12.0101 10.4278 12.4393 10.7443 12.7557C11.0607 13.0722 11.4899 13.25 11.9375 13.25ZM11.9375 17.75C13.9467 17.75 14.75 16.5733 14.75 15.4063C14.75 14.63 14.21 14 13.5448 14H10.3302C9.665 14 9.125 14.63 9.125 15.4063C9.125 16.5778 9.92825 17.75 11.9375 17.75ZM17 12.3125C17 12.6606 16.8617 12.9944 16.6156 13.2406C16.3694 13.4867 16.0356 13.625 15.6875 13.625C15.3394 13.625 15.0056 13.4867 14.7594 13.2406C14.5133 12.9944 14.375 12.6606 14.375 12.3125C14.375 11.9644 14.5133 11.6306 14.7594 11.3844C15.0056 11.1383 15.3394 11 15.6875 11C16.0356 11 16.3694 11.1383 16.6156 11.3844C16.8617 11.6306 17 11.9644 17 12.3125ZM15.062 17C15.365 16.505 15.4985 15.9463 15.4985 15.4063C15.4978 15.0487 15.4157 14.6961 15.2585 14.375H16.4135C16.946 14.375 17.378 14.816 17.378 15.3598C17.378 16.1773 16.7352 17 15.128 17H15.062Z" fill="#828282"/>
</svg>
