<svg width="16" height="13" viewBox="0 0 16 13" fill="none" xmlns="http://www.w3.org/2000/svg">
<path d="M0.925003 2.0002C0.925003 1.52281 1.11465 1.06497 1.45221 0.727403C1.78978 0.389838 2.24761 0.200195 2.725 0.200195H9.925C10.4024 0.200195 10.8602 0.389838 11.1978 0.727403C11.5354 1.06497 11.725 1.52281 11.725 2.0002V7.4002C11.725 7.87758 11.5354 8.33542 11.1978 8.67299C10.8602 9.01055 10.4024 9.2002 9.925 9.2002H2.725C2.24761 9.2002 1.78978 9.01055 1.45221 8.67299C1.11465 8.33542 0.925003 7.87758 0.925003 7.4002V2.0002ZM2.725 1.1002C2.48631 1.1002 2.25739 1.19502 2.08861 1.3638C1.91982 1.53258 1.825 1.7615 1.825 2.0002V7.4002C1.825 7.63889 1.91982 7.86781 2.08861 8.03659C2.25739 8.20537 2.48631 8.30019 2.725 8.30019H9.925C10.1637 8.30019 10.3926 8.20537 10.5614 8.03659C10.7302 7.86781 10.825 7.63889 10.825 7.4002V2.0002C10.825 1.7615 10.7302 1.53258 10.5614 1.3638C10.3926 1.19502 10.1637 1.1002 9.925 1.1002H2.725ZM4.525 11.0002C4.20904 11.0002 3.89865 10.917 3.62503 10.759C3.3514 10.601 3.12418 10.3738 2.9662 10.1002H9.925C10.6411 10.1002 11.3278 9.81573 11.8342 9.30938C12.3405 8.80304 12.625 8.11628 12.625 7.4002V2.2414C12.8986 2.39937 13.1259 2.6266 13.2838 2.90022C13.4418 3.17385 13.525 3.48424 13.525 3.8002V7.4002C13.525 8.35497 13.1457 9.27065 12.4706 9.94578C11.7955 10.6209 10.8798 11.0002 9.925 11.0002H4.525ZM6.325 12.8002C6.00905 12.8002 5.69865 12.717 5.42503 12.559C5.1514 12.401 4.92418 12.1738 4.7662 11.9002H9.925C11.1185 11.9002 12.2631 11.4261 13.107 10.5822C13.9509 9.73826 14.425 8.59367 14.425 7.4002V4.0414C14.6986 4.19937 14.9259 4.4266 15.0838 4.70022C15.2418 4.97385 15.325 5.28424 15.325 5.60019V7.4002C15.325 8.83236 14.7561 10.2059 13.7434 11.2186C12.7307 12.2313 11.3572 12.8002 9.925 12.8002H6.325Z" fill="#828282"/>
</svg>
