<svg width="15" height="13" viewBox="0 0 15 13" fill="none" xmlns="http://www.w3.org/2000/svg">
<path d="M12.5 1.5H1.5V3.085L5.205 6.795L5.5 7.085V11.5H7.5V10.5H8.5V11.5C8.5 11.7652 8.39464 12.0196 8.20711 12.2071C8.01957 12.3946 7.76522 12.5 7.5 12.5H5.5C5.23478 12.5 4.98043 12.3946 4.79289 12.2071C4.60536 12.0196 4.5 11.7652 4.5 11.5V7.5L0.795 3.795C0.701416 3.70197 0.627169 3.59134 0.576539 3.46948C0.525908 3.34763 0.499896 3.21696 0.5 3.085V1.5C0.5 1.23478 0.605357 0.98043 0.792893 0.792893C0.98043 0.605357 1.23478 0.5 1.5 0.5H12.5V1.5Z" fill="white"/>
<path d="M14.355 4.14497L12.855 2.64497C12.8085 2.59811 12.7532 2.56091 12.6923 2.53552C12.6314 2.51014 12.566 2.49707 12.5 2.49707C12.434 2.49707 12.3686 2.51014 12.3077 2.53552C12.2468 2.56091 12.1915 2.59811 12.145 2.64497L7.5 7.29497V9.49997H9.705L14.355 4.85497C14.4019 4.80849 14.4391 4.75319 14.4644 4.69226C14.4898 4.63133 14.5029 4.56598 14.5029 4.49997C14.5029 4.43396 14.4898 4.36861 14.4644 4.30768C14.4391 4.24675 14.4019 4.19145 14.355 4.14497ZM9.295 8.49997H8.5V7.70497L11 5.20497L11.795 5.99997L9.295 8.49997ZM12.5 5.29497L11.705 4.49997L12.5 3.70497L13.295 4.49997L12.5 5.29497Z" fill="white"/>
</svg>
