<svg width="14" height="14" viewBox="0 0 14 14" fill="none" xmlns="http://www.w3.org/2000/svg">
<path d="M1 2.33301H3.66667M13 2.33301H6.33333M1 6.99967H9M13 6.99967H11.6667M1 11.6663H2.33333M13 11.6663H5" stroke="black" stroke-width="1.33333" stroke-linecap="round"/>
<path d="M5.00033 3.66667C5.73671 3.66667 6.33366 3.06971 6.33366 2.33333C6.33366 1.59695 5.73671 1 5.00033 1C4.26395 1 3.66699 1.59695 3.66699 2.33333C3.66699 3.06971 4.26395 3.66667 5.00033 3.66667Z" stroke="black" stroke-width="1.33333" stroke-linecap="round"/>
<path d="M10.3333 8.33366C11.0697 8.33366 11.6667 7.73671 11.6667 7.00033C11.6667 6.26395 11.0697 5.66699 10.3333 5.66699C9.59695 5.66699 9 6.26395 9 7.00033C9 7.73671 9.59695 8.33366 10.3333 8.33366Z" stroke="black" stroke-width="1.33333" stroke-linecap="round"/>
<path d="M3.66634 12.9997C4.40272 12.9997 4.99967 12.4027 4.99967 11.6663C4.99967 10.93 4.40272 10.333 3.66634 10.333C2.92996 10.333 2.33301 10.93 2.33301 11.6663C2.33301 12.4027 2.92996 12.9997 3.66634 12.9997Z" stroke="black" stroke-width="1.33333" stroke-linecap="round"/>
</svg>
