<svg width="16" height="16" viewBox="0 0 16 16" fill="none" xmlns="http://www.w3.org/2000/svg">
<path d="M15 7.5H14V3.5H6.5V2.5H14C14.2651 2.50026 14.5193 2.60571 14.7068 2.79319C14.8943 2.98066 14.9997 3.23486 15 3.5V7.5Z" fill="white"/>
<path d="M12.5 10H11.5V6H4V5H11.5C11.7651 5.00026 12.0193 5.10571 12.2068 5.29319C12.3943 5.48066 12.4997 5.73486 12.5 6V10Z" fill="white"/>
<path d="M9 13.5H2C1.73486 13.4997 1.48066 13.3943 1.29319 13.2068C1.10571 13.0193 1.00026 12.7651 1 12.5V8.5C1.00026 8.23486 1.10571 7.98066 1.29319 7.79319C1.48066 7.60571 1.73486 7.50026 2 7.5H9C9.26513 7.50026 9.51934 7.60571 9.70681 7.79319C9.89429 7.98066 9.99973 8.23486 10 8.5V12.5C9.99973 12.7651 9.89429 13.0193 9.70681 13.2068C9.51934 13.3943 9.26513 13.4997 9 13.5ZM2 8.5V12.5H9.0005L9 8.5H2Z" fill="white"/>
</svg>
