<svg width="24" height="24" viewBox="0 0 24 24" fill="none" xmlns="http://www.w3.org/2000/svg">
<path fill-rule="evenodd" clip-rule="evenodd" d="M6 11.999C6 11.8001 6.07902 11.6093 6.21967 11.4687C6.36032 11.328 6.55109 11.249 6.75 11.249H15.4395L12.219 8.02999C12.0782 7.88916 11.9991 7.69816 11.9991 7.49899C11.9991 7.29983 12.0782 7.10882 12.219 6.96799C12.3598 6.82716 12.5508 6.74805 12.75 6.74805C12.9492 6.74805 13.1402 6.82716 13.281 6.96799L17.781 11.468C17.8508 11.5377 17.9063 11.6204 17.9441 11.7115C17.9819 11.8027 18.0013 11.9003 18.0013 11.999C18.0013 12.0976 17.9819 12.1953 17.9441 12.2864C17.9063 12.3776 17.8508 12.4603 17.781 12.53L13.281 17.03C13.1402 17.1708 12.9492 17.2499 12.75 17.2499C12.5508 17.2499 12.3598 17.1708 12.219 17.03C12.0782 16.8892 11.9991 16.6982 11.9991 16.499C11.9991 16.2998 12.0782 16.1088 12.219 15.968L15.4395 12.749H6.75C6.55109 12.749 6.36032 12.67 6.21967 12.5293C6.07902 12.3887 6 12.1979 6 11.999Z" fill="#555555"/>
</svg>
