<svg width="40" height="40" viewBox="0 0 40 40" fill="none" xmlns="http://www.w3.org/2000/svg">
<circle cx="19.5" cy="19.5" r="19.5" fill="#21F5A8" fill-opacity="0.12"/>
<path d="M24.675 21.0039C25.925 21.0039 26.9375 22.0164 26.9375 23.2664V24.1277H26.9313C26.8888 25.1027 26.6213 26.3239 25.5275 27.3214C24.3325 28.4127 22.2688 29.1252 18.8125 29.1252C15.355 29.1252 13.2925 28.4127 12.0975 27.3214C11.0037 26.3239 10.7363 25.1014 10.6938 24.1277H10.6875V23.2652C10.6875 22.0164 11.7 21.0039 12.95 21.0039H24.675Z" fill="#21F5A8"/>
<path d="M14.438 10.3755C13.9407 10.3755 13.4638 10.5731 13.1122 10.9247C12.7605 11.2763 12.563 11.7533 12.563 12.2505V17.2505C12.563 17.7478 12.7605 18.2247 13.1122 18.5764C13.4638 18.928 13.9407 19.1255 14.438 19.1255H23.188C23.6853 19.1255 24.1622 18.928 24.5138 18.5764C24.8654 18.2247 25.063 17.7478 25.063 17.2505V12.2505C25.063 11.7533 24.8654 11.2763 24.5138 10.9247C24.1622 10.5731 23.6853 10.3755 23.188 10.3755H19.438V9.75054C19.4415 9.66752 19.4278 9.58467 19.3976 9.50724C19.3675 9.42981 19.3216 9.35949 19.2628 9.30074C19.204 9.24198 19.1337 9.19607 19.0563 9.16591C18.9789 9.13575 18.896 9.12201 18.813 9.12554C18.468 9.12554 18.188 9.41304 18.188 9.75054V10.3755H14.438ZM15.063 14.7505C15.063 14.419 15.1947 14.1011 15.4291 13.8667C15.6635 13.6322 15.9815 13.5005 16.313 13.5005C16.6445 13.5005 16.9625 13.6322 17.1969 13.8667C17.4313 14.1011 17.563 14.419 17.563 14.7505C17.563 15.0821 17.4313 15.4 17.1969 15.6344C16.9625 15.8688 16.6445 16.0005 16.313 16.0005C15.9815 16.0005 15.6635 15.8688 15.4291 15.6344C15.1947 15.4 15.063 15.0821 15.063 14.7505ZM20.063 14.7505C20.063 14.419 20.1947 14.1011 20.4291 13.8667C20.6635 13.6322 20.9815 13.5005 21.313 13.5005C21.6445 13.5005 21.9625 13.6322 22.1969 13.8667C22.4313 14.1011 22.563 14.419 22.563 14.7505C22.563 15.0821 22.4313 15.4 22.1969 15.6344C21.9625 15.8688 21.6445 16.0005 21.313 16.0005C20.9815 16.0005 20.6635 15.8688 20.4291 15.6344C20.1947 15.4 20.063 15.0821 20.063 14.7505Z" fill="#21F5A8"/>
</svg>
