<svg width="82" height="82" viewBox="0 0 82 82" fill="none" xmlns="http://www.w3.org/2000/svg" xmlns:xlink="http://www.w3.org/1999/xlink">
<rect width="82" height="82" rx="22" fill="url(#pattern0)"/>
<rect width="82" height="82" rx="22" fill="#3A1C46"/>
<path d="M59.0192 53.7975C61.8804 51.2475 63.5005 47.8486 63.5005 44.3215C63.5005 40.573 61.7457 37.0673 58.5592 34.4496C55.4579 31.9028 51.353 30.5 47 30.5C42.647 30.5 38.5421 31.9028 35.4413 34.4498C32.2548 37.0673 30.5 40.573 30.5 44.3215C30.5 48.07 32.2548 51.5757 35.4413 54.1933C38.5421 56.7403 42.647 58.143 47 58.143C47.58 58.143 48.1636 58.1174 48.7423 58.0665L49.731 58.9235C53.1371 61.875 57.493 63.4998 62 63.5H63.5V60.3072L63.0607 59.8679C61.3276 58.1298 59.9543 56.067 59.0192 53.7975ZM51.6958 56.6562L49.712 54.9368L49.0505 55.0179C48.3702 55.1011 47.6854 55.1428 47 55.1428C39.5562 55.1428 33.5 50.2884 33.5 44.3215C33.5 38.3546 39.5562 33.5 47 33.5C54.4438 33.5 60.5 38.3545 60.5 44.3215C60.5 47.2943 59.0169 50.0697 56.3238 52.1363L55.4599 52.7992L55.8585 53.9275C56.6754 56.2318 57.8762 58.3814 59.41 60.2853C56.5536 59.8085 53.8843 58.5527 51.6958 56.6562Z" fill="white"/>
<path d="M22.6423 46.7634C24.0465 44.986 25.1489 42.9899 25.9056 40.855L26.3012 39.7323L25.4381 39.0699C22.8986 37.1212 21.5 34.5057 21.5 31.7053C21.5 26.0781 27.2196 21.5 34.25 21.5C39.422 21.5 43.8844 23.9778 45.8822 27.5281C46.2532 27.5101 46.6257 27.5 47 27.5C47.7517 27.5 48.4965 27.5365 49.2344 27.6094C48.4624 25.6093 47.1216 23.7834 45.2782 22.2693C42.3193 19.8387 38.4031 18.5 34.25 18.5C30.0969 18.5 26.1807 19.8387 23.2216 22.2693C20.1768 24.7705 18.5 28.1216 18.5 31.7053C18.5 35.0616 20.033 38.2955 22.7422 40.7281C21.8581 42.8558 20.5662 44.7899 18.9394 46.4215L18.5 46.8608V50H20C22.7738 49.9997 25.5094 49.3537 27.9904 48.1133C27.7184 47.0822 27.559 46.0246 27.515 44.9591C26.0092 45.8416 24.3598 46.4524 22.6423 46.7634Z" fill="white"/>
<defs>
<pattern id="pattern0" patternContentUnits="objectBoundingBox" width="1" height="1">
<use xlink:href="#image0_6671_20225" transform="translate(-0.248538) scale(0.000730994)"/>
</pattern>
</defs>
</svg>
