<svg width="52" height="52" viewBox="0 0 52 52" fill="none" xmlns="http://www.w3.org/2000/svg">
<circle cx="26" cy="26" r="25.5" fill="#21F5A8" fill-opacity="0.12" stroke="#EBEBEB"/>
<path d="M33.9727 28.5547C35.6727 28.5547 37.0497 29.9317 37.0497 31.6317V32.803H37.0412C36.9834 34.129 36.6196 35.7899 35.1321 37.1465C33.5069 38.6306 30.7002 39.5996 25.9997 39.5996C21.2975 39.5996 18.4925 38.6306 16.8673 37.1465C15.3798 35.7899 15.016 34.1273 14.9582 32.803H14.9497V31.63C14.9497 29.9317 16.3267 28.5547 18.0267 28.5547H33.9727Z" fill="#21F5A8"/>
<path d="M20.05 14.0992C19.3737 14.0992 18.7251 14.3678 18.2469 14.8461C17.7687 15.3243 17.5 15.9729 17.5 16.6492V23.4492C17.5 24.1255 17.7687 24.7741 18.2469 25.2523C18.7251 25.7305 19.3737 25.9992 20.05 25.9992H31.95C32.6263 25.9992 33.2749 25.7305 33.7531 25.2523C34.2313 24.7741 34.5 24.1255 34.5 23.4492V16.6492C34.5 15.9729 34.2313 15.3243 33.7531 14.8461C33.2749 14.3678 32.6263 14.0992 31.95 14.0992H26.85V13.2492C26.8548 13.1363 26.8361 13.0236 26.7951 12.9183C26.7541 12.813 26.6916 12.7173 26.6117 12.6374C26.5318 12.5575 26.4362 12.4951 26.3309 12.4541C26.2256 12.4131 26.1129 12.3944 26 12.3992C25.5308 12.3992 25.15 12.7902 25.15 13.2492V14.0992H20.05ZM20.9 20.0492C20.9 19.5983 21.0791 19.1659 21.3979 18.8471C21.7167 18.5283 22.1491 18.3492 22.6 18.3492C23.0509 18.3492 23.4833 18.5283 23.8021 18.8471C24.1209 19.1659 24.3 19.5983 24.3 20.0492C24.3 20.5 24.1209 20.9324 23.8021 21.2513C23.4833 21.5701 23.0509 21.7492 22.6 21.7492C22.1491 21.7492 21.7167 21.5701 21.3979 21.2513C21.0791 20.9324 20.9 20.5 20.9 20.0492ZM27.7 20.0492C27.7 19.5983 27.8791 19.1659 28.1979 18.8471C28.5167 18.5283 28.9491 18.3492 29.4 18.3492C29.8509 18.3492 30.2833 18.5283 30.6021 18.8471C30.9209 19.1659 31.1 19.5983 31.1 20.0492C31.1 20.5 30.9209 20.9324 30.6021 21.2513C30.2833 21.5701 29.8509 21.7492 29.4 21.7492C28.9491 21.7492 28.5167 21.5701 28.1979 21.2513C27.8791 20.9324 27.7 20.5 27.7 20.0492Z" fill="#21F5A8"/>
</svg>
