<?xml version="1.0" standalone="no"?>
<!DOCTYPE svg PUBLIC "-//W3C//DTD SVG 20010904//EN"
 "http://www.w3.org/TR/2001/REC-SVG-20010904/DTD/svg10.dtd">
<svg version="1.0" xmlns="http://www.w3.org/2000/svg"
 width="765.000000pt" height="765.000000pt" viewBox="0 0 765.000000 765.000000"
 preserveAspectRatio="xMidYMid meet">

<g transform="translate(0.000000,765.000000) scale(0.100000,-0.100000)"
fill="#000000" stroke="none">
<path d="M3080 6314 c-14 -2 -59 -9 -100 -15 -871 -125 -1574 -878 -1646
-1763 l-7 -84 -46 -18 c-244 -91 -520 -297 -683 -508 -154 -199 -246 -393
-304 -642 -27 -112 -28 -133 -29 -344 0 -242 11 -321 71 -508 37 -115 155
-346 228 -443 277 -372 666 -596 1126 -649 66 -8 755 -10 2280 -8 l2185 4 97
22 c289 66 518 191 718 392 203 203 330 437 392 723 31 146 31 428 0 569 -89
405 -321 730 -672 943 -40 24 -59 42 -56 51 40 104 52 414 22 559 -53 251
-161 457 -332 635 -354 367 -896 480 -1373 286 l-59 -24 -48 66 c-26 35 -86
105 -132 154 -308 323 -712 531 -1151 592 -101 15 -408 20 -481 10z m351 -354
c313 -30 599 -144 844 -335 98 -77 233 -216 309 -318 91 -124 175 -169 311
-170 71 0 92 5 181 42 147 60 231 75 389 68 158 -6 240 -28 380 -100 86 -44
115 -66 205 -157 63 -63 120 -131 143 -170 121 -209 155 -448 96 -680 -33
-130 -15 -235 57 -333 36 -49 48 -59 199 -157 254 -164 427 -431 475 -733 18
-109 8 -319 -20 -422 -53 -197 -139 -345 -284 -491 -144 -144 -285 -226 -491
-286 l-80 -23 -2200 -3 c-2440 -3 -2273 -7 -2485 64 -421 141 -740 508 -826
951 -21 108 -24 327 -5 433 32 184 123 396 232 540 118 156 303 308 466 381
164 74 213 101 253 141 69 69 90 122 106 272 28 261 73 417 180 626 295 575
927 922 1565 860z"/>
<path d="M3760 4888 c-27 -7 -139 -113 -493 -466 -252 -252 -469 -473 -482
-492 -94 -136 24 -306 192 -275 33 6 77 46 350 318 l313 311 2 -874 c3 -838 4
-877 22 -913 30 -60 86 -92 162 -92 54 0 67 4 101 31 78 63 73 -7 73 974 l0
875 303 -302 c166 -165 316 -308 334 -317 76 -38 185 -6 228 68 27 46 33 113
14 163 -15 42 -935 961 -984 984 -44 20 -82 22 -135 7z"/>
</g>
</svg>
