<svg width="29" height="28" viewBox="0 0 29 28" fill="none" xmlns="http://www.w3.org/2000/svg">
<circle cx="14.5" cy="14" r="14" fill="#2F80ED" fill-opacity="0.12"/>
<path d="M14.5 13.4749C12.7888 13.4749 12.442 11.0669 12.442 11.0669C12.2385 9.8139 12.8566 8.3999 14.4774 8.3999C16.1057 8.3999 16.7239 9.8139 16.5203 11.0669C16.5203 11.0669 16.2113 13.4749 14.5 13.4749ZM14.5 15.2739L16.5505 13.9999C18.3522 13.9999 19.9579 15.6309 19.9579 17.1709V18.9139C19.9579 18.9139 17.2063 19.7049 14.5 19.7049C11.7485 19.7049 9.04218 18.9139 9.04218 18.9139V17.1709C9.04218 15.5959 10.5046 14.0349 12.4119 14.0349L14.5 15.2739Z" fill="#2F80ED"/>
</svg>
