<svg width="24" height="24" viewBox="0 0 24 24" fill="none" xmlns="http://www.w3.org/2000/svg">
<path d="M20.6667 14H8.66667C8.48986 14 8.32029 14.0702 8.19526 14.1953C8.07024 14.3203 8 14.4899 8 14.6667C8 14.8435 8.07024 15.013 8.19526 15.1381C8.32029 15.2631 8.48986 15.3333 8.66667 15.3333H20.6667C20.8435 15.3333 21.013 15.2631 21.1381 15.1381C21.2631 15.013 21.3333 14.8435 21.3333 14.6667C21.3333 14.4899 21.2631 14.3203 21.1381 14.1953C21.013 14.0702 20.8435 14 20.6667 14Z" fill="#979797"/>
<path d="M8 10.6667C8 10.8435 8.07024 11.013 8.19526 11.1381C8.32029 11.2631 8.48986 11.3333 8.66667 11.3333H20.6667C20.8435 11.3333 21.013 11.2631 21.1381 11.1381C21.2631 11.013 21.3333 10.8435 21.3333 10.6667C21.3333 10.4899 21.2631 10.3203 21.1381 10.1953C21.013 10.0702 20.8435 10 20.6667 10H8.66667C8.48986 10 8.32029 10.0702 8.19526 10.1953C8.07024 10.3203 8 10.4899 8 10.6667Z" fill="#979797"/>
<path d="M18 18H8.66667C8.48986 18 8.32029 18.0702 8.19526 18.1953C8.07024 18.3203 8 18.4899 8 18.6667C8 18.8435 8.07024 19.013 8.19526 19.1381C8.32029 19.2631 8.48986 19.3333 8.66667 19.3333H18C18.1768 19.3333 18.3464 19.2631 18.4714 19.1381C18.5964 19.013 18.6667 18.8435 18.6667 18.6667C18.6667 18.4899 18.5964 18.3203 18.4714 18.1953C18.3464 18.0702 18.1768 18 18 18Z" fill="#979797"/>
<path d="M10.5933 5.99981C10.5933 5.823 10.5231 5.65343 10.3981 5.52841C10.2731 5.40338 10.1035 5.33314 9.92668 5.33314H6.66668V2.13981C6.66668 1.963 6.59644 1.79343 6.47141 1.66841C6.34639 1.54338 6.17682 1.47314 6.00001 1.47314C5.8232 1.47314 5.65363 1.54338 5.52861 1.66841C5.40358 1.79343 5.33334 1.963 5.33334 2.13981V5.33314H1.92668C1.74987 5.33314 1.5803 5.40338 1.45527 5.52841C1.33025 5.65343 1.26001 5.823 1.26001 5.99981C1.26001 6.17662 1.33025 6.34619 1.45527 6.47122C1.5803 6.59624 1.74987 6.66648 1.92668 6.66648H5.33334V10.1398C5.33334 10.3166 5.40358 10.4862 5.52861 10.6112C5.65363 10.7362 5.8232 10.8065 6.00001 10.8065C6.17682 10.8065 6.34639 10.7362 6.47141 10.6112C6.59644 10.4862 6.66668 10.3166 6.66668 10.1398V6.66648H9.92668C10.1035 6.66648 10.2731 6.59624 10.3981 6.47122C10.5231 6.34619 10.5933 6.17662 10.5933 5.99981Z" fill="#979797"/>
</svg>
