<svg width="17" height="17" viewBox="0 0 17 17" fill="none" xmlns="http://www.w3.org/2000/svg">
<path fill-rule="evenodd" clip-rule="evenodd" d="M2.84296 14.1572C2.10007 13.4143 1.51078 12.5324 1.10874 11.5618C0.706687 10.5911 0.499756 9.55081 0.499756 8.50021C0.499756 7.4496 0.706687 6.40929 1.10874 5.43866C1.51078 4.46803 2.10007 3.58609 2.84296 2.84321C3.58585 2.10032 4.46779 1.51103 5.43842 1.10898C6.40905 0.706931 7.44936 0.5 8.49996 0.5C9.55056 0.5 10.5909 0.706931 11.5615 1.10898C12.5321 1.51103 13.4141 2.10032 14.157 2.84321C15.6573 4.34354 16.5002 6.37842 16.5002 8.50021C16.5002 10.622 15.6573 12.6569 14.157 14.1572C12.6566 15.6575 10.6217 16.5004 8.49996 16.5004C6.37818 16.5004 4.34329 15.6575 2.84296 14.1572ZM6.52996 5.47021C6.38779 5.33773 6.19974 5.2656 6.00544 5.26903C5.81114 5.27246 5.62575 5.35117 5.48834 5.48858C5.35093 5.626 5.27221 5.81138 5.26879 6.00568C5.26536 6.19998 5.33748 6.38803 5.46996 6.53021L7.43996 8.50021L5.46996 10.4702C5.39628 10.5389 5.33717 10.6217 5.29618 10.7137C5.25519 10.8057 5.23315 10.905 5.23137 11.0057C5.22959 11.1064 5.24812 11.2064 5.28584 11.2998C5.32356 11.3932 5.3797 11.478 5.45092 11.5492C5.52214 11.6205 5.60698 11.6766 5.70036 11.7143C5.79375 11.752 5.89378 11.7706 5.99448 11.7688C6.09519 11.767 6.1945 11.745 6.2865 11.704C6.3785 11.663 6.4613 11.6039 6.52996 11.5302L8.49996 9.56021L10.47 11.5302C10.5386 11.6039 10.6214 11.663 10.7134 11.704C10.8054 11.745 10.9047 11.767 11.0054 11.7688C11.1061 11.7706 11.2062 11.752 11.2996 11.7143C11.3929 11.6766 11.4778 11.6205 11.549 11.5492C11.6202 11.478 11.6764 11.3932 11.7141 11.2998C11.7518 11.2064 11.7703 11.1064 11.7686 11.0057C11.7668 10.905 11.7447 10.8057 11.7037 10.7137C11.6628 10.6217 11.6036 10.5389 11.53 10.4702L9.55996 8.50021L11.53 6.53021C11.6036 6.46154 11.6628 6.37874 11.7037 6.28674C11.7447 6.19474 11.7668 6.09543 11.7686 5.99473C11.7703 5.89403 11.7518 5.794 11.7141 5.70061C11.6764 5.60722 11.6202 5.52239 11.549 5.45117C11.4778 5.37995 11.3929 5.3238 11.2996 5.28608C11.2062 5.24836 11.1061 5.22984 11.0054 5.23161C10.9047 5.23339 10.8054 5.25543 10.7134 5.29642C10.6214 5.33742 10.5386 5.39652 10.47 5.47021L8.49996 7.44021L6.52996 5.47021Z" fill="black"/>
</svg>
