<svg width="23" height="24" viewBox="0 0 23 24" fill="none" xmlns="http://www.w3.org/2000/svg">
<path fill-rule="evenodd" clip-rule="evenodd" d="M11.5 0.5C5.14886 0.5 0 5.64886 0 12C0 18.3511 5.14886 23.5 11.5 23.5C17.8511 23.5 23 18.3511 23 12C23 5.64886 17.8511 0.5 11.5 0.5ZM16.4847 10.0555C16.5765 9.95053 16.6464 9.82832 16.6902 9.69599C16.7341 9.56367 16.7511 9.42391 16.7401 9.28494C16.7291 9.14597 16.6905 9.01059 16.6265 8.88677C16.5624 8.76295 16.4743 8.65319 16.3672 8.56395C16.2601 8.4747 16.1362 8.40778 16.0029 8.36711C15.8695 8.32644 15.7294 8.31285 15.5907 8.32714C15.4521 8.34142 15.3177 8.3833 15.1954 8.4503C15.0732 8.5173 14.9656 8.60807 14.8789 8.71727L10.3835 14.1108L8.05732 11.7836C7.86014 11.5932 7.59606 11.4878 7.32194 11.4902C7.04783 11.4925 6.78562 11.6025 6.59178 11.7963C6.39794 11.9902 6.28799 12.2524 6.28561 12.5265C6.28323 12.8006 6.38861 13.0647 6.57905 13.2619L9.71541 16.3982C9.81813 16.5009 9.94112 16.581 10.0765 16.6335C10.2119 16.686 10.3568 16.7097 10.5019 16.7031C10.647 16.6965 10.7891 16.6598 10.9192 16.5952C11.0492 16.5307 11.1645 16.4397 11.2575 16.3282L16.4847 10.0555Z" fill="#0CAA63"/>
</svg>
