<svg width="40" height="40" viewBox="0 0 49 48" fill="none" xmlns="http://www.w3.org/2000/svg">
<g opacity="0.5">
<rect x="0.5" width="48" height="48" rx="16" fill="#1E1E1E" fill-opacity="0.04"/>
<path d="M12.5 19.326C12.4994 18.3631 12.6852 17.4096 13.0469 16.52C13.4086 15.6304 13.9391 14.8222 14.6079 14.1417C15.2767 13.4612 16.0707 12.9218 16.9445 12.5543C17.8183 12.1867 18.7546 11.9984 19.7 12H29.3C33.2756 12 36.5 15.2939 36.5 19.326V34H19.7C15.7244 34 12.5 30.7061 12.5 26.674V19.326ZM34.1 31.5556V19.326C34.0968 18.0311 33.5899 16.7902 32.6902 15.8752C31.7905 14.9602 30.5714 14.4457 29.3 14.4445H19.7C19.0698 14.4428 18.4455 14.568 17.8629 14.8126C17.2803 15.0573 16.7509 15.4167 16.3049 15.8702C15.859 16.3237 15.5053 16.8624 15.2642 17.4555C15.0231 18.0485 14.8994 18.6842 14.9 19.326V26.674C14.9032 27.9689 15.4101 29.2098 16.3098 30.1248C17.2095 31.0398 18.4286 31.5543 19.7 31.5556H34.1ZM26.9 21.7778H29.3V24.2222H26.9V21.7778ZM19.7 21.7778H22.1V24.2222H19.7V21.7778Z" fill="#7A7A7A"/>
</g>
</svg>
