<?xml version="1.0" standalone="no"?>
<!DOCTYPE svg PUBLIC "-//W3C//DTD SVG 20010904//EN"
 "http://www.w3.org/TR/2001/REC-SVG-20010904/DTD/svg10.dtd">
<svg version="1.0" xmlns="http://www.w3.org/2000/svg"
 width="765.000000pt" height="765.000000pt" viewBox="0 0 765.000000 765.000000"
 preserveAspectRatio="xMidYMid meet">

<g transform="translate(0.000000,765.000000) scale(0.100000,-0.100000)"
fill="#000000" stroke="none">
<path d="M957 6290 c-100 -17 -202 -89 -249 -177 -44 -81 -398 -914 -414 -973
-38 -146 4 -302 113 -420 100 -108 79 -102 1155 -350 1010 -232 1025 -235
1150 -209 76 16 185 71 244 123 35 31 185 233 459 616 404 566 407 570 424
548 10 -13 191 -266 403 -563 239 -335 406 -560 440 -592 62 -58 150 -106 235
-128 130 -34 135 -33 1177 209 575 134 981 233 1007 246 188 95 286 276 258
478 -7 53 -53 168 -210 537 -197 459 -237 537 -296 581 -75 56 -187 89 -262
79 -133 -19 -2734 -316 -2766 -316 -22 0 -664 72 -1427 160 -763 89 -1388 160
-1390 160 -2 -1 -24 -5 -51 -9z m1298 -505 c644 -74 1184 -137 1202 -140 l32
-6 -380 -532 c-413 -579 -420 -587 -509 -587 -25 0 -464 97 -975 215 -858 197
-932 216 -952 240 -13 14 -23 37 -23 51 0 21 318 782 366 875 10 20 19 25 41
22 15 -2 555 -64 1198 -138z m4556 -300 c138 -321 187 -447 183 -465 -14 -66
17 -57 -976 -287 -992 -229 -1004 -232 -1066 -187 -29 22 -795 1085 -786 1093
5 5 2433 290 2447 287 5 -1 94 -199 198 -441z"/>
<path d="M3745 4644 c-43 -22 -64 -44 -86 -86 -18 -36 -19 -83 -19 -1413 0
-756 -2 -1375 -5 -1375 -33 0 -2262 565 -2295 582 -29 15 -52 37 -67 63 l-23
40 0 842 0 842 -67 20 c-110 32 -287 81 -296 81 -4 0 -6 -417 -5 -927 l3 -928
26 -66 c53 -137 155 -248 282 -307 42 -20 462 -129 1312 -341 1071 -267 1260
-311 1322 -311 61 0 268 49 1315 310 946 237 1260 319 1313 344 129 61 241
187 288 325 l22 66 3 918 c2 742 0 917 -10 917 -7 -1 -89 -23 -183 -49 l-170
-49 -5 -843 c-5 -761 -7 -847 -22 -874 -21 -39 -56 -71 -92 -85 -26 -9 -2258
-570 -2271 -570 -3 0 -5 616 -5 1368 l0 1368 -26 52 c-33 67 -89 102 -160 102
-27 0 -62 -7 -79 -16z"/>
</g>
</svg>
