<?xml version="1.0" standalone="no"?>
<!DOCTYPE svg PUBLIC "-//W3C//DTD SVG 20010904//EN"
 "http://www.w3.org/TR/2001/REC-SVG-20010904/DTD/svg10.dtd">
<svg version="1.0" xmlns="http://www.w3.org/2000/svg"
 width="765.000000pt" height="765.000000pt" viewBox="0 0 765.000000 765.000000"
 preserveAspectRatio="xMidYMid meet">

<g transform="translate(0.000000,765.000000) scale(0.100000,-0.100000)"
fill="#000000" stroke="none">
<path d="M1915 7419 c-345 -50 -629 -305 -727 -654 l-23 -80 -3 -2760 c-2
-1969 0 -2782 8 -2838 53 -370 335 -667 705 -741 72 -15 268 -16 1980 -14
1815 3 1903 4 1965 22 81 23 213 84 277 127 188 128 332 350 375 576 10 54 13
619 13 2838 l0 2770 -26 96 c-97 348 -364 593 -716 654 -74 13 -331 15 -1927
14 -1012 -1 -1868 -5 -1901 -10z m3866 -476 c121 -59 202 -152 240 -274 18
-59 19 -139 19 -2788 0 -2969 4 -2765 -52 -2876 -53 -103 -184 -199 -306 -224
-34 -7 -216 -11 -512 -11 l-459 0 -3 523 -4 522 -27 88 c-49 160 -123 282
-239 393 -106 104 -207 164 -346 208 -320 101 -662 17 -898 -218 -102 -102
-169 -215 -220 -366 l-29 -85 -5 -530 -5 -530 -455 -3 c-277 -1 -476 2 -509 8
-184 34 -332 186 -361 370 -13 87 -14 5371 0 5454 27 164 145 302 305 358 47
16 166 17 1925 15 l1875 -2 66 -32z m-1779 -4880 c115 -54 204 -153 244 -273
18 -51 19 -93 19 -535 l0 -480 -443 -3 -443 -2 3 497 3 498 32 68 c60 126 138
199 261 243 57 21 81 24 162 22 82 -3 104 -8 162 -35z"/>
<path d="M2299 6087 c-106 -30 -192 -107 -229 -205 -20 -53 -21 -72 -18 -466
l3 -411 25 -50 c34 -70 108 -139 176 -165 55 -20 70 -21 473 -18 412 3 416 3
463 26 65 32 125 94 156 160 l27 57 0 415 0 415 -33 67 c-37 76 -82 120 -162
157 l-55 26 -390 2 c-289 2 -402 -1 -436 -10z m641 -657 l0 -220 -225 0 -225
0 0 220 0 220 225 0 225 0 0 -220z"/>
<path d="M4513 6085 c-94 -26 -166 -86 -215 -178 -23 -41 -23 -48 -26 -458 -3
-400 -2 -418 18 -472 26 -70 83 -134 151 -172 l54 -30 435 0 435 0 47 24 c64
33 123 93 156 160 l27 56 0 415 0 415 -26 56 c-15 32 -46 76 -69 99 -23 23
-67 54 -99 69 l-56 26 -390 2 c-314 2 -400 0 -442 -12z m637 -655 l0 -220
-220 0 -220 0 0 220 0 220 220 0 220 0 0 -220z"/>
<path d="M2290 4311 c-89 -27 -163 -90 -208 -174 l-27 -52 0 -430 0 -430 23
-43 c36 -67 98 -129 161 -159 l56 -28 420 0 420 0 55 28 c72 37 121 86 156
155 l29 57 0 420 0 420 -28 57 c-35 71 -110 140 -183 167 -52 20 -75 21 -452
20 -218 0 -408 -4 -422 -8z m645 -656 l0 -220 -220 0 -220 0 -3 223 -2 222
222 -2 223 -3 0 -220z"/>
<path d="M4490 4303 c-65 -22 -125 -67 -160 -119 -61 -87 -61 -90 -58 -545 l3
-414 27 -52 c36 -67 87 -116 157 -151 l56 -27 420 0 c419 0 420 0 466 23 75
37 125 87 161 160 l33 67 3 388 c3 334 1 396 -13 444 -31 106 -103 186 -202
223 -51 19 -77 20 -451 20 -334 -1 -404 -3 -442 -17z m660 -648 l0 -225 -217
2 -218 3 -3 223 -2 222 220 0 220 0 0 -225z"/>
</g>
</svg>
