<svg width="14" height="14" viewBox="0 0 14 14" fill="none" xmlns="http://www.w3.org/2000/svg">
<path d="M9.98259 2.60522L11.3946 4.01655L9.98259 2.60522ZM10.8906 1.36188L7.07259 5.17988C6.87531 5.37688 6.74077 5.62787 6.68592 5.90122L6.33325 7.66655L8.09859 7.31322C8.37192 7.25855 8.62259 7.12455 8.81992 6.92722L12.6379 3.10922C12.7527 2.99449 12.8437 2.85828 12.9058 2.70838C12.9678 2.55847 12.9998 2.39781 12.9998 2.23555C12.9998 2.0733 12.9678 1.91263 12.9058 1.76273C12.8437 1.61282 12.7527 1.47662 12.6379 1.36188C12.5232 1.24715 12.387 1.15614 12.2371 1.09405C12.0872 1.03196 11.9265 1 11.7643 1C11.602 1 11.4413 1.03196 11.2914 1.09405C11.1415 1.15614 11.0053 1.24715 10.8906 1.36188V1.36188Z" stroke="#2F80ED" stroke-width="1.6" stroke-linecap="round" stroke-linejoin="round"/>
<path d="M11.6666 8.99967V10.9997C11.6666 11.3533 11.5262 11.6924 11.2761 11.9425C11.0261 12.1925 10.6869 12.333 10.3333 12.333H2.99996C2.64634 12.333 2.3072 12.1925 2.05715 11.9425C1.8071 11.6924 1.66663 11.3533 1.66663 10.9997V3.66634C1.66663 3.31272 1.8071 2.97358 2.05715 2.72353C2.3072 2.47348 2.64634 2.33301 2.99996 2.33301H4.99996" stroke="#2F80ED" stroke-width="1.6" stroke-linecap="round" stroke-linejoin="round"/>
</svg>
