<?xml version="1.0" standalone="no"?>
<!DOCTYPE svg PUBLIC "-//W3C//DTD SVG 20010904//EN"
 "http://www.w3.org/TR/2001/REC-SVG-20010904/DTD/svg10.dtd">
<svg version="1.0" xmlns="http://www.w3.org/2000/svg"
 width="765.000000pt" height="765.000000pt" viewBox="0 0 765.000000 765.000000"
 preserveAspectRatio="xMidYMid meet">

<g transform="translate(0.000000,765.000000) scale(0.100000,-0.100000)"
fill="#000000" stroke="none">
<path d="M3590 7345 c-314 -43 -599 -162 -845 -353 -352 -271 -572 -633 -663
-1087 -13 -65 -17 -183 -21 -635 l-6 -555 -190 -6 c-115 -4 -218 -12 -261 -22
-465 -105 -806 -478 -864 -947 -8 -69 -10 -422 -7 -1300 4 -1313 0 -1230 60
-1405 127 -369 443 -642 834 -722 83 -17 207 -18 2198 -18 2006 0 2114 1 2195
18 164 36 304 95 429 184 238 169 406 439 451 723 8 55 10 409 8 1330 l-4
1255 -22 78 c-116 401 -408 691 -799 794 -84 22 -126 26 -295 30 l-198 6 0
484 c0 271 -5 526 -11 581 -32 302 -144 597 -317 842 -86 121 -290 326 -412
413 -113 80 -339 195 -467 237 -248 82 -542 109 -793 75z m477 -450 c404 -78
758 -346 938 -710 61 -124 88 -200 118 -330 19 -83 20 -131 24 -617 l5 -528
-1327 0 -1326 0 4 543 c4 595 4 599 72 787 171 472 590 808 1085 870 101 12
306 5 407 -15z m1871 -2641 c232 -48 408 -200 496 -429 l31 -80 3 -1210 c3
-1358 7 -1283 -71 -1438 -58 -117 -170 -228 -287 -285 -159 -78 34 -72 -2285
-72 -2302 0 -2139 -4 -2280 65 -172 85 -301 244 -352 435 -17 60 -18 151 -18
1265 0 1349 -5 1249 76 1406 93 179 279 316 471 348 29 5 970 9 2096 10 1831
1 2051 -1 2120 -15z"/>
<path d="M3777 3270 c-54 -10 -118 -58 -147 -110 l-25 -45 -3 -580 c-2 -319 0
-599 3 -621 24 -164 229 -240 359 -132 78 64 76 37 76 721 0 677 3 644 -68
713 -48 47 -122 67 -195 54z"/>
</g>
</svg>
