<svg width="40" height="40" viewBox="0 0 49 48" fill="none" xmlns="http://www.w3.org/2000/svg">
<g opacity="0.5">
<rect x="0.5" width="48" height="48" rx="16" fill="#1E1E1E" fill-opacity="0.04"/>
<path d="M13.8334 13.3335H28.5001C29.2073 13.3335 29.8856 13.6144 30.3857 14.1145C30.8858 14.6146 31.1668 15.2929 31.1668 16.0002V25.3335C31.1668 26.0407 30.8858 26.719 30.3857 27.2191C29.8856 27.7192 29.2073 28.0002 28.5001 28.0002H13.8334C13.1262 28.0002 12.4479 27.7192 11.9478 27.2191C11.4477 26.719 11.1667 26.0407 11.1667 25.3335V16.0002C11.1667 15.2929 11.4477 14.6146 11.9478 14.1145C12.4479 13.6144 13.1262 13.3335 13.8334 13.3335ZM28.5001 15.3335H13.8334C13.6566 15.3335 13.487 15.4037 13.362 15.5288C13.237 15.6538 13.1667 15.8234 13.1667 16.0002V25.3335C13.1667 25.5103 13.237 25.6799 13.362 25.8049C13.487 25.9299 13.6566 26.0002 13.8334 26.0002H28.5001C28.6769 26.0002 28.8465 25.9299 28.9715 25.8049C29.0965 25.6799 29.1668 25.5103 29.1668 25.3335V16.0002C29.1668 15.8234 29.0965 15.6538 28.9715 15.5288C28.8465 15.4037 28.6769 15.3335 28.5001 15.3335ZM14.5841 29.3335C14.7319 29.906 15.0658 30.4132 15.5333 30.7752C16.0009 31.1373 16.5754 31.3336 17.1667 31.3335H29.1668C30.5812 31.3335 31.9378 30.7716 32.938 29.7714C33.9382 28.7712 34.5001 27.4146 34.5001 26.0002V19.3335C34.5002 18.7422 34.3039 18.1676 33.9418 17.7001C33.5798 17.2326 33.0726 16.8987 32.5001 16.7508V26.0002C32.5001 26.8842 32.1489 27.7321 31.5238 28.3572C30.8987 28.9823 30.0508 29.3335 29.1668 29.3335H14.5841ZM17.9174 32.6668C18.0652 33.2394 18.3992 33.7465 18.8667 34.1086C19.3342 34.4706 19.9088 34.667 20.5001 34.6668H30.1668C32.2001 34.6668 34.1501 33.8591 35.5879 32.4213C37.0257 30.9835 37.8334 29.0335 37.8334 27.0002V22.6668C37.8336 22.0755 37.6372 21.5009 37.2752 21.0334C36.9131 20.5659 36.406 20.232 35.8334 20.0842V27.0002C35.8334 28.5031 35.2364 29.9444 34.1737 31.0071C33.111 32.0698 31.6696 32.6668 30.1668 32.6668H17.9174Z" fill="#1E1E1E" fill-opacity="0.5"/>
</g>
</svg>
