<?xml version="1.0" standalone="no"?>
<!DOCTYPE svg PUBLIC "-//W3C//DTD SVG 20010904//EN"
 "http://www.w3.org/TR/2001/REC-SVG-20010904/DTD/svg10.dtd">
<svg version="1.0" xmlns="http://www.w3.org/2000/svg"
 width="765.000000pt" height="765.000000pt" viewBox="0 0 765.000000 765.000000"
 preserveAspectRatio="xMidYMid meet">

<g transform="translate(0.000000,765.000000) scale(0.100000,-0.100000)"
fill="#000000" stroke="none">
<path d="M3156 7006 c-22 -8 -52 -27 -67 -43 -15 -15 -331 -548 -702 -1183
l-674 -1155 -679 -5 -679 -5 -32 -23 c-124 -89 -115 -275 17 -342 35 -18 59
-20 214 -20 l175 0 10 -37 c6 -21 177 -706 381 -1523 207 -828 384 -1514 399
-1551 100 -238 334 -426 582 -469 45 -8 558 -10 1759 -8 l1695 3 80 28 c213
75 368 211 470 412 44 85 66 168 428 1615 l382 1525 186 5 c181 5 187 6 226
32 113 75 110 256 -5 329 l-46 29 -668 0 -668 0 -24 38 c-14 20 -320 543 -681
1162 -405 695 -667 1135 -686 1151 -96 83 -248 50 -305 -66 -51 -104 -87 -31
600 -1210 339 -581 616 -1060 616 -1065 0 -6 -611 -10 -1640 -10 -902 0 -1640
2 -1640 5 0 2 278 480 618 1062 l617 1058 0 77 c0 70 -2 79 -31 115 -17 21
-45 46 -62 56 -42 25 -118 31 -166 13z m3344 -2781 c0 -3 -164 -662 -365
-1466 -241 -963 -374 -1477 -391 -1511 -35 -70 -103 -134 -182 -171 l-67 -32
-1675 0 -1675 0 -66 32 c-78 39 -150 111 -184 186 -21 46 -745 2915 -745 2952
0 13 300 15 2675 15 1471 0 2675 -2 2675 -5z"/>
<path d="M2756 3415 c-21 -7 -51 -26 -67 -41 -61 -59 -59 -30 -59 -743 0 -631
1 -653 20 -691 30 -59 111 -110 174 -110 88 0 176 72 195 160 15 72 15 1209 0
1282 -9 40 -21 63 -53 94 -60 60 -131 77 -210 49z"/>
<path d="M3745 3412 c-52 -24 -101 -81 -115 -132 -7 -27 -10 -243 -8 -672 3
-704 -1 -662 72 -726 97 -85 249 -54 305 61 21 43 21 53 21 688 l0 645 -22 44
c-47 91 -164 134 -253 92z"/>
<path d="M4750 3417 c-46 -15 -106 -77 -119 -124 -7 -25 -11 -255 -11 -669 l0
-630 26 -52 c72 -145 277 -144 349 1 l26 53 -3 651 -3 651 -30 43 c-51 72
-151 105 -235 76z"/>
</g>
</svg>
