<svg width="104" height="97" viewBox="0 0 104 97" fill="none" xmlns="http://www.w3.org/2000/svg">
<path d="M2.14755 96.7951C3.33361 96.7951 4.2951 95.8336 4.2951 94.6476C4.2951 93.4615 3.33361 92.5 2.14755 92.5C0.96149 92.5 0 93.4615 0 94.6476C0 95.8336 0.96149 96.7951 2.14755 96.7951Z" fill="#ffffff"/>
<path d="M2.14755 78.2345C3.33361 78.2345 4.2951 77.2731 4.2951 76.087C4.2951 74.9009 3.33361 73.9395 2.14755 73.9395C0.96149 73.9395 0 74.9009 0 76.087C0 77.2731 0.96149 78.2345 2.14755 78.2345Z" fill="#ffffff"/>
<path d="M2.14755 59.6721C3.33361 59.6721 4.2951 58.7106 4.2951 57.5245C4.2951 56.3384 3.33361 55.377 2.14755 55.377C0.96149 55.377 0 56.3384 0 57.5245C0 58.7106 0.96149 59.6721 2.14755 59.6721Z" fill="#ffffff"/>
<path d="M2.14755 41.2638C3.33361 41.2638 4.2951 40.3024 4.2951 39.1163C4.2951 37.9302 3.33361 36.9688 2.14755 36.9688C0.96149 36.9688 0 37.9302 0 39.1163C0 40.3024 0.96149 41.2638 2.14755 41.2638Z" fill="#ffffff"/>
<path d="M2.14755 22.7033C3.33361 22.7033 4.2951 21.7418 4.2951 20.5558C4.2951 19.3697 3.33361 18.4082 2.14755 18.4082C0.96149 18.4082 0 19.3697 0 20.5558C0 21.7418 0.96149 22.7033 2.14755 22.7033Z" fill="#ffffff"/>
<path d="M2.15048 4.29705C3.33654 4.29705 4.29803 3.33556 4.29803 2.1495C4.29803 0.963443 3.33654 0.00195312 2.15048 0.00195312C0.96442 0.00195312 0.00292969 0.963443 0.00292969 2.1495C0.00292969 3.33556 0.96442 4.29705 2.15048 4.29705Z" fill="#ffffff"/>
<path d="M101.552 96.7931C102.738 96.7931 103.699 95.8317 103.699 94.6456C103.699 93.4595 102.738 92.498 101.552 92.498C100.366 92.498 99.4043 93.4595 99.4043 94.6456C99.4043 95.8317 100.366 96.7931 101.552 96.7931Z" fill="#ffffff"/>
<path d="M101.552 78.2326C102.738 78.2326 103.699 77.2711 103.699 76.085C103.699 74.899 102.738 73.9375 101.552 73.9375C100.366 73.9375 99.4043 74.899 99.4043 76.085C99.4043 77.2711 100.366 78.2326 101.552 78.2326Z" fill="#ffffff"/>
<path d="M101.552 59.6701C102.738 59.6701 103.699 58.7086 103.699 57.5226C103.699 56.3365 102.738 55.375 101.552 55.375C100.366 55.375 99.4043 56.3365 99.4043 57.5226C99.4043 58.7086 100.366 59.6701 101.552 59.6701Z" fill="#ffffff"/>
<path d="M101.552 41.2638C102.738 41.2638 103.699 40.3024 103.699 39.1163C103.699 37.9302 102.738 36.9688 101.552 36.9688C100.366 36.9688 99.4043 37.9302 99.4043 39.1163C99.4043 40.3024 100.366 41.2638 101.552 41.2638Z" fill="#ffffff"/>
<path d="M101.552 22.7013C102.738 22.7013 103.699 21.7399 103.699 20.5538C103.699 19.3677 102.738 18.4062 101.552 18.4062C100.366 18.4062 99.4043 19.3677 99.4043 20.5538C99.4043 21.7399 100.366 22.7013 101.552 22.7013Z" fill="#ffffff"/>
<path d="M101.552 4.2951C102.738 4.2951 103.699 3.33361 103.699 2.14755C103.699 0.96149 102.738 0 101.552 0C100.366 0 99.4043 0.96149 99.4043 2.14755C99.4043 3.33361 100.366 4.2951 101.552 4.2951Z" fill="#ffffff"/>
<path d="M81.7638 96.7931C82.9498 96.7931 83.9113 95.8317 83.9113 94.6456C83.9113 93.4595 82.9498 92.498 81.7638 92.498C80.5777 92.498 79.6162 93.4595 79.6162 94.6456C79.6162 95.8317 80.5777 96.7931 81.7638 96.7931Z" fill="#ffffff"/>
<path d="M81.7638 78.2326C82.9498 78.2326 83.9113 77.2711 83.9113 76.085C83.9113 74.899 82.9498 73.9375 81.7638 73.9375C80.5777 73.9375 79.6162 74.899 79.6162 76.085C79.6162 77.2711 80.5777 78.2326 81.7638 78.2326Z" fill="#ffffff"/>
<path d="M81.7638 59.6701C82.9498 59.6701 83.9113 58.7086 83.9113 57.5226C83.9113 56.3365 82.9498 55.375 81.7638 55.375C80.5777 55.375 79.6162 56.3365 79.6162 57.5226C79.6162 58.7086 80.5777 59.6701 81.7638 59.6701Z" fill="#ffffff"/>
<path d="M81.7638 41.2638C82.9498 41.2638 83.9113 40.3024 83.9113 39.1163C83.9113 37.9302 82.9498 36.9688 81.7638 36.9688C80.5777 36.9688 79.6162 37.9302 79.6162 39.1163C79.6162 40.3024 80.5777 41.2638 81.7638 41.2638Z" fill="#ffffff"/>
<path d="M81.7638 22.7013C82.9498 22.7013 83.9113 21.7399 83.9113 20.5538C83.9113 19.3677 82.9498 18.4062 81.7638 18.4062C80.5777 18.4062 79.6162 19.3677 79.6162 20.5538C79.6162 21.7399 80.5777 22.7013 81.7638 22.7013Z" fill="#ffffff"/>
<path d="M81.7628 4.2951C82.9488 4.2951 83.9103 3.33361 83.9103 2.14755C83.9103 0.96149 82.9488 0 81.7628 0C80.5767 0 79.6152 0.96149 79.6152 2.14755C79.6152 3.33361 80.5767 4.2951 81.7628 4.2951Z" fill="#ffffff"/>
<path d="M61.8219 96.7931C63.0079 96.7931 63.9694 95.8317 63.9694 94.6456C63.9694 93.4595 63.0079 92.498 61.8219 92.498C60.6358 92.498 59.6743 93.4595 59.6743 94.6456C59.6743 95.8317 60.6358 96.7931 61.8219 96.7931Z" fill="#ffffff"/>
<path d="M61.8219 78.2326C63.0079 78.2326 63.9694 77.2711 63.9694 76.085C63.9694 74.899 63.0079 73.9375 61.8219 73.9375C60.6358 73.9375 59.6743 74.899 59.6743 76.085C59.6743 77.2711 60.6358 78.2326 61.8219 78.2326Z" fill="#ffffff"/>
<path d="M61.8219 59.6701C63.0079 59.6701 63.9694 58.7086 63.9694 57.5226C63.9694 56.3365 63.0079 55.375 61.8219 55.375C60.6358 55.375 59.6743 56.3365 59.6743 57.5226C59.6743 58.7086 60.6358 59.6701 61.8219 59.6701Z" fill="#ffffff"/>
<path d="M61.8219 41.2638C63.0079 41.2638 63.9694 40.3024 63.9694 39.1163C63.9694 37.9302 63.0079 36.9688 61.8219 36.9688C60.6358 36.9688 59.6743 37.9302 59.6743 39.1163C59.6743 40.3024 60.6358 41.2638 61.8219 41.2638Z" fill="#ffffff"/>
<path d="M61.8219 22.7013C63.0079 22.7013 63.9694 21.7399 63.9694 20.5538C63.9694 19.3677 63.0079 18.4062 61.8219 18.4062C60.6358 18.4062 59.6743 19.3677 59.6743 20.5538C59.6743 21.7399 60.6358 22.7013 61.8219 22.7013Z" fill="#ffffff"/>
<path d="M61.8209 4.2951C63.0069 4.2951 63.9684 3.33361 63.9684 2.14755C63.9684 0.96149 63.0069 0 61.8209 0C60.6348 0 59.6733 0.96149 59.6733 2.14755C59.6733 3.33361 60.6348 4.2951 61.8209 4.2951Z" fill="#ffffff"/>
<path d="M41.8805 96.7931C43.0665 96.7931 44.028 95.8317 44.028 94.6456C44.028 93.4595 43.0665 92.498 41.8805 92.498C40.6944 92.498 39.7329 93.4595 39.7329 94.6456C39.7329 95.8317 40.6944 96.7931 41.8805 96.7931Z" fill="#ffffff"/>
<path d="M41.8805 78.2326C43.0665 78.2326 44.028 77.2711 44.028 76.085C44.028 74.899 43.0665 73.9375 41.8805 73.9375C40.6944 73.9375 39.7329 74.899 39.7329 76.085C39.7329 77.2711 40.6944 78.2326 41.8805 78.2326Z" fill="#ffffff"/>
<path d="M41.8805 59.6701C43.0665 59.6701 44.028 58.7086 44.028 57.5226C44.028 56.3365 43.0665 55.375 41.8805 55.375C40.6944 55.375 39.7329 56.3365 39.7329 57.5226C39.7329 58.7086 40.6944 59.6701 41.8805 59.6701Z" fill="#ffffff"/>
<path d="M41.8805 41.2638C43.0665 41.2638 44.028 40.3024 44.028 39.1163C44.028 37.9302 43.0665 36.9688 41.8805 36.9688C40.6944 36.9688 39.7329 37.9302 39.7329 39.1163C39.7329 40.3024 40.6944 41.2638 41.8805 41.2638Z" fill="#ffffff"/>
<path d="M41.8805 22.7013C43.0665 22.7013 44.028 21.7399 44.028 20.5538C44.028 19.3677 43.0665 18.4062 41.8805 18.4062C40.6944 18.4062 39.7329 19.3677 39.7329 20.5538C39.7329 21.7399 40.6944 22.7013 41.8805 22.7013Z" fill="#ffffff"/>
<path d="M41.8795 4.2951C43.0655 4.2951 44.027 3.33361 44.027 2.14755C44.027 0.96149 43.0655 0 41.8795 0C40.6934 0 39.7319 0.96149 39.7319 2.14755C39.7319 3.33361 40.6934 4.2951 41.8795 4.2951Z" fill="#ffffff"/>
<path d="M21.9391 96.7931C23.1251 96.7931 24.0866 95.8317 24.0866 94.6456C24.0866 93.4595 23.1251 92.498 21.9391 92.498C20.753 92.498 19.7915 93.4595 19.7915 94.6456C19.7915 95.8317 20.753 96.7931 21.9391 96.7931Z" fill="#ffffff"/>
<path d="M21.9391 78.2326C23.1251 78.2326 24.0866 77.2711 24.0866 76.085C24.0866 74.899 23.1251 73.9375 21.9391 73.9375C20.753 73.9375 19.7915 74.899 19.7915 76.085C19.7915 77.2711 20.753 78.2326 21.9391 78.2326Z" fill="#ffffff"/>
<path d="M21.9391 59.6701C23.1251 59.6701 24.0866 58.7086 24.0866 57.5226C24.0866 56.3365 23.1251 55.375 21.9391 55.375C20.753 55.375 19.7915 56.3365 19.7915 57.5226C19.7915 58.7086 20.753 59.6701 21.9391 59.6701Z" fill="#ffffff"/>
<path d="M21.9391 41.2638C23.1251 41.2638 24.0866 40.3024 24.0866 39.1163C24.0866 37.9302 23.1251 36.9688 21.9391 36.9688C20.753 36.9688 19.7915 37.9302 19.7915 39.1163C19.7915 40.3024 20.753 41.2638 21.9391 41.2638Z" fill="#ffffff"/>
<path d="M21.9391 22.7013C23.1251 22.7013 24.0866 21.7399 24.0866 20.5538C24.0866 19.3677 23.1251 18.4062 21.9391 18.4062C20.753 18.4062 19.7915 19.3677 19.7915 20.5538C19.7915 21.7399 20.753 22.7013 21.9391 22.7013Z" fill="#ffffff"/>
<path d="M21.9381 4.2951C23.1241 4.2951 24.0856 3.33361 24.0856 2.14755C24.0856 0.96149 23.1241 0 21.9381 0C20.752 0 19.7905 0.96149 19.7905 2.14755C19.7905 3.33361 20.752 4.2951 21.9381 4.2951Z" fill="#ffffff"/>
</svg>
