<svg width="64" height="97" viewBox="0 0 64 97" fill="none" xmlns="http://www.w3.org/2000/svg">
<path d="M2.14755 96.7951C3.33361 96.7951 4.2951 95.8336 4.2951 94.6476C4.2951 93.4615 3.33361 92.5 2.14755 92.5C0.96149 92.5 0 93.4615 0 94.6476C0 95.8336 0.96149 96.7951 2.14755 96.7951Z" fill="#FFFFFF"/>
<path d="M2.14755 78.2345C3.33361 78.2345 4.2951 77.2731 4.2951 76.087C4.2951 74.9009 3.33361 73.9395 2.14755 73.9395C0.96149 73.9395 0 74.9009 0 76.087C0 77.2731 0.96149 78.2345 2.14755 78.2345Z" fill="#FFFFFF"/>
<path d="M2.14755 59.6721C3.33361 59.6721 4.2951 58.7106 4.2951 57.5245C4.2951 56.3384 3.33361 55.377 2.14755 55.377C0.96149 55.377 0 56.3384 0 57.5245C0 58.7106 0.96149 59.6721 2.14755 59.6721Z" fill="#FFFFFF"/>
<path d="M2.14755 41.2638C3.33361 41.2638 4.2951 40.3024 4.2951 39.1163C4.2951 37.9302 3.33361 36.9688 2.14755 36.9688C0.96149 36.9688 0 37.9302 0 39.1163C0 40.3024 0.96149 41.2638 2.14755 41.2638Z" fill="#FFFFFF"/>
<path d="M2.14755 22.7033C3.33361 22.7033 4.2951 21.7418 4.2951 20.5558C4.2951 19.3697 3.33361 18.4082 2.14755 18.4082C0.96149 18.4082 0 19.3697 0 20.5558C0 21.7418 0.96149 22.7033 2.14755 22.7033Z" fill="#FFFFFF"/>
<path d="M2.15048 4.29705C3.33654 4.29705 4.29803 3.33556 4.29803 2.1495C4.29803 0.963443 3.33654 0.00195312 2.15048 0.00195312C0.96442 0.00195312 0.00292969 0.963443 0.00292969 2.1495C0.00292969 3.33556 0.96442 4.29705 2.15048 4.29705Z" fill="#FFFFFF"/>
<path d="M61.8216 96.7931C63.0077 96.7931 63.9692 95.8317 63.9692 94.6456C63.9692 93.4595 63.0077 92.498 61.8216 92.498C60.6356 92.498 59.6741 93.4595 59.6741 94.6456C59.6741 95.8317 60.6356 96.7931 61.8216 96.7931Z" fill="#FFFFFF"/>
<path d="M61.8216 78.2326C63.0077 78.2326 63.9692 77.2711 63.9692 76.085C63.9692 74.899 63.0077 73.9375 61.8216 73.9375C60.6356 73.9375 59.6741 74.899 59.6741 76.085C59.6741 77.2711 60.6356 78.2326 61.8216 78.2326Z" fill="#FFFFFF"/>
<path d="M61.8216 59.6701C63.0077 59.6701 63.9692 58.7086 63.9692 57.5226C63.9692 56.3365 63.0077 55.375 61.8216 55.375C60.6356 55.375 59.6741 56.3365 59.6741 57.5226C59.6741 58.7086 60.6356 59.6701 61.8216 59.6701Z" fill="#FFFFFF"/>
<path d="M61.8216 41.2638C63.0077 41.2638 63.9692 40.3024 63.9692 39.1163C63.9692 37.9302 63.0077 36.9688 61.8216 36.9688C60.6356 36.9688 59.6741 37.9302 59.6741 39.1163C59.6741 40.3024 60.6356 41.2638 61.8216 41.2638Z" fill="#FFFFFF"/>
<path d="M61.8216 22.7013C63.0077 22.7013 63.9692 21.7399 63.9692 20.5538C63.9692 19.3677 63.0077 18.4062 61.8216 18.4062C60.6356 18.4062 59.6741 19.3677 59.6741 20.5538C59.6741 21.7399 60.6356 22.7013 61.8216 22.7013Z" fill="#FFFFFF"/>
<path d="M61.8206 4.2951C63.0067 4.2951 63.9682 3.33361 63.9682 2.14755C63.9682 0.96149 63.0067 0 61.8206 0C60.6346 0 59.6731 0.96149 59.6731 2.14755C59.6731 3.33361 60.6346 4.2951 61.8206 4.2951Z" fill="#FFFFFF"/>
<path d="M41.8802 96.7931C43.0663 96.7931 44.0278 95.8317 44.0278 94.6456C44.0278 93.4595 43.0663 92.498 41.8802 92.498C40.6942 92.498 39.7327 93.4595 39.7327 94.6456C39.7327 95.8317 40.6942 96.7931 41.8802 96.7931Z" fill="#FFFFFF"/>
<path d="M41.8802 78.2326C43.0663 78.2326 44.0278 77.2711 44.0278 76.085C44.0278 74.899 43.0663 73.9375 41.8802 73.9375C40.6942 73.9375 39.7327 74.899 39.7327 76.085C39.7327 77.2711 40.6942 78.2326 41.8802 78.2326Z" fill="#FFFFFF"/>
<path d="M41.8802 59.6701C43.0663 59.6701 44.0278 58.7086 44.0278 57.5226C44.0278 56.3365 43.0663 55.375 41.8802 55.375C40.6942 55.375 39.7327 56.3365 39.7327 57.5226C39.7327 58.7086 40.6942 59.6701 41.8802 59.6701Z" fill="#FFFFFF"/>
<path d="M41.8802 41.2638C43.0663 41.2638 44.0278 40.3024 44.0278 39.1163C44.0278 37.9302 43.0663 36.9688 41.8802 36.9688C40.6942 36.9688 39.7327 37.9302 39.7327 39.1163C39.7327 40.3024 40.6942 41.2638 41.8802 41.2638Z" fill="#FFFFFF"/>
<path d="M41.8802 22.7013C43.0663 22.7013 44.0278 21.7399 44.0278 20.5538C44.0278 19.3677 43.0663 18.4062 41.8802 18.4062C40.6942 18.4062 39.7327 19.3677 39.7327 20.5538C39.7327 21.7399 40.6942 22.7013 41.8802 22.7013Z" fill="#FFFFFF"/>
<path d="M41.8792 4.2951C43.0653 4.2951 44.0268 3.33361 44.0268 2.14755C44.0268 0.96149 43.0653 0 41.8792 0C40.6932 0 39.7317 0.96149 39.7317 2.14755C39.7317 3.33361 40.6932 4.2951 41.8792 4.2951Z" fill="#FFFFFF"/>
<path d="M21.9388 96.7931C23.1249 96.7931 24.0864 95.8317 24.0864 94.6456C24.0864 93.4595 23.1249 92.498 21.9388 92.498C20.7528 92.498 19.7913 93.4595 19.7913 94.6456C19.7913 95.8317 20.7528 96.7931 21.9388 96.7931Z" fill="#FFFFFF"/>
<path d="M21.9388 78.2326C23.1249 78.2326 24.0864 77.2711 24.0864 76.085C24.0864 74.899 23.1249 73.9375 21.9388 73.9375C20.7528 73.9375 19.7913 74.899 19.7913 76.085C19.7913 77.2711 20.7528 78.2326 21.9388 78.2326Z" fill="#FFFFFF"/>
<path d="M21.9388 59.6701C23.1249 59.6701 24.0864 58.7086 24.0864 57.5226C24.0864 56.3365 23.1249 55.375 21.9388 55.375C20.7528 55.375 19.7913 56.3365 19.7913 57.5226C19.7913 58.7086 20.7528 59.6701 21.9388 59.6701Z" fill="#FFFFFF"/>
<path d="M21.9388 41.2638C23.1249 41.2638 24.0864 40.3024 24.0864 39.1163C24.0864 37.9302 23.1249 36.9688 21.9388 36.9688C20.7528 36.9688 19.7913 37.9302 19.7913 39.1163C19.7913 40.3024 20.7528 41.2638 21.9388 41.2638Z" fill="#FFFFFF"/>
<path d="M21.9388 22.7013C23.1249 22.7013 24.0864 21.7399 24.0864 20.5538C24.0864 19.3677 23.1249 18.4062 21.9388 18.4062C20.7528 18.4062 19.7913 19.3677 19.7913 20.5538C19.7913 21.7399 20.7528 22.7013 21.9388 22.7013Z" fill="#FFFFFF"/>
<path d="M21.9378 4.2951C23.1239 4.2951 24.0854 3.33361 24.0854 2.14755C24.0854 0.96149 23.1239 0 21.9378 0C20.7518 0 19.7903 0.96149 19.7903 2.14755C19.7903 3.33361 20.7518 4.2951 21.9378 4.2951Z" fill="#FFFFFF"/>
</svg>
