<svg width="16" height="16" viewBox="0 0 16 16" fill="none" xmlns="http://www.w3.org/2000/svg">
<g clip-path="url(#clip0_10766_33014)">
<path d="M12 5.5998H9.60003V0.799805H6.40003V5.5998H4.00003L8.00003 9.5998L12 5.5998ZM15.4704 10.8254C15.3024 10.6462 14.1816 9.447 13.8616 9.1342C13.6374 8.91925 13.3387 8.79941 13.028 8.7998H11.6224L14.0736 11.195H11.2384C11.1999 11.1943 11.1619 11.2038 11.1282 11.2224C11.0944 11.2411 11.0663 11.2684 11.0464 11.3014L10.3936 12.7998H5.60643L4.95363 11.3014C4.93369 11.2685 4.90547 11.2413 4.87179 11.2227C4.83811 11.204 4.80014 11.1945 4.76163 11.195H1.92643L4.37683 8.7998H2.97203C2.65443 8.7998 2.35123 8.927 2.13843 9.1342C1.81843 9.4478 0.697634 10.647 0.529634 10.8254C0.138434 11.2422 -0.0767664 11.5742 0.0256336 11.9846L0.474434 14.4438C0.576834 14.855 1.02723 15.1926 1.47603 15.1926H14.5256C14.9744 15.1926 15.4248 14.855 15.5272 14.4438L15.976 11.9846C16.0768 11.5742 15.8624 11.2422 15.4704 10.8254Z" fill="#2F80ED"/>
</g>
<defs>
<clipPath id="clip0_10766_33014">
<rect width="16" height="16" fill="white"/>
</clipPath>
</defs>
</svg>
