<svg width="17" height="16" viewBox="0 0 17 16" fill="none" xmlns="http://www.w3.org/2000/svg">
<g clip-path="url(#clip0_6559_19364)">
<path d="M13.4 6.69317C13.1761 5.55832 12.5651 4.53641 11.6714 3.802C10.7777 3.06759 9.65674 2.66624 8.5 2.6665C6.57333 2.6665 4.9 3.75984 4.06667 5.35984C3.08682 5.46573 2.18067 5.92998 1.52233 6.66338C0.863981 7.39679 0.499886 8.34762 0.5 9.33317C0.5 11.5398 2.29333 13.3332 4.5 13.3332H13.1667C15.0067 13.3332 16.5 11.8398 16.5 9.99984C16.5 8.23984 15.1333 6.81317 13.4 6.69317ZM11.8333 8.6665L8.73333 11.7665C8.6 11.8998 8.39333 11.8998 8.26 11.7665L5.16667 8.6665H7.16667V5.99984H9.83333V8.6665H11.8333Z" fill="#2F80ED"/>
</g>
<defs>
<clipPath id="clip0_6559_19364">
<rect width="16" height="16" fill="white" transform="translate(0.5)"/>
</clipPath>
</defs>
</svg>
