<?xml version="1.0" standalone="no"?>
<!DOCTYPE svg PUBLIC "-//W3C//DTD SVG 20010904//EN"
 "http://www.w3.org/TR/2001/REC-SVG-20010904/DTD/svg10.dtd">
<svg version="1.0" xmlns="http://www.w3.org/2000/svg"
 width="765.000000pt" height="765.000000pt" viewBox="0 0 765.000000 765.000000"
 preserveAspectRatio="xMidYMid meet">

<g transform="translate(0.000000,765.000000) scale(0.100000,-0.100000)"
fill="#000000" stroke="none">
<path d="M2909 7296 c-147 -52 -261 -167 -312 -316 l-22 -65 -3 -1417 -2
-1417 -673 -3 -672 -3 -69 -27 c-137 -53 -228 -137 -290 -268 -26 -56 -31 -79
-34 -167 -5 -123 17 -211 75 -296 21 -30 617 -690 1324 -1468 1023 -1124 1298
-1421 1340 -1446 94 -56 133 -67 254 -67 128 0 187 18 286 88 85 59 2603 2832
2647 2914 58 108 77 258 48 368 -34 130 -140 259 -260 317 -113 55 -134 57
-833 57 l-643 0 0 1408 c0 1539 3 1464 -57 1575 -61 111 -170 200 -291 237
-62 19 -94 20 -906 20 l-841 0 -66 -24z m1661 -2094 l0 -1619 173 -6 c94 -4
359 -8 587 -8 228 -1 539 -4 691 -8 l276 -6 -1232 -1355 c-677 -745 -1236
-1355 -1242 -1355 -10 0 -2465 2707 -2471 2726 -2 5 332 9 857 9 l861 0 0
1620 0 1620 750 0 750 0 0 -1618z"/>
</g>
</svg>
