<svg width="40" height="40" viewBox="0 0 49 48" fill="none" xmlns="http://www.w3.org/2000/svg">
<g opacity="0.5">
<rect x="0.5" width="48" height="48" rx="16" fill="#1E1E1E"  fill-opacity="0.04"/>
<path d="M36.3358 11.7677L36.5398 11.9597L36.7332 12.1637C37.5414 13.0735 37.9716 14.2577 37.9357 15.4741C37.8997 16.6905 37.4004 17.8472 36.5398 18.7077L20.5825 34.665C20.213 35.0345 19.7534 35.3011 19.2492 35.4384L12.4292 37.2984C12.2592 37.3445 12.08 37.3449 11.9098 37.2995C11.7395 37.2542 11.5843 37.1646 11.4598 37.04C11.3353 36.9154 11.246 36.76 11.2008 36.5898C11.1556 36.4195 11.1562 36.2403 11.2025 36.0704L13.0612 29.249C13.1986 28.7453 13.4652 28.2862 13.8345 27.917L29.7932 11.9597C30.6538 11.0993 31.8106 10.6002 33.0271 10.5646C34.2435 10.5289 35.4276 10.9593 36.3372 11.7677H36.3358ZM28.4998 16.0797L15.2492 29.3304C15.1262 29.4535 15.0375 29.6065 14.9918 29.7744L13.5918 34.9077L18.7252 33.5077C18.8921 33.4616 19.0442 33.3729 19.1665 33.2504L32.4198 19.9997L28.4998 16.0797ZM17.1998 22.6664L15.1998 24.6664H12.1665C11.9013 24.6664 11.6469 24.561 11.4594 24.3735C11.2719 24.1859 11.1665 23.9316 11.1665 23.6664C11.1665 23.4012 11.2719 23.1468 11.4594 22.9593C11.6469 22.7717 11.9013 22.6664 12.1665 22.6664H17.1998ZM22.5332 17.333L20.5332 19.333H12.1665C11.9013 19.333 11.6469 19.2277 11.4594 19.0401C11.2719 18.8526 11.1665 18.5983 11.1665 18.333C11.1665 18.0678 11.2719 17.8135 11.4594 17.6259C11.6469 17.4384 11.9013 17.333 12.1665 17.333H22.5332ZM31.2065 13.373L29.9132 14.6664L33.8318 18.5864L35.1252 17.293C35.3826 17.0357 35.5868 16.7303 35.7261 16.394C35.8654 16.0578 35.9372 15.6975 35.9372 15.3335C35.9373 14.9696 35.8657 14.6092 35.7264 14.2729C35.5872 13.9366 35.3831 13.6311 35.1258 13.3737C34.8685 13.1163 34.5631 12.9121 34.2268 12.7728C33.8906 12.6335 33.5303 12.5617 33.1663 12.5617C32.8024 12.5616 32.442 12.6332 32.1057 12.7724C31.7694 12.9117 31.4639 13.1157 31.2065 13.373ZM27.8665 11.9997L25.8665 13.9997H12.1665C11.9013 13.9997 11.6469 13.8944 11.4594 13.7068C11.2719 13.5193 11.1665 13.2649 11.1665 12.9997C11.1665 12.7345 11.2719 12.4801 11.4594 12.2926C11.6469 12.1051 11.9013 11.9997 12.1665 11.9997H27.8665Z" fill="#7A7A7A"/>
</g>
</svg>
