<svg width="14" height="14" viewBox="0 0 14 14" fill="none" xmlns="http://www.w3.org/2000/svg">
<path d="M7.58939 1.18833C7.35872 0.752328 6.64139 0.752328 6.41072 1.18833L0.41072 12.5217C0.356709 12.6232 0.329933 12.7371 0.333 12.8521C0.336068 12.9671 0.368874 13.0793 0.428223 13.1779C0.487572 13.2765 0.571439 13.358 0.671652 13.4145C0.771866 13.471 0.885008 13.5006 1.00005 13.5003H13.0001C13.115 13.5006 13.2281 13.471 13.3282 13.4145C13.4284 13.3581 13.5122 13.2766 13.5715 13.1781C13.6308 13.0796 13.6635 12.9674 13.6665 12.8525C13.6696 12.7376 13.6427 12.6238 13.5887 12.5223L7.58939 1.18833ZM7.66672 11.5003H6.33339V10.167H7.66672V11.5003ZM6.33339 8.83366V5.50033H7.66672L7.66739 8.83366H6.33339Z" fill="#BD0303"/>
</svg>
