<svg width="23" height="23" viewBox="0 0 23 23" fill="none" xmlns="http://www.w3.org/2000/svg">
<circle cx="11.5" cy="11.5" r="11" stroke="#3A1C46"/>
<path d="M14.1576 12.172C14.2776 12.564 14.3376 12.944 14.3376 13.312C14.3376 13.72 14.2736 14.088 14.1456 14.416C13.9616 14.928 13.6376 15.336 13.1736 15.64C12.7096 15.936 12.1656 16.084 11.5416 16.084C10.9336 16.084 10.3976 15.94 9.93363 15.652C9.47763 15.356 9.15363 14.956 8.96163 14.452C8.88163 14.244 8.82163 14.024 8.78163 13.792V13.768C8.78163 13.68 8.82963 13.636 8.92563 13.636H10.3776C10.4576 13.636 10.5096 13.68 10.5336 13.768C10.5416 13.816 10.5536 13.856 10.5696 13.888C10.5856 13.92 10.5976 13.948 10.6056 13.972C10.6856 14.18 10.8056 14.34 10.9656 14.452C11.1256 14.564 11.3136 14.62 11.5296 14.62C11.7536 14.62 11.9496 14.56 12.1176 14.44C12.2856 14.32 12.4096 14.152 12.4896 13.936C12.5696 13.776 12.6096 13.568 12.6096 13.312C12.6096 13.08 12.5736 12.872 12.5016 12.688C12.4456 12.48 12.3336 12.32 12.1656 12.208C11.9976 12.096 11.8016 12.04 11.5776 12.04C11.3536 12.04 11.1456 12.092 10.9536 12.196C10.7616 12.3 10.6336 12.436 10.5696 12.604C10.5456 12.684 10.4936 12.724 10.4136 12.724H8.93763C8.89763 12.724 8.86163 12.712 8.82963 12.688C8.80563 12.656 8.79363 12.62 8.79363 12.58V7.744C8.79363 7.704 8.80563 7.672 8.82963 7.648C8.86163 7.616 8.89763 7.6 8.93763 7.6H13.8936C13.9336 7.6 13.9656 7.616 13.9896 7.648C14.0216 7.672 14.0376 7.704 14.0376 7.744V8.908C14.0376 8.948 14.0216 8.984 13.9896 9.016C13.9656 9.04 13.9336 9.052 13.8936 9.052H10.5456C10.5056 9.052 10.4856 9.072 10.4856 9.112L10.4736 10.888C10.4736 10.944 10.4976 10.956 10.5456 10.924C10.9056 10.692 11.3216 10.576 11.7936 10.576C12.3536 10.576 12.8416 10.72 13.2576 11.008C13.6816 11.288 13.9816 11.676 14.1576 12.172Z" fill="#3A1C46"/>
</svg>
