<svg width="15" height="12" viewBox="0 0 15 12" fill="none" xmlns="http://www.w3.org/2000/svg">
<path d="M9.33888 8.88766L14.4779 5.19766C14.5989 5.12613 14.6992 5.02429 14.7689 4.90217C14.8386 4.78005 14.8752 4.64188 14.8752 4.50129C14.8752 4.36069 14.8386 4.22252 14.7689 4.1004C14.6992 3.97828 14.5989 3.87644 14.4779 3.80491L9.33888 0.112661C9.21638 0.0406064 9.07699 0.00224727 8.93487 0.00147669C8.79275 0.000706108 8.65295 0.0375515 8.52968 0.108273C8.4064 0.178995 8.30403 0.281075 8.23296 0.40415C8.16188 0.527225 8.12464 0.666914 8.125 0.809036V2.25016C6.4375 2.25016 1.375 2.25016 0.250004 11.2502C3.0625 6.18766 8.125 6.75016 8.125 6.75016V8.19129C8.125 8.82129 8.80675 9.20154 9.33888 8.88879V8.88766Z" fill="black"/>
</svg>
