<svg width="23" height="23" viewBox="0 0 23 23" fill="none" xmlns="http://www.w3.org/2000/svg">
<circle cx="11.5" cy="11.5" r="11" stroke="#7E899D"/>
<path d="M13.9192 12.34C13.9592 12.34 13.9912 12.356 14.0152 12.388C14.0472 12.412 14.0632 12.444 14.0632 12.484V13.696C14.0632 13.736 14.0472 13.772 14.0152 13.804C13.9912 13.828 13.9592 13.84 13.9192 13.84H13.4032C13.3632 13.84 13.3432 13.86 13.3432 13.9V15.856C13.3432 15.896 13.3272 15.932 13.2952 15.964C13.2712 15.988 13.2392 16 13.1992 16H11.7952C11.7552 16 11.7192 15.988 11.6872 15.964C11.6632 15.932 11.6512 15.896 11.6512 15.856V13.9C11.6512 13.86 11.6312 13.84 11.5912 13.84H7.90719C7.86719 13.84 7.83119 13.828 7.79919 13.804C7.77519 13.772 7.76319 13.736 7.76319 13.696V12.736C7.76319 12.688 7.77519 12.628 7.79919 12.556L9.95919 7.708C9.99119 7.636 10.0472 7.6 10.1272 7.6H11.6272C11.6832 7.6 11.7192 7.616 11.7352 7.648C11.7592 7.672 11.7592 7.712 11.7352 7.768L9.73119 12.268C9.72319 12.284 9.72319 12.3 9.73119 12.316C9.73919 12.332 9.75119 12.34 9.76719 12.34H11.5912C11.6312 12.34 11.6512 12.32 11.6512 12.28V10.792C11.6512 10.752 11.6632 10.72 11.6872 10.696C11.7192 10.664 11.7552 10.648 11.7952 10.648H13.1992C13.2392 10.648 13.2712 10.664 13.2952 10.696C13.3272 10.72 13.3432 10.752 13.3432 10.792V12.28C13.3432 12.32 13.3632 12.34 13.4032 12.34H13.9192Z" fill="#7E899D"/>
</svg>
