<svg width="40" height="40" viewBox="0 0 49 48" fill="none" xmlns="http://www.w3.org/2000/svg">
<g opacity="0.5">
<rect x="0.5" width="48" height="48" rx="16" fill="#1E1E1E" fill-opacity="0.04"/>
<path d="M35.1667 24.0002C34.8461 24.0025 34.5286 24.0625 34.2294 24.1775L31.032 21.5602C31.1107 21.2748 31.1667 20.9788 31.1667 20.6668C31.1667 18.8188 29.6814 17.3335 27.8334 17.3335C25.9854 17.3335 24.5 18.8188 24.5 20.6668C24.5 21.1948 24.6334 21.6868 24.8494 22.1295L20.9707 26.7135C20.8154 26.6844 20.658 26.6688 20.5 26.6668C20.2614 26.6668 20.036 26.7068 19.8174 26.7655L16.4 23.3482C16.46 23.1308 16.5 22.9055 16.5 22.6668C16.5 21.1895 15.3107 20.0002 13.8334 20.0002C12.356 20.0002 11.1667 21.1895 11.1667 22.6668C11.1667 24.1442 12.356 25.3335 13.8334 25.3335C14.072 25.3335 14.2974 25.2935 14.516 25.2348L17.9334 28.6522C17.8693 28.8737 17.8356 29.1029 17.8334 29.3335C17.8334 30.8108 19.0227 32.0002 20.5 32.0002C21.9774 32.0002 23.1667 30.8108 23.1667 29.3335C23.1667 29.0175 23.1027 28.7202 23.0027 28.4388L26.8867 23.8495C27.1894 23.9375 27.5027 24.0002 27.8334 24.0002C28.3596 23.9973 28.8775 23.8688 29.344 23.6255L32.5427 26.2428C32.5176 26.3829 32.5033 26.5246 32.5 26.6668C32.5 28.1442 33.6894 29.3335 35.1667 29.3335C36.644 29.3335 37.8334 28.1442 37.8334 26.6668C37.8334 25.1895 36.644 24.0002 35.1667 24.0002Z" fill="#7A7A7A"/>
</g>
</svg>
