<svg width="20" height="20" viewBox="0 0 20 20" fill="none" xmlns="http://www.w3.org/2000/svg">
<path d="M16.7103 11.3621L16.714 11.364C16.7715 11.0133 16.7993 10.6552 16.7993 10.3008C16.7993 9.9835 16.7752 9.66436 16.7307 9.35264C16.7752 9.6625 16.7975 9.97607 16.7975 10.2896C16.7975 10.6496 16.7678 11.0096 16.7103 11.3621ZM2.60313 8.17812C2.59385 8.1707 2.58643 8.16328 2.57715 8.154C2.59014 8.16699 2.60313 8.17998 2.61797 8.19297L3.8333 9.23018V9.22832L2.60313 8.17812ZM12.5596 4.17031H12.5614L12.2738 2.61543C12.2701 2.59688 12.2664 2.58018 12.2608 2.56348C12.2627 2.57275 12.2664 2.58389 12.2683 2.59316L12.5596 4.17031ZM13.5615 14.3104L14.1441 13.8317L15.866 14.4422C16.1814 14.0173 16.4468 13.5608 16.6564 13.0766L15.2704 11.8909L15.3929 11.1469C15.4393 10.8667 15.4634 10.5791 15.4634 10.2915C15.4634 10.0039 15.4393 9.71631 15.3929 9.43613L15.2723 8.6958L16.6583 7.51016C16.4468 7.02773 16.1833 6.56943 15.8679 6.14453L14.146 6.75498L13.5634 6.27627C13.1199 5.9126 12.6245 5.62686 12.092 5.42646L11.3851 5.16113L11.0529 3.36133C10.5289 3.30195 9.99982 3.30195 9.47578 3.36133L9.14365 5.16484L8.44043 5.43018C7.91162 5.63057 7.41992 5.91631 6.98018 6.27813L6.39756 6.75869L4.66455 6.14268C4.34912 6.56758 4.08379 7.02402 3.87412 7.5083L5.275 8.70508L5.15439 9.44727C5.10801 9.72373 5.08574 10.0076 5.08574 10.2915C5.08574 10.5735 5.10986 10.8593 5.15439 11.1357L5.275 11.8779L3.87412 13.0747C4.08564 13.5571 4.34912 14.0154 4.66455 14.4403L6.39756 13.8243L6.98018 14.3049C7.41992 14.6667 7.91162 14.9524 8.44043 15.1528L9.1418 15.4219L9.47392 17.2254C9.99717 17.2848 10.5297 17.2848 11.0511 17.2254L11.3832 15.4256L12.0901 15.1603C12.6245 14.9599 13.1181 14.6741 13.5615 14.3104ZM10.2755 13.3771C9.70957 13.3771 9.17705 13.2324 8.71133 12.9782C7.69268 12.4253 7.00059 11.3473 7.00059 10.106C7.00059 8.30244 8.46269 6.84033 10.2662 6.84033C11.5075 6.84033 12.5855 7.53242 13.1385 8.55107C13.3927 9.01494 13.5374 9.54746 13.5374 10.1152C13.5374 11.9169 12.0771 13.3771 10.2755 13.3771ZM4.61074 15.8728C4.50869 15.908 4.40293 15.9154 4.30273 15.895C4.4085 15.9173 4.51982 15.9136 4.62744 15.8765L6.13779 15.3384C6.13594 15.3365 6.13223 15.3347 6.13037 15.3328L4.61074 15.8728ZM17.9256 8.17812L16.7103 9.21719C16.7103 9.2209 16.7121 9.22646 16.7121 9.23018L17.9256 8.19297C18.0573 8.07978 18.1315 7.9165 18.1334 7.74766C18.1278 7.91094 18.0536 8.06865 17.9256 8.17812Z" fill="white" fill-opacity="0.15"/>
<path d="M18.1303 12.7891C18.1396 12.8763 18.1303 12.9653 18.0987 13.0507L18.082 13.0989C17.7466 14.0336 17.2457 14.9004 16.6032 15.6576L16.5698 15.6966C16.492 15.7886 16.388 15.8547 16.2717 15.8862C16.1553 15.9177 16.0322 15.913 15.9186 15.8729L14.4101 15.3366C13.8567 15.7926 13.2316 16.1537 12.5602 16.4054L12.2688 17.9825C12.2469 18.1012 12.1893 18.2104 12.1038 18.2955C12.0183 18.3807 11.9089 18.4379 11.7901 18.4594L11.74 18.4687C11.2551 18.5563 10.7633 18.6004 10.2705 18.6004H10.2761C10.7715 18.6004 11.2669 18.5559 11.7493 18.4687L11.7994 18.4594C11.9182 18.4379 12.0276 18.3807 12.1131 18.2955C12.1986 18.2104 12.2561 18.1012 12.2781 17.9825L12.5694 16.4072C13.2411 16.1549 13.8608 15.7968 14.4175 15.3403L15.9241 15.8766C16.0377 15.9167 16.1609 15.9214 16.2772 15.8899C16.3936 15.8584 16.4976 15.7923 16.5754 15.7003L16.6088 15.6613C17.2545 14.8987 17.7499 14.0396 18.0857 13.1063L18.1024 13.0581C18.1321 12.9709 18.1414 12.8781 18.1303 12.7891Z" fill="white" fill-opacity="0.15"/>
<path d="M13.5322 10.106C13.5322 9.54375 13.3894 9.01309 13.1389 8.55107C12.5859 7.53242 11.5079 6.84033 10.2666 6.84033C8.46309 6.84033 7.00098 8.30244 7.00098 10.106C7.00098 11.3473 7.69307 12.4253 8.71172 12.9782C9.17373 13.2287 9.70254 13.3716 10.2666 13.3716C12.0701 13.3716 13.5322 11.9095 13.5322 10.106ZM8.18848 10.106C8.18848 9.55117 8.40557 9.02978 8.79707 8.63643C9.19043 8.24307 9.71182 8.02783 10.2666 8.02783C10.8214 8.02783 11.3428 8.24307 11.7361 8.63643C11.9294 8.82917 12.0827 9.05823 12.1872 9.31043C12.2916 9.56263 12.3452 9.83299 12.3447 10.106C12.3447 10.6607 12.1276 11.1821 11.7361 11.5755C11.5434 11.7688 11.3143 11.9221 11.0621 12.0265C10.8099 12.131 10.5396 12.1845 10.2666 12.1841C9.71182 12.1841 9.19043 11.967 8.79707 11.5755C8.60377 11.3827 8.45049 11.1537 8.34605 10.9015C8.2416 10.6493 8.18805 10.3789 8.18848 10.106Z" fill="white"/>
<path d="M11.7897 18.4594C11.9085 18.4379 12.0179 18.3807 12.1034 18.2955C12.1889 18.2104 12.2465 18.1012 12.2685 17.9825L12.5598 16.4054C13.2312 16.1537 13.8563 15.7926 14.4097 15.3366L15.9182 15.8729C16.0318 15.913 16.1549 15.9177 16.2713 15.8862C16.3876 15.8547 16.4916 15.7886 16.5694 15.6966L16.6028 15.6576C17.2485 14.895 17.7458 14.0341 18.0816 13.0989L18.0983 13.0507C18.1299 12.9653 18.1392 12.8763 18.1299 12.7891C18.1132 12.6425 18.0427 12.5033 17.9258 12.4013L16.7142 11.3641L16.7105 11.3622C16.768 11.0097 16.7977 10.6497 16.7977 10.2897C16.7977 9.97617 16.7754 9.66074 16.7309 9.35273C16.7253 9.31191 16.7179 9.27109 16.7123 9.23027C16.7123 9.22656 16.7105 9.221 16.7105 9.21728L17.9258 8.17822C18.0538 8.06875 18.128 7.91103 18.1336 7.74775C18.1355 7.67353 18.1243 7.59746 18.0983 7.5251L18.0816 7.47685C17.7471 6.54175 17.2461 5.67489 16.6028 4.91816L16.5694 4.8792C16.4914 4.78745 16.3874 4.7215 16.2711 4.69003C16.1549 4.65856 16.0318 4.66306 15.9182 4.70293L14.4097 5.23916C13.853 4.78271 13.2333 4.42275 12.5616 4.17041H12.5598L12.2685 2.59326C12.2666 2.58398 12.2647 2.57285 12.261 2.56357C12.2343 2.45139 12.1754 2.34941 12.0918 2.27002C12.0081 2.19064 11.9032 2.13727 11.7897 2.11641L11.7397 2.10713C10.773 1.93271 9.75616 1.93271 8.78946 2.10713L8.73936 2.11641C8.6206 2.13792 8.5112 2.19507 8.4257 2.28024C8.34019 2.36541 8.28263 2.47459 8.26065 2.59326L7.96748 4.17783C7.30116 4.43023 6.68066 4.79 6.13057 5.24287L4.61094 4.70293C4.49732 4.66274 4.37417 4.65808 4.25784 4.68957C4.14151 4.72105 4.03751 4.78719 3.95967 4.8792L3.92627 4.91816C3.28381 5.67543 2.78289 6.54214 2.44746 7.47685L2.43077 7.5251C2.3921 7.63293 2.38536 7.74963 2.41136 7.8612C2.43736 7.97277 2.49499 8.07447 2.57735 8.1541C2.58662 8.16152 2.59405 8.1708 2.60332 8.17822L3.8335 9.22842V9.23027C3.77598 9.5791 3.74815 9.9335 3.74815 10.2879C3.74815 10.6441 3.77598 11.0004 3.8335 11.3474L2.60332 12.3976C2.51166 12.476 2.44605 12.5806 2.41522 12.6972C2.3844 12.8139 2.38982 12.9372 2.43077 13.0507L2.44746 13.0989C2.7833 14.0341 3.28057 14.8969 3.92627 15.6576L3.95967 15.6966C4.05059 15.8023 4.1712 15.871 4.30293 15.8951C4.40313 15.9137 4.50889 15.9081 4.61094 15.8729L6.13057 15.3329C6.13243 15.3348 6.13614 15.3366 6.13799 15.3385C6.68907 15.7894 7.30323 16.1475 7.96748 16.3979L8.26065 17.9825C8.28263 18.1012 8.34019 18.2104 8.4257 18.2955C8.5112 18.3807 8.6206 18.4379 8.73936 18.4594L8.78946 18.4687C9.27373 18.5559 9.76914 18.6004 10.2646 18.6004H10.2701C10.7637 18.6004 11.2591 18.5559 11.7397 18.4687L11.7897 18.4594ZM11.0513 17.2255C10.5272 17.2849 9.99816 17.2849 9.47412 17.2255L9.142 15.422L8.44063 15.1529C7.91182 14.9525 7.42012 14.6668 6.98037 14.305L6.39776 13.8244L4.66475 14.4404C4.34932 14.0155 4.08584 13.5572 3.87432 13.0748L5.2752 11.878L5.15459 11.1358C5.11006 10.8594 5.08594 10.5736 5.08594 10.2916C5.08594 10.0077 5.10821 9.72383 5.15459 9.44736L5.2752 8.70517L3.87432 7.5084C4.08399 7.02412 4.34932 6.56768 4.66475 6.14277L6.39776 6.75879L6.98037 6.27822C7.42012 5.91641 7.91182 5.63066 8.44063 5.43027L9.14385 5.16494L9.47598 3.36143C9.99737 3.30205 10.5299 3.30205 11.0531 3.36143L11.3853 5.16123L12.0922 5.42656C12.6247 5.62695 13.1201 5.91269 13.5636 6.27637L14.1462 6.75508L15.8681 6.14463C16.1835 6.56953 16.447 7.02783 16.6585 7.51025L15.2725 8.6959L15.3931 9.43623C15.4395 9.71641 15.4636 10.004 15.4636 10.2916C15.4636 10.5792 15.4395 10.8668 15.3931 11.147L15.2706 11.891L16.6566 13.0767C16.4465 13.5607 16.1813 14.019 15.8662 14.4423L14.1443 13.8318L13.5617 14.3105C13.1183 14.6742 12.6247 14.96 12.0903 15.1604L11.3834 15.4257L11.0513 17.2255Z" fill="white"/>
</svg>
