<svg width="40" height="24" viewBox="0 0 40 24" fill="none" xmlns="http://www.w3.org/2000/svg">
<rect width="40" height="24" rx="12" fill="#F2F2F2"/>
<path d="M19.3783 13.4467H17.3672C17.2482 13.4467 17.1518 13.5431 17.1518 13.6621V16.7846C17.1518 16.9036 17.2482 17 17.3672 17H19.3783C19.4973 17 19.5936 16.9036 19.5936 16.7846V13.662C19.5936 13.543 19.4972 13.4467 19.3783 13.4467ZM22.5141 7H20.503C20.3839 7 20.2876 7.09638 20.2876 7.21539V16.7845C20.2876 16.9035 20.3839 16.9999 20.503 16.9999H22.5141C22.6331 16.9999 22.7294 16.9035 22.7294 16.7845V7.21539C22.7294 7.09638 22.6331 7 22.5141 7V7ZM25.6659 9.90711H23.6548C23.5358 9.90711 23.4394 10.0035 23.4394 10.1225V16.7845C23.4394 16.9035 23.5358 16.9999 23.6548 16.9999H25.6657C25.7848 16.9999 25.8811 16.9035 25.8811 16.7845V10.1225C25.8811 10.0036 25.7848 9.90711 25.6659 9.90711V9.90711ZM16.2265 9.90711H14.2154C14.0964 9.90711 14 10.0035 14 10.1225V16.7845C14 16.9035 14.0964 16.9999 14.2154 16.9999H16.2265C16.3455 16.9999 16.4419 16.9035 16.4419 16.7845V10.1225C16.4419 10.0036 16.3455 9.90711 16.2265 9.90711V9.90711Z" fill="#828282"/>
</svg>
