<?xml version="1.0" encoding="utf-8"?>
<svg viewBox="0 0 300 400" width="500px" height="100px" xmlns="http://www.w3.org/2000/svg">
  <g id="title" style="font-style: normal; font-weight: 400; font-size: 72px; line-height: 1; font-family: &quot;Brandmark Dots 1 Color&quot;; font-variant-ligatures: normal;" transform="matrix(2.529099, 0, 0, 3.019325, -900.15332, -959.420898)">
    <g id="path156417" aria-label="P" transform="translate(0 313.804) translate(168.5 38.696) scale(1.25) translate(-324.90969 50.4)">
      <path class="c1" d="M116.52588,101.7917c-1.36816,2.23242-4.32031,2.95215-6.55273,1.51172 c-2.30469-1.36719-2.95215-4.32031-1.58398-6.55176c0.86426-1.44043,1.44043-3.09668,1.44043-4.6084 c0-1.87207-0.43262-7.77734-6.19336-7.77734H90.24365v36.0752c0,2.59277-2.16016,4.75293-4.82422,4.75293 c-2.59277,0-4.75293-2.16016-4.75293-4.75293V79.5417c0-2.5918,2.16016-4.75195,4.75293-4.75195h18.2168 c10.80176,0,15.69727,9,15.69727,17.35352C119.3335,95.3835,118.32568,98.83955,116.52588,101.7917z" transform="translate(244.24319 -125.18975)" stroke-width="0" stroke-linejoin="miter" stroke-miterlimit="2" fill="#ffffff" stroke="#edfdff"/>
      <path class="c3" d="M99.74854,109.35225c-2.59277,0-4.75293-2.16016-4.75293-4.82422c0-2.5918,2.16016-4.75195,4.75293-4.75195 c2.66406,0,4.75195,2.16016,4.75195,4.75195C104.50049,107.19209,102.4126,109.35225,99.74854,109.35225z" transform="translate(244.24319 -125.18975)" stroke-width="0" stroke-linejoin="miter" stroke-miterlimit="2" fill="#ffffff" stroke="#edfdff"/>
    </g>
    <path id="path156419" style="font-style:normal;font-weight:400;font-size:72px;line-height:1;font-family:'Brandmark Dots 1 Color';font-variant-ligatures:normal;text-align:center;text-anchor:middle" d="m 409.44556,-34.344 c 0,-9.792 -6.696,-16.056 -16.992,-16.056 h -15.48 c -2.592,0 -4.752,2.16 -4.752,4.752 v 40.896 c 0,2.592 2.16,4.752 4.752,4.752 2.664,0 4.824,-2.16 4.824,-4.752 v -12.96 h 10.44 l 2.16,3.456 c 1.368,2.232 4.32,2.88 6.552,1.44 4.392,-2.808 0.864,-7.416 0.864,-7.416 4.968,-2.808 7.632,-7.92 7.632,-14.112 z m -17.208,8.352 h -10.44 v -15.12 h 10.656 c 4.968,0 7.416,2.952 7.416,7.344 0,4.032 -1.944,7.776 -7.632,7.776 z m 18.72,21.168 c 0,-2.664 -2.088,-4.824 -4.752,-4.824 -2.592,0 -4.752,2.16 -4.752,4.824 0,2.592 2.16,4.752 4.752,4.752 2.664,0 4.752,-2.16 4.752,-4.752 z" stroke-width="0" stroke-linejoin="miter" stroke-miterlimit="2" fill="#ffffff" stroke="#edfdff" transform="translate(0 313.804) translate(227.6398375 38.696) scale(1.25) translate(-372.22156 50.4)"/>
    <path id="path156421" style="font-style:normal;font-weight:400;font-size:72px;line-height:1;font-family:'Brandmark Dots 1 Color';font-variant-ligatures:normal;text-align:center;text-anchor:middle" d="m 469.85806,-25.272 c 0,-8.208 -3.744,-15.696 -10.224,-20.808 -2.088,-1.584 -5.112,-1.224 -6.696,0.864 -1.656,2.016 -1.296,5.04 0.792,6.696 4.176,3.24 6.552,7.992 6.552,13.248 0,9.36 -7.632,16.992 -16.992,16.992 -9.36,0 -16.92,-7.632 -16.92,-16.992 0,-5.256 2.376,-10.008 6.48,-13.248 2.088,-1.656 2.448,-4.68 0.864,-6.696 -1.656,-2.088 -4.68,-2.448 -6.696,-0.864 -6.48,5.112 -10.224,12.6 -10.224,20.808 0,14.688 11.88,26.568 26.496,26.568 14.616,0 26.568,-11.88 26.568,-26.568 z m -31.32,-21.6 c 0,2.592 2.16,4.752 4.752,4.752 2.664,0 4.824,-2.16 4.824,-4.752 0,-2.664 -2.16,-4.824 -4.824,-4.824 -2.592,0 -4.752,2.16 -4.752,4.824 z" stroke-width="0" stroke-linejoin="miter" stroke-miterlimit="2" fill="#ffffff" stroke="#ffffff" transform="translate(0 313.804) translate(283.35546250000004 37.07599999999999) scale(1.25) translate(-416.79406 51.696)"/>
    <path id="path156423" style="font-style:normal;font-weight:400;font-size:72px;line-height:1;font-family:'Brandmark Dots 1 Color';font-variant-ligatures:normal;text-align:center;text-anchor:middle" d="m 514.45531,-13.248 c 0,-8.856 -8.136,-12.744 -17.352,-16.272 -7.488,-2.88 -10.008,-4.824 -10.008,-7.128 0,-3.528 3.384,-6.048 8.208,-6.048 5.544,0 8.568,3.024 9.864,4.176 1.8,1.584 4.392,1.8 6.12,-0.36 1.296,-1.656 1.512,-3.96 0.216,-5.688 -1.872,-2.664 -7.488,-7.128 -15.912,-7.128 -7.416,0 -11.664,2.736 -13.968,5.04 -2.664,2.736 -4.104,6.264 -4.104,10.008 0.072,9.864 10.008,12.816 16.632,15.192 7.344,2.664 10.728,4.608 10.728,7.632 0,2.52 -1.512,4.32 -3.528,5.256 -2.592,1.224 -5.256,0.36 -7.704,0.216 -2.376,-0.144 -4.392,1.512 -4.392,4.536 0,3.672 5.04,5.112 8.784,5.112 11.448,0 16.416,-7.416 16.416,-14.544 z m -33.048,-1.656 c -2.592,0 -4.752,2.088 -4.752,4.752 0,2.664 2.16,4.752 4.752,4.752 2.664,0 4.824,-2.088 4.824,-4.752 0,-2.664 -2.16,-4.752 -4.824,-4.752 z" stroke-width="0" stroke-linejoin="miter" stroke-miterlimit="2" fill="#ffffff" stroke="#edfdff" transform="translate(0 313.804) translate(358.18202499999995 37.07599999999999) scale(1.25) translate(-476.65531 51.696)"/>
    <path id="path156425" style="font-style:normal;font-weight:400;font-size:72px;line-height:1;font-family:'Brandmark Dots 1 Color';font-variant-ligatures:normal;text-align:center;text-anchor:middle" d="m 564.58869,-33.048 c 0,-8.352 -4.896,-17.352 -15.696,-17.352 h -18.216 c -2.592,0 -4.752,2.16 -4.752,4.752 v 40.896 c 0,2.592 2.16,4.752 4.752,4.752 2.664,0 4.824,-2.16 4.824,-4.752 v -36.072 h 13.392 c 5.76,0 6.192,5.904 6.192,7.776 0,1.512 -0.576,3.168 -1.44,4.608 -1.368,2.232 -0.72,5.184 1.584,6.552 2.232,1.44 5.184,0.72 6.552,-1.512 1.8,-2.952 2.808,-6.408 2.808,-9.648 z m -14.832,12.384 c 0,-2.592 -2.088,-4.752 -4.752,-4.752 -2.592,0 -4.752,2.16 -4.752,4.752 0,2.664 2.16,4.824 4.752,4.824 2.664,0 4.752,-2.16 4.752,-4.824 z" stroke-width="0" stroke-linejoin="miter" stroke-miterlimit="2" fill="#ffffff" stroke="#edfdff" transform="translate(0 313.804) translate(419.76875000000007 38.696) scale(1.25) translate(-525.92469 50.4)"/>
    <path id="path156427" style="font-style:normal;font-weight:400;font-size:72px;line-height:1;font-family:'Brandmark Dots 1 Color';font-variant-ligatures:normal;text-align:center;text-anchor:middle" d="m 602.40669,0 c 2.664,0 4.752,-2.16 4.752,-4.752 0,-2.664 -2.088,-4.824 -4.752,-4.824 h -19.656 v -11.088 h 16.704 c 2.664,0 4.752,-1.944 4.752,-4.536 0,-2.664 -2.088,-4.608 -4.752,-4.608 h -16.704 v -11.016 h 5.112 c 2.592,0 4.752,-2.16 4.752,-4.824 0,-2.592 -2.16,-4.752 -4.752,-4.752 h -9.936 c -2.592,0 -4.752,2.16 -4.752,4.752 v 40.896 c 0,2.592 2.16,4.752 4.752,4.752 z m 4.536,-45.648 c 0,-2.592 -2.16,-4.752 -4.752,-4.752 -2.664,0 -4.824,2.16 -4.824,4.752 0,2.664 2.16,4.824 4.824,4.824 2.592,0 4.752,-2.16 4.752,-4.824 z" stroke-width="0" stroke-linejoin="miter" stroke-miterlimit="2" fill="#ffffff" stroke="#edfdff" transform="translate(0 313.804) translate(478.83125000000007 38.696) scale(1.25) translate(-573.17469 50.4)"/>
    <path id="path156429" style="font-style:normal;font-weight:400;font-size:72px;line-height:1;font-family:'Brandmark Dots 1 Color';font-variant-ligatures:normal;text-align:center;text-anchor:middle" d="m 624.22944,-25.2 c 0,-9.36 7.56,-16.92 16.92,-16.92 4.536,0 8.208,1.44 11.088,3.096 2.664,1.44 5.328,1.368 6.624,-0.576 1.512,-2.16 1.368,-5.04 -0.648,-6.696 -5.472,-4.464 -12.24,-5.4 -17.064,-5.4 -14.616,0 -26.496,11.808 -26.496,26.496 0,10.656 6.336,19.8 15.48,24.048 3.672,1.656 7.344,2.448 11.016,2.448 4.464,0 6.048,-2.16 6.048,-4.536 0,-2.232 -1.44,-3.96 -4.896,-4.32 -3.528,-0.36 -6.408,-1.152 -9.144,-2.736 -5.4,-2.952 -8.928,-8.424 -8.928,-14.904 z m 31.608,21.744 c 2.664,0 4.824,-2.16 4.824,-4.824 0,-2.592 -2.16,-4.752 -4.824,-4.752 -2.592,0 -4.752,2.16 -4.752,4.752 0,2.664 2.16,4.824 4.752,4.824 z" stroke-width="0" stroke-linejoin="miter" stroke-miterlimit="2" fill="#ffffff" stroke="#ffffff" transform="translate(0 313.804) translate(530.6796875 37.07599999999999) scale(1.25) translate(-614.65344 51.696)"/>
    <path id="path156431" style="font-style:normal;font-weight:400;font-size:72px;line-height:1;font-family:'Brandmark Dots 1 Color';font-variant-ligatures:normal;text-align:center;text-anchor:middle" d="m 689.29944,-45.648 c 0,-2.592 -1.872,-4.752 -4.752,-4.752 h -15.192 c -2.592,0 -4.752,2.16 -4.752,4.752 0,2.664 2.16,4.824 4.752,4.824 h 10.44 v 36.072 c 0,2.592 2.088,4.752 4.752,4.752 2.664,0 4.752,-2.16 4.752,-4.752 z m 10.44,-4.752 c -2.664,0 -4.824,2.16 -4.824,4.752 0,2.664 2.16,4.824 4.824,4.824 2.592,0 4.752,-2.16 4.752,-4.824 0,-2.592 -2.16,-4.752 -4.752,-4.752 z" stroke-width="0" stroke-linejoin="miter" stroke-miterlimit="2" fill="#ffffff" stroke="#edfdff" transform="translate(0 313.804) translate(593.1171874999999 38.696) scale(1.25) translate(-664.60344 50.4)"/>
  </g>
</svg>
