<svg width="24" height="24" viewBox="0 0 24 24" fill="none" xmlns="http://www.w3.org/2000/svg">
<path d="M20.3999 12.0006C20.3999 7.35659 16.6319 3.60059 11.9999 3.60059C7.35585 3.60059 3.59985 7.35659 3.59985 12.0006C3.59985 16.6446 7.35585 20.4006 11.9999 20.4006C16.6319 20.4006 20.3999 16.6446 20.3999 12.0006ZM12.8399 13.7766H10.9679V13.2606C10.9679 12.8046 11.0639 12.4206 11.2559 12.0846C11.4479 11.7486 11.8079 11.4006 12.3119 11.0166C12.8039 10.6686 13.1279 10.3806 13.2839 10.1646C13.4519 9.94859 13.5239 9.69659 13.5239 9.42059C13.5239 9.12059 13.4159 8.89259 13.1879 8.72459C12.9599 8.56859 12.6479 8.49659 12.2399 8.49659C11.5439 8.49659 10.7399 8.72459 9.83985 9.18059L9.07185 7.64459C10.1159 7.05659 11.2319 6.75659 12.3959 6.75659C13.3679 6.75659 14.1359 6.99659 14.6999 7.45259C15.2759 7.92059 15.5519 8.54459 15.5519 9.31259C15.5519 9.82859 15.4439 10.2726 15.2039 10.6446C14.9759 11.0286 14.5199 11.4486 13.8719 11.9166C13.4159 12.2526 13.1399 12.5046 13.0199 12.6726C12.8999 12.8526 12.8399 13.0806 12.8399 13.3566V13.7766ZM11.0759 17.0646C10.8599 16.8606 10.7519 16.5606 10.7519 16.1886C10.7519 15.7926 10.8479 15.4926 11.0639 15.2886C11.2799 15.0846 11.5799 14.9886 11.9879 14.9886C12.3719 14.9886 12.6719 15.0966 12.8879 15.3006C13.1039 15.5046 13.2119 15.8046 13.2119 16.1886C13.2119 16.5486 13.1039 16.8486 12.8879 17.0526C12.6719 17.2686 12.3719 17.3766 11.9879 17.3766C11.5919 17.3766 11.2919 17.2686 11.0759 17.0646Z" fill="#BDBDBD"/>
</svg>
