<svg width="14" height="15" viewBox="0 0 14 15" fill="none" xmlns="http://www.w3.org/2000/svg">
<path d="M7 0.5C3.13438 0.5 0 3.63438 0 7.5C0 11.3656 3.13438 14.5 7 14.5C10.8656 14.5 14 11.3656 14 7.5C14 3.63438 10.8656 0.5 7 0.5ZM7.5 10.875C7.5 10.9438 7.44375 11 7.375 11H6.625C6.55625 11 6.5 10.9438 6.5 10.875V6.625C6.5 6.55625 6.55625 6.5 6.625 6.5H7.375C7.44375 6.5 7.5 6.55625 7.5 6.625V10.875ZM7 5.5C6.80374 5.49599 6.61687 5.41522 6.47948 5.275C6.3421 5.13478 6.26515 4.9463 6.26515 4.75C6.26515 4.5537 6.3421 4.36522 6.47948 4.225C6.61687 4.08478 6.80374 4.00401 7 4C7.19626 4.00401 7.38313 4.08478 7.52052 4.225C7.6579 4.36522 7.73485 4.5537 7.73485 4.75C7.73485 4.9463 7.6579 5.13478 7.52052 5.275C7.38313 5.41522 7.19626 5.49599 7 5.5Z" fill="#506883"/>
</svg>
