<svg width="92" height="99" viewBox="0 0 92 99" fill="none" xmlns="http://www.w3.org/2000/svg">
<path d="M64.614 11.2451C64.4486 10.4529 63.8989 9.48304 62.8433 9.12753C61.9482 8.82793 60.9995 9.06149 60.2311 9.77245L13.0066 53.6428C12.7877 53.851 12.0629 54.6127 12.0045 55.7959C11.9607 56.5983 12.238 57.3854 12.7828 58.01L37.0036 85.7916C37.3539 86.1927 37.8987 86.599 38.5652 86.8224C39.1051 87.0001 39.7181 87.0662 40.3747 86.919L75.6374 79.1443C75.9244 79.0783 76.9168 78.7939 77.5442 77.7936C77.9626 77.1233 78.0988 76.3007 77.9285 75.4729L75.8513 65.4436C74.6157 66.0429 73.1709 66.4288 71.5511 66.5507L73.2926 74.9701L39.951 82.3232L17.0486 56.0548L60.9223 15.2974L71.5511 66.5507C72.6992 66.18 74.04 66.8276 75.36 65.4828C80.8371 89.0711 70.7682 41.8709 70.9677 41.8806L64.614 11.2451Z" fill="#21F5A8"/>
</svg>
