<svg width="62" height="47" viewBox="0 0 62 47" fill="none" xmlns="http://www.w3.org/2000/svg">
<path d="M17.8247 20.4009H21.0942V17.2461H17.8289L17.8247 20.4009ZM17.8247 32.5886H21.0942V21.5696H17.8289L17.8247 32.5886ZM29.4682 21.3315C28.3572 21.3315 27.1583 21.6987 26.2411 22.4545L25.6084 21.5701H23.4499V32.5891H26.7224V26.7324C26.7224 25.1994 27.7971 24.1468 29.7043 24.1468H29.9919V21.3531C29.8194 21.3317 29.6438 21.3317 29.4682 21.3317L29.4682 21.3315ZM36.1404 21.2458C33.001 21.2458 31.1271 23.1031 31.1271 26.0193V28.0725C31.1271 30.9916 33.001 32.9132 36.1404 32.9132C39.0405 32.9132 41.0023 31.4231 41.0023 29.0884H37.7327V29.3057C37.7327 29.9085 36.9033 30.3184 36.1857 30.3184C35.1595 30.3184 34.3966 29.7157 34.3966 28.2255V28.0297H41.0235V25.4594C41.0235 23.0604 38.9951 21.2458 36.1404 21.2458V21.2458ZM34.3966 25.7194C34.442 24.4862 35.0293 23.8375 36.1646 23.8375C37.2089 23.8375 37.6873 24.3791 37.6873 25.4592V25.7193L34.3966 25.7194ZM46.9991 32.9132C49.4179 32.9132 51.6884 31.7261 51.6884 29.2169C51.6884 25.1349 45.7336 26.1507 45.7336 24.7677C45.7336 24.3791 46.1908 24.0119 46.9779 24.0119C47.6953 24.0119 48.2403 24.3362 48.2403 24.8748V25.092H51.4674V24.8748C51.4674 22.7788 49.6601 21.2457 46.9991 21.2457C44.3592 21.2457 42.5065 22.7574 42.5065 24.985C42.5065 28.9813 48.437 27.8797 48.437 29.4127C48.437 29.8656 47.8921 30.1471 47.1293 30.1471C46.2998 30.1471 45.6035 29.8013 45.6035 29.174V28.9139H42.3551V29.175C42.3551 31.3354 44.2078 32.9143 46.999 32.9143L46.9991 32.9132ZM57.3101 32.9132C59.732 32.9132 61.9994 31.7261 61.9994 29.2169C61.9994 25.1349 56.0477 26.1507 56.0477 24.7677C56.0477 24.3791 56.5048 24.0119 57.2889 24.0119C58.0094 24.0119 58.5543 24.3362 58.5543 24.8748V25.092H61.7814V24.8748C61.7814 22.7788 59.971 21.2457 57.31 21.2457C54.6731 21.2457 52.8205 22.7574 52.8205 24.985C52.8205 28.9813 58.7509 27.8797 58.7509 29.4127C58.7509 29.8656 58.206 30.1471 57.4432 30.1471C56.6137 30.1471 55.9144 29.8013 55.9144 29.174V28.9139H52.666V29.175C52.666 31.3354 54.5188 32.9143 57.3099 32.9143L57.3101 32.9132Z" fill="white"/>
<path d="M32.7462 1.36064C32.6433 0.8833 32.3012 0.298877 31.6442 0.0846603C31.0872 -0.095873 30.4968 0.0448671 30.0186 0.47327L0.629848 26.9083C0.493615 27.0338 0.0425529 27.4928 0.00622124 28.2057C-0.0210585 28.6892 0.151527 29.1635 0.490592 29.5399L15.5637 46.2803C15.7817 46.522 16.1207 46.7668 16.5355 46.9014C16.8715 47.0085 17.2529 47.0483 17.6616 46.9596L39.6063 42.2748C39.7849 42.235 40.4025 42.0637 40.7929 41.4609C41.0533 41.057 41.138 40.5613 41.0321 40.0625L39.7394 34.0192C38.9705 34.3802 38.0713 34.6128 37.0633 34.6862L38.147 39.7596L17.3979 44.1903L3.14527 28.3617L30.4488 3.80246L33.9483 20.1513C34.6628 19.9279 35.4529 19.8055 36.3309 19.8055C36.455 19.8055 36.5761 19.8149 36.7002 19.8207L32.7462 1.36064Z" fill="#21F5A8"/>
</svg>
