<svg width="40" height="40" viewBox="0 0 49 48" fill="none" xmlns="http://www.w3.org/2000/svg">
<g opacity="0.5">
<rect x="0.5" width="48" height="48" rx="16" fill="#1E1E1E" fill-opacity="0.04"/>
<path d="M18.5 10C17.4391 10 16.4217 10.4214 15.6716 11.1716C14.9214 11.9217 14.5 12.9391 14.5 14V18.252C15.14 18.088 15.81 18 16.5 18V14C16.5 13.4696 16.7107 12.9609 17.0858 12.5858C17.4609 12.2107 17.9696 12 18.5 12H24.5V17C24.5 17.7957 24.8161 18.5587 25.3787 19.1213C25.9413 19.6839 26.7044 20 27.5 20H32.5V34C32.5 34.5304 32.2893 35.0391 31.9142 35.4142C31.5391 35.7893 31.0304 36 30.5 36H22.5V37.5C22.5 37.672 22.484 37.84 22.452 38H30.5C31.5609 38 32.5783 37.5786 33.3284 36.8284C34.0786 36.0783 34.5 35.0609 34.5 34V18.826C34.4993 18.0306 34.1828 17.2681 33.62 16.706L27.794 10.876C27.2308 10.3142 26.4675 9.99911 25.672 10H18.5ZM32.086 18H27.5C27.2348 18 26.9804 17.8946 26.7929 17.7071C26.6054 17.5196 26.5 17.2652 26.5 17V12.414L32.086 18ZM22.5 26C22.5 26.7879 22.3448 27.5681 22.0433 28.2961C21.7417 29.0241 21.2998 29.6855 20.7426 30.2426C20.1855 30.7998 19.5241 31.2418 18.7961 31.5433C18.0681 31.8448 17.2879 32 16.5 32C15.7121 32 14.9319 31.8448 14.2039 31.5433C13.4759 31.2418 12.8145 30.7998 12.2574 30.2426C11.7002 29.6855 11.2583 29.0241 10.9567 28.2961C10.6552 27.5681 10.5 26.7879 10.5 26C10.5 24.4087 11.1321 22.8826 12.2574 21.7574C13.3826 20.6321 14.9087 20 16.5 20C18.0913 20 19.6174 20.6321 20.7426 21.7574C21.8679 22.8826 22.5 24.4087 22.5 26ZM20.5 32.928C19.2845 33.6318 17.9045 34.0016 16.5 34C15.0956 34.0022 13.7157 33.6331 12.5 32.93V37.502C12.5003 37.5902 12.5239 37.6768 12.5684 37.753C12.613 37.8291 12.6769 37.8922 12.7537 37.9356C12.8304 37.9791 12.9174 38.0015 13.0056 38.0005C13.0938 37.9995 13.1802 37.9752 13.256 37.93L16.5 36L19.744 37.93C19.8199 37.9753 19.9065 37.9996 19.9949 38.0005C20.0833 38.0014 20.1704 37.9788 20.2472 37.9351C20.324 37.8914 20.3879 37.8281 20.4323 37.7517C20.4767 37.6752 20.5001 37.5884 20.5 37.5V32.928Z" fill="#7A7A7A"/>
</g>
</svg>
