<svg width="40" height="40" viewBox="0 0 48 48" fill="none" xmlns="http://www.w3.org/2000/svg">
<rect width="48" height="48" rx="16" fill="#FBFBFB"/>
<path d="M24.0002 36.0001C29.8815 36.0001 34.6668 31.2148 34.6668 25.3335C34.6668 20.8668 31.9042 17.0388 28.0002 15.4521V18.4161C29.2147 19.1174 30.2236 20.1256 30.9256 21.3396C31.6277 22.5537 31.9983 23.931 32.0002 25.3335C32.0002 29.7455 28.4122 33.3335 24.0002 33.3335C19.5882 33.3335 16.0002 29.7455 16.0002 25.3335C16.0019 23.931 16.3724 22.5536 17.0745 21.3395C17.7766 20.1254 18.7855 19.1173 20.0002 18.4161V15.4521C16.0962 17.0388 13.3335 20.8668 13.3335 25.3335C13.3335 31.2148 18.1188 36.0001 24.0002 36.0001Z" fill="#BDBDBD"/>
<path d="M22.6665 10.6665H25.3332V23.9998H22.6665V10.6665Z" fill="#BDBDBD"/>
</svg>
