<svg width="98" height="74" viewBox="0 0 98 74" fill="none" xmlns="http://www.w3.org/2000/svg">
<path d="M28.1711 31.7174H33.3394V26.8105H28.1778L28.1711 31.7174ZM28.1711 50.674H33.3394V33.5352H28.1778L28.1711 50.674ZM46.5766 33.1649C44.8203 33.1649 42.9252 33.736 41.4754 34.9115L40.4752 33.5361H37.0632V50.6748H42.2362V41.5654C42.2362 39.1809 43.935 37.5438 46.9498 37.5438H47.4044V33.1985C47.1316 33.1652 46.8541 33.1652 46.5765 33.1652L46.5766 33.1649ZM57.1236 33.0316C52.1611 33.0316 49.1988 35.9205 49.1988 40.4562V43.6497C49.1988 48.1901 52.1611 51.179 57.1236 51.179C61.7079 51.179 64.809 48.8612 64.809 45.2299H59.6407V45.5678C59.6407 46.5054 58.3295 47.143 57.1953 47.143C55.573 47.143 54.3672 46.2056 54.3672 43.8878V43.5832H64.8425V39.5853C64.8425 35.8539 61.6362 33.0317 57.1236 33.0317V33.0316ZM54.3672 39.9898C54.4389 38.0717 55.3673 37.0628 57.1618 37.0628C58.8127 37.0628 59.5688 37.9051 59.5688 39.5851V39.9897L54.3672 39.9898ZM74.2884 51.179C78.1119 51.179 81.701 49.3324 81.701 45.4297C81.701 39.0807 72.2881 40.6607 72.2881 38.5095C72.2881 37.9051 73.0107 37.3339 74.2549 37.3339C75.389 37.3339 76.2504 37.8384 76.2504 38.6761V39.014H81.3516V38.6761C81.3516 35.416 78.4948 33.0315 74.2884 33.0315C70.1155 33.0315 67.1867 35.3827 67.1867 38.8475C67.1867 45.0633 76.5615 43.3498 76.5615 45.7343C76.5615 46.4387 75.7001 46.8765 74.4942 46.8765C73.183 46.8765 72.0823 46.3387 72.0823 45.3631V44.9585H66.9475V45.3646C66.9475 48.7248 69.8762 51.1807 74.2882 51.1807L74.2884 51.179ZM90.5875 51.179C94.4159 51.179 98.0001 49.3324 98.0001 45.4297C98.0001 39.0807 88.5919 40.6607 88.5919 38.5095C88.5919 37.9051 89.3145 37.3339 90.554 37.3339C91.6929 37.3339 92.5543 37.8384 92.5543 38.6761V39.014H97.6554V38.6761C97.6554 35.416 94.7937 33.0315 90.5873 33.0315C86.4191 33.0315 83.4906 35.3827 83.4906 38.8475C83.4906 45.0633 92.8651 43.3498 92.8651 45.7343C92.8651 46.4387 92.0038 46.8765 90.7979 46.8765C89.4867 46.8765 88.3812 46.3387 88.3812 45.3631V44.9585H83.2464V45.3646C83.2464 48.7248 86.1751 51.1807 90.5872 51.1807L90.5875 51.179Z" fill="#3A1C46"/>
<path d="M51.758 2.10417C51.5953 1.36172 51.0545 0.452717 50.0161 0.119528C49.1356 -0.161271 48.2023 0.0576341 47.4464 0.723964L0.990227 41.8406C0.774877 42.0357 0.0618624 42.7496 0.00443126 43.8586C-0.0386911 44.6105 0.234123 45.3483 0.770098 45.9336L24.5968 71.9714C24.9414 72.3474 25.4774 72.7281 26.1329 72.9376C26.6641 73.1041 27.2671 73.166 27.913 73.0281L62.602 65.7414C62.8844 65.6795 63.8606 65.413 64.4779 64.4754C64.8894 63.8472 65.0234 63.0762 64.8559 62.3004L62.8125 52.9007C61.597 53.4623 60.1757 53.824 58.5823 53.9383L60.2954 61.8292L27.4963 68.7208L4.96647 44.1012L48.1264 5.90213L53.6583 31.3308C54.7876 30.9834 56.0366 30.793 57.4245 30.793C57.6207 30.793 57.8121 30.8076 58.0083 30.8167L51.758 2.10417Z" fill="#3A1C46"/>
</svg>
