<svg width="16" height="17" viewBox="0 0 16 17" fill="none" xmlns="http://www.w3.org/2000/svg">
<g clip-path="url(#clip0)">
<path fill-rule="evenodd" clip-rule="evenodd" d="M12.571 3.1665C12.9751 3.1665 13.3627 3.32705 13.6485 3.61282C13.9342 3.89859 14.0948 4.28617 14.0948 4.69031V12.3094C14.0948 12.7135 13.9342 13.1011 13.6485 13.3869C13.3627 13.6726 12.9751 13.8332 12.571 13.8332L10.286 13.8324L8.5382 15.5802C8.40701 15.7114 8.23245 15.7902 8.04729 15.8018C7.86213 15.8135 7.67908 15.7572 7.53249 15.6435L7.46087 15.5802L5.71306 13.8324L3.42811 13.8332C3.02397 13.8332 2.63638 13.6726 2.35061 13.3869C2.06484 13.1011 1.9043 12.7135 1.9043 12.3094V4.69031C1.9043 4.28617 2.06484 3.89859 2.35061 3.61282C2.63638 3.32705 3.02397 3.1665 3.42811 3.1665H12.571Z" stroke="#979797" stroke-width="1.14286" stroke-linecap="round" stroke-linejoin="round"/>
<path d="M11.8087 6.97607H7.2373" stroke="#979797" stroke-width="1.14286" stroke-linecap="round" stroke-linejoin="round"/>
<path fill-rule="evenodd" clip-rule="evenodd" d="M4.95157 7.73817C5.33252 7.73817 5.71348 7.35721 5.71348 6.97626C5.71348 6.59531 5.33252 6.21436 4.95157 6.21436C4.57062 6.21436 4.19043 6.59531 4.19043 6.97626C4.19043 7.35721 4.57062 7.73817 4.95157 7.73817ZM4.95157 10.7858C5.33252 10.7858 5.71348 10.4048 5.71348 10.0239C5.71348 9.64293 5.33252 9.26197 4.95157 9.26197C4.57062 9.26197 4.19043 9.64293 4.19043 10.0239C4.19043 10.4048 4.57062 10.7858 4.95157 10.7858Z" fill="#979797"/>
<path d="M11.8087 10.0234H7.2373" stroke="#979797" stroke-width="1.14286" stroke-linecap="round" stroke-linejoin="round"/>
</g>
<defs>
<clipPath id="clip0">
<rect width="16" height="16" fill="white" transform="translate(0 0.5)"/>
</clipPath>
</defs>
</svg>
