<svg version="1.2" xmlns="http://www.w3.org/2000/svg" viewBox="0 0 1024 1024" width="64" height="64"><style>.a{fill:#231f20}.b{fill:#2c2e35}</style><path class="a" d="m373.2 778.1c-139.9 0-253.3-111.1-253.3-248.1 0-137.1 113.4-248.2 253.3-248.2 105.4 0 195.8 63.1 234 152.9-38.9-106.6-141.2-182.7-261.2-182.7-153.5 0-278 124.5-278 278 0 153.5 124.5 277.9 278 277.9 120 0 222.3-76.1 261.2-182.6-38.2 89.7-128.6 152.8-234 152.8z"/><path class="b" d="m356.4 569.7q0 9.1-3.3 16.3-3.2 6.9-9.1 12.2-5.8 5.1-13.9 8.8-8 3.6-17.4 5.9-9.4 2.1-20 3.1-10.6 0.8-21.4 0.8-15.2 0-30.3-1.5-15.1-1.6-28.2-3.9-13.1-2.4-23.2-5.1-10-2.7-15.1-5.1-2-1-3-2.4-0.8-1.6-0.8-3.2 0-1.7 0.8-2.8 1-1.3 2.9-1.3 0.8 0 2 0.4 5.5 2.3 15.9 5 10.4 2.7 23.5 5.1 13.2 2.3 28 3.9 15 1.6 29.6 1.6 14.3 0 27.1-1.9 12.8-1.8 22.5-6.3 9.8-4.4 15.5-11.6 5.8-7.3 5.8-18 0-8.9-5-14.6-4.8-5.9-13.2-9.3-8.4-3.5-19.6-5.3-11.3-1.8-24-2.7-12.5-1-25.9-1.4-13.3-0.5-26-1.7-12.5-1.1-23.8-3.3-11.2-2.1-19.6-6.2-8.4-4.2-13.4-10.7-4.8-6.5-4.8-16.5 0-9.1 3.4-16.1 3.4-7 9.4-12 5.9-5.1 14.1-8.4 8.2-3.4 17.7-5.4 9.7-2 20.3-2.8 10.6-0.9 21.3-0.9 13.3 0 26.1 1.3 12.8 1.2 24 3.3 11.3 2 20.2 4.5 9 2.5 14.4 5 1.2 0.6 1.7 1.7 0.6 1 0.6 2.2 0 2-1.4 3.7-1.3 1.7-3.7 1.7-1.5 0-2.5-0.6-7.5-3.1-16.8-5.5-9.1-2.6-19.3-4.3-10.3-1.7-21.2-2.6-10.8-1-21.5-1-14.8 0-28.3 1.7-13.6 1.7-24 5.9-10.2 4-16.3 10.8-6.1 6.7-6.1 16.9 0 7.9 4.8 12.8 5 4.9 13.4 7.9 8.4 3 19.6 4.5 11.3 1.5 23.8 2.3 12.7 0.9 26 1.6 13.4 0.5 25.9 2.1 12.7 1.4 24 4.1 11.2 2.6 19.6 7.3 8.4 4.7 13.2 12.1 5 7.3 5 17.9zm242.7-35q0 20.8-6.2 36.3-6.2 15.4-19.1 25.6-12.8 10.3-32.6 15.4-19.7 5-46.7 5-27 0-46.8-5-19.7-5.1-32.5-15.4-12.8-10.2-19.1-25.6-6.1-15.5-6.1-36.3 0-20.8 6.1-36.1 6.3-15.6 19.1-25.8 12.8-10.3 32.5-15.2 19.8-5.2 46.8-5.2 27 0 46.7 5.2 19.8 4.9 32.6 15.2 12.9 10.2 19.1 25.8 6.2 15.3 6.2 36.1zm-197 0q0 19.9 5.7 33.7 5.7 13.9 17.1 22.7 11.5 8.7 28.9 12.7 17.4 3.8 40.7 3.8 23.3 0 40.7-3.8 17.4-4 28.9-12.7 11.5-8.8 17.2-22.7 5.7-13.8 5.7-33.7 0-19.8-5.7-33.6-5.7-13.9-17.2-22.6-11.5-8.8-28.9-12.7-17.4-4-40.7-4-23.3 0-40.7 4-17.4 3.9-28.9 12.7-11.4 8.7-17.1 22.6-5.7 13.8-5.7 33.6zm327.6 72.9q23.2 0 38.7-4.4 15.5-4.6 24.7-13.7 9.4-9.1 13.3-22.8 3.8-13.8 3.8-32.4v-68.9q0-3.7 1.2-6.8 1.1-3.2 4.7-3.2 2.1 0 3.2 0.9 1.3 0.8 1.9 2.3 0.7 1.4 0.8 3.2 0.3 1.7 0.3 3.6v68.9q0 22.2-5.8 38-5.7 15.7-17.2 25.6-11.6 10-29.1 14.5-17.3 4.6-40.5 4.6-23.4 0-40.8-4.6-17.3-4.5-29-14.5-11.7-9.9-17.5-25.6-5.7-15.8-5.7-38v-68.9q0-1.9 0.1-3.6 0.3-1.8 1-3.2 0.8-1.5 1.9-2.3 1.3-0.9 3.4-0.9 3.6 0 4.6 3.2 1.1 3.1 1.1 6.8v68.9q0 18.6 3.8 32.4 4 13.7 13.3 22.8 9.4 9.1 24.9 13.7 15.5 4.4 38.9 4.4zm269.8 6.4h-128.5q-2.1 0-3.4-0.1-1.1-0.2-1.7-0.6-0.6-0.6-0.7-1.6 0-1.1 0-3v-144q0-3.7 1.3-6.4 1.2-2.9 5.4-2.9 3.4 0 4.4 3 1 2.9 1 6.3v139.9h122.2q2.9 0 4.3 1.6 1.6 1.4 1.6 3.1 0 1.9-1.6 3.3-1.4 1.4-4.3 1.4z"/></svg>