<svg width="55" height="41" viewBox="0 0 55 41" fill="none" xmlns="http://www.w3.org/2000/svg">
<path d="M15.8121 17.7974H18.7125V15.0454H15.8159L15.8121 17.7974ZM15.8121 28.4293H18.7125V18.8169H15.8159L15.8121 28.4293ZM26.141 18.6092C25.1555 18.6092 24.0919 18.9296 23.2783 19.5889L22.717 18.8174H20.8022V28.4297H23.7053V23.3207C23.7053 21.9834 24.6586 21.0652 26.3505 21.0652H26.6056V18.6281C26.4526 18.6094 26.2968 18.6094 26.141 18.6094L26.141 18.6092ZM32.0599 18.5345C29.275 18.5345 27.6126 20.1548 27.6126 22.6986V24.4897C27.6126 27.0362 29.275 28.7125 32.0599 28.7125C34.6326 28.7125 36.3729 27.4126 36.3729 25.3759H33.4725V25.5655C33.4725 26.0913 32.7366 26.4489 32.1001 26.4489C31.1898 26.4489 30.513 25.9232 30.513 24.6232V24.4524H36.3917V22.2102C36.3917 20.1174 34.5924 18.5346 32.0599 18.5346V18.5345ZM30.513 22.437C30.5533 21.3612 31.0743 20.7954 32.0813 20.7954C33.0078 20.7954 33.4321 21.2678 33.4321 22.2101V22.4369L30.513 22.437ZM41.6926 28.7125C43.8383 28.7125 45.8525 27.6769 45.8525 25.488C45.8525 21.9272 40.5701 22.8133 40.5701 21.6068C40.5701 21.2678 40.9756 20.9475 41.6738 20.9475C42.3103 20.9475 42.7937 21.2304 42.7937 21.7002V21.8897H45.6564V21.7002C45.6564 19.8718 44.0532 18.5344 41.6926 18.5344C39.3508 18.5344 37.7072 19.8531 37.7072 21.7964C37.7072 25.2825 42.9682 24.3215 42.9682 25.6588C42.9682 26.0539 42.4848 26.2995 41.8081 26.2995C41.0723 26.2995 40.4546 25.9978 40.4546 25.4506V25.2237H37.573V25.4515C37.573 27.3361 39.2165 28.7134 41.6925 28.7134L41.6926 28.7125ZM50.8395 28.7125C52.9879 28.7125 54.9994 27.6769 54.9994 25.488C54.9994 21.9272 49.7196 22.8133 49.7196 21.6068C49.7196 21.2678 50.1251 20.9475 50.8207 20.9475C51.4598 20.9475 51.9432 21.2304 51.9432 21.7002V21.8897H54.8059V21.7002C54.8059 19.8718 53.2 18.5344 50.8394 18.5344C48.5003 18.5344 46.8568 19.8531 46.8568 21.7964C46.8568 25.2825 52.1177 24.3215 52.1177 25.6588C52.1177 26.0539 51.6343 26.2995 50.9575 26.2995C50.2217 26.2995 49.6013 25.9978 49.6013 25.4506V25.2237H46.7197V25.4515C46.7197 27.3361 48.3633 28.7134 50.8393 28.7134L50.8395 28.7125Z" fill="#1E1E1E"/>
<path d="M29.0488 1.18794C28.9575 0.771535 28.654 0.26172 28.0713 0.07485C27.5771 -0.0826366 27.0534 0.0401367 26.6292 0.413849L0.558512 23.4742C0.43766 23.5837 0.0375241 23.984 0.00529439 24.606C-0.0189054 25.0277 0.134195 25.4415 0.434978 25.7698L13.8063 40.3731C13.9996 40.584 14.3004 40.7976 14.6683 40.915C14.9664 41.0084 15.3048 41.0432 15.6673 40.9658L35.1344 36.879C35.2928 36.8443 35.8407 36.6949 36.187 36.169C36.418 35.8167 36.4932 35.3843 36.3992 34.9492L35.2525 29.6773C34.5703 29.9923 33.7727 30.1952 32.8785 30.2592L33.8399 34.6849L15.4334 38.55L2.78994 24.7421L27.0108 3.31803L30.1152 17.5798C30.749 17.3849 31.4499 17.2781 32.2288 17.2781C32.3389 17.2781 32.4463 17.2863 32.5564 17.2914L29.0488 1.18794Z" fill="#21F5A8"/>
</svg>
