<svg width="23" height="23" viewBox="0 0 23 23" fill="none" xmlns="http://www.w3.org/2000/svg">
<circle cx="11.5" cy="11.5" r="11" stroke="#1E1E1E"/>
<path d="M10.8 7.636C10.84 7.612 10.9 7.6 10.98 7.6H12.432C12.472 7.6 12.504 7.616 12.528 7.648C12.56 7.672 12.576 7.704 12.576 7.744V15.856C12.576 15.896 12.56 15.932 12.528 15.964C12.504 15.988 12.472 16 12.432 16H11.028C10.988 16 10.952 15.988 10.92 15.964C10.896 15.932 10.884 15.896 10.884 15.856V9.28C10.884 9.264 10.876 9.248 10.86 9.232C10.844 9.216 10.828 9.212 10.812 9.22L9.624 9.544L9.576 9.556C9.504 9.556 9.468 9.512 9.468 9.424L9.432 8.392C9.432 8.312 9.468 8.256 9.54 8.224L10.8 7.636Z" fill="#1E1E1E"/>
</svg>
