<svg width="14" height="17" viewBox="0 0 14 17" fill="none" xmlns="http://www.w3.org/2000/svg">
<path fill-rule="evenodd" clip-rule="evenodd" d="M13.6257 4.27967L9.93568 0.567168L9.54193 0.409668H0.856934L0.294434 0.972168V7.15967H1.41943V1.53467H8.16943V5.47217L8.73193 6.03467H12.6694V7.15967H13.7944V4.68467L13.6257 4.27967V4.27967ZM9.29443 4.90967V1.53467L12.6694 4.90967H9.29443ZM0.856934 8.28467L0.294434 8.84717V15.5972L0.856934 16.1597H13.2319L13.7944 15.5972V8.84717L13.2319 8.28467H0.856934ZM12.6694 13.9097V15.0347H1.41943V9.40967H12.6694V13.9097ZM3.66943 12.7847H3.30943V13.9097H2.54443V10.5347H3.73693C4.58068 10.5347 5.00818 10.9397 5.00818 11.6597C5.01036 11.8127 4.9793 11.9644 4.91715 12.1042C4.85499 12.2441 4.76323 12.3687 4.64818 12.4697C4.36939 12.687 4.02265 12.7986 3.66943 12.7847V12.7847ZM3.60193 11.1534H3.30943V12.1997H3.60193C4.00693 12.1997 4.20943 12.0197 4.20943 11.6709C4.20943 11.3222 4.00693 11.1534 3.60193 11.1534V11.1534ZM8.16943 13.4372C8.33558 13.2735 8.4655 13.0768 8.55077 12.8597C8.63604 12.6427 8.67477 12.4101 8.66443 12.1772C8.66443 11.0522 8.06818 10.5347 6.86443 10.5347H5.67193V13.9097H6.86443C7.1024 13.9212 7.34029 13.8854 7.56431 13.8043C7.78832 13.7231 7.99401 13.5984 8.16943 13.4372V13.4372ZM6.42568 13.2909V11.1534H6.79693C6.94042 11.1443 7.08426 11.1645 7.21966 11.2129C7.35507 11.2613 7.47918 11.3367 7.58443 11.4347C7.67978 11.5348 7.75386 11.6532 7.8022 11.7828C7.85054 11.9123 7.87213 12.0503 7.86568 12.1884C7.88254 12.485 7.78143 12.7761 7.58443 12.9984C7.48144 13.097 7.35958 13.1737 7.22619 13.224C7.09279 13.2742 6.95061 13.297 6.80818 13.2909H6.42568V13.2909ZM11.4319 12.6047H10.3407V13.9097H9.57568V10.5347H11.5332V11.1534H10.3407V11.9859H11.4319V12.6047V12.6047Z" fill="#2F80ED"/>
</svg>
