<svg width="20" height="18" viewBox="0 0 20 18" fill="none" xmlns="http://www.w3.org/2000/svg">
<path d="M4.00039 2.4001C4.00039 1.92271 4.19003 1.46487 4.5276 1.12731C4.86516 0.78974 5.323 0.600098 5.80039 0.600098H14.2004C14.6778 0.600098 15.1356 0.78974 15.4732 1.12731C15.8107 1.46487 16.0004 1.92271 16.0004 2.4001V3.0001H16.6004C17.396 3.0001 18.1591 3.31617 18.7217 3.87878C19.2843 4.44139 19.6004 5.20445 19.6004 6.0001V12.0001C19.6004 12.4775 19.4107 12.9353 19.0732 13.2729C18.7356 13.6105 18.2778 13.8001 17.8004 13.8001H16.0004V15.6001C16.0004 16.0775 15.8107 16.5353 15.4732 16.8729C15.1356 17.2105 14.6778 17.4001 14.2004 17.4001H5.80039C5.323 17.4001 4.86516 17.2105 4.5276 16.8729C4.19003 16.5353 4.00039 16.0775 4.00039 15.6001V13.8001H2.20039C1.723 13.8001 1.26516 13.6105 0.927598 13.2729C0.590033 12.9353 0.400391 12.4775 0.400391 12.0001V6.0001C0.400391 5.20445 0.716461 4.44139 1.27907 3.87878C1.84168 3.31617 2.60474 3.0001 3.40039 3.0001H4.00039V2.4001ZM14.8004 2.4001C14.8004 2.24097 14.7372 2.08836 14.6247 1.97583C14.5121 1.86331 14.3595 1.8001 14.2004 1.8001H5.80039C5.64126 1.8001 5.48865 1.86331 5.37613 1.97583C5.26361 2.08836 5.20039 2.24097 5.20039 2.4001V3.0001H14.8004V2.4001ZM5.20039 10.8001V15.6001C5.20039 15.7592 5.26361 15.9118 5.37613 16.0244C5.48865 16.1369 5.64126 16.2001 5.80039 16.2001H14.2004C14.3595 16.2001 14.5121 16.1369 14.6247 16.0244C14.7372 15.9118 14.8004 15.7592 14.8004 15.6001V10.8001C14.8004 10.641 14.7372 10.4884 14.6247 10.3758C14.5121 10.2633 14.3595 10.2001 14.2004 10.2001H5.80039C5.64126 10.2001 5.48865 10.2633 5.37613 10.3758C5.26361 10.4884 5.20039 10.641 5.20039 10.8001Z" fill="#828282"/>
</svg>
