<svg width="14" height="13" viewBox="0 0 14 13" fill="none" xmlns="http://www.w3.org/2000/svg">
<path d="M0.600098 2.50039C0.600098 2.07604 0.768669 1.66908 1.06873 1.36902C1.36878 1.06896 1.77575 0.900391 2.2001 0.900391H8.6001C9.02444 0.900391 9.43141 1.06896 9.73147 1.36902C10.0315 1.66908 10.2001 2.07604 10.2001 2.50039V7.30039C10.2001 7.72474 10.0315 8.1317 9.73147 8.43176C9.43141 8.73182 9.02444 8.90039 8.6001 8.90039H2.2001C1.77575 8.90039 1.36878 8.73182 1.06873 8.43176C0.768669 8.1317 0.600098 7.72474 0.600098 7.30039V2.50039ZM2.2001 1.70039C1.98792 1.70039 1.78444 1.78468 1.63441 1.93471C1.48438 2.08473 1.4001 2.28822 1.4001 2.50039V7.30039C1.4001 7.51256 1.48438 7.71605 1.63441 7.86608C1.78444 8.01611 1.98792 8.10039 2.2001 8.10039H8.6001C8.81227 8.10039 9.01575 8.01611 9.16578 7.86608C9.31581 7.71605 9.4001 7.51256 9.4001 7.30039V2.50039C9.4001 2.28822 9.31581 2.08473 9.16578 1.93471C9.01575 1.78468 8.81227 1.70039 8.6001 1.70039H2.2001ZM3.8001 10.5004C3.51925 10.5004 3.24334 10.4265 3.00012 10.286C2.7569 10.1456 2.55492 9.94362 2.4145 9.70039H8.6001C9.23662 9.70039 9.84707 9.44753 10.2972 8.99745C10.7472 8.54736 11.0001 7.93691 11.0001 7.30039V2.71479C11.2433 2.85522 11.4453 3.05719 11.5857 3.30041C11.7262 3.54364 11.8001 3.81954 11.8001 4.10039V7.30039C11.8001 8.14908 11.463 8.96302 10.8628 9.56313C10.2627 10.1632 9.44879 10.5004 8.6001 10.5004H3.8001ZM5.4001 12.1004C5.11925 12.1004 4.84334 12.0265 4.60012 11.886C4.3569 11.7456 4.15492 11.5436 4.0145 11.3004H8.6001C9.66096 11.3004 10.6784 10.879 11.4285 10.1288C12.1787 9.37867 12.6001 8.36126 12.6001 7.30039V4.31479C12.8433 4.45522 13.0453 4.65719 13.1857 4.90041C13.3262 5.14364 13.4001 5.41954 13.4001 5.70039V7.30039C13.4001 8.57343 12.8944 9.79433 11.9942 10.6945C11.094 11.5947 9.87314 12.1004 8.6001 12.1004H5.4001Z" fill="#828282"/>
</svg>
