<?xml version="1.0" standalone="no"?>
<!DOCTYPE svg PUBLIC "-//W3C//DTD SVG 20010904//EN"
 "http://www.w3.org/TR/2001/REC-SVG-20010904/DTD/svg10.dtd">
<svg version="1.0" xmlns="http://www.w3.org/2000/svg"
 width="765.000000pt" height="765.000000pt" viewBox="0 0 765.000000 765.000000"
 preserveAspectRatio="xMidYMid meet">

<g transform="translate(0.000000,765.000000) scale(0.100000,-0.100000)"
fill="#000000" stroke="none">
<path d="M914 6585 c-91 -16 -134 -30 -209 -68 -208 -104 -351 -277 -417 -504
l-23 -78 0 -2110 c0 -2371 -7 -2151 75 -2320 83 -170 205 -290 375 -371 172
-81 -111 -74 3107 -74 3111 0 2929 -3 3068 53 234 95 404 292 472 547 l23 85
0 2080 c0 2258 3 2124 -56 2273 -94 238 -276 397 -549 480 -51 16 -272 17
-2925 19 -2320 1 -2884 -1 -2941 -12z m5839 -417 c112 -53 202 -165 227 -285
7 -32 10 -722 8 -2088 l-3 -2040 -32 -67 c-56 -119 -161 -202 -288 -228 -34
-7 -957 -9 -2875 -8 l-2825 3 -67 32 c-90 42 -160 110 -201 192 l-32 66 0
2080 0 2080 32 67 c49 104 135 178 248 214 32 10 608 12 2895 11 l2855 -2 58
-27z"/>
<path d="M2480 5395 c-240 -49 -441 -203 -549 -419 -60 -118 -83 -217 -84
-356 0 -132 17 -215 69 -328 132 -288 404 -462 722 -462 210 1 380 67 533 208
170 157 251 341 252 577 1 137 -16 217 -69 333 -152 332 -518 520 -874 447z
m324 -421 c82 -40 150 -109 189 -191 29 -62 32 -77 32 -164 0 -90 -2 -99 -38
-171 -149 -302 -565 -296 -710 10 -29 61 -32 76 -32 162 0 82 4 103 27 153 32
67 117 161 172 189 82 42 109 48 206 45 82 -3 103 -7 154 -33z"/>
<path d="M4525 4993 c-77 -41 -109 -99 -103 -188 4 -72 30 -117 86 -156 l36
-24 861 0 861 0 42 28 c111 73 115 235 8 321 l-38 31 -861 2 c-772 2 -865 1
-892 -14z"/>
<path d="M4522 4199 c-26 -13 -55 -39 -70 -62 -23 -34 -27 -51 -27 -112 0 -61
4 -78 27 -112 16 -24 44 -49 70 -62 44 -21 49 -21 887 -21 821 0 843 0 881 20
138 70 138 280 0 350 -38 20 -60 20 -882 20 -842 0 -843 0 -886 -21z"/>
<path d="M2040 3410 c-384 -82 -674 -365 -767 -748 -9 -38 -16 -114 -17 -177
-1 -99 1 -114 22 -148 35 -55 104 -92 172 -91 61 1 102 18 141 61 41 44 49 66
59 171 16 172 69 281 190 396 74 70 172 123 270 147 79 20 971 20 1050 0 176
-43 327 -165 405 -326 33 -69 45 -118 64 -263 15 -119 83 -185 190 -186 72 0
131 30 168 86 27 40 28 47 27 157 -5 391 -276 757 -654 886 -153 52 -193 55
-734 54 -445 0 -511 -2 -586 -19z"/>
<path d="M4535 3416 c-73 -33 -115 -100 -115 -186 0 -78 35 -137 102 -171 37
-19 68 -19 897 -17 l859 3 38 31 c107 86 103 248 -8 321 l-42 28 -850 2 c-693
2 -857 0 -881 -11z"/>
</g>
</svg>
