<?xml version="1.0" standalone="no"?>
<!DOCTYPE svg PUBLIC "-//W3C//DTD SVG 20010904//EN"
 "http://www.w3.org/TR/2001/REC-SVG-20010904/DTD/svg10.dtd">
<svg version="1.0" xmlns="http://www.w3.org/2000/svg"
 width="765.000000pt" height="765.000000pt" viewBox="0 0 765.000000 765.000000"
 preserveAspectRatio="xMidYMid meet">

<g transform="translate(0.000000,765.000000) scale(0.100000,-0.100000)"
fill="#000000" stroke="none">
<path d="M2006 6560 c-258 -23 -543 -74 -816 -146 -178 -47 -461 -140 -530
-174 -171 -86 -290 -231 -347 -425 -17 -56 -18 -173 -21 -1945 -2 -1282 0
-1915 8 -1977 13 -116 37 -182 99 -270 105 -149 271 -233 461 -233 69 0 113 8
228 40 165 45 348 83 512 105 162 23 517 30 692 16 489 -42 980 -190 1358
-411 139 -82 194 -78 377 23 325 180 700 305 1113 369 127 19 184 22 460 22
252 1 339 -3 435 -17 178 -27 344 -62 490 -104 119 -34 140 -37 255 -37 109 0
133 3 190 25 164 63 293 189 352 344 l23 60 3 1950 c3 2184 8 2020 -70 2177
-49 98 -159 213 -256 270 -78 44 -376 143 -612 202 -652 163 -1199 186 -1766
75 -265 -51 -540 -137 -738 -228 l-81 -37 -100 43 c-296 130 -644 221 -1015
268 -147 19 -561 28 -704 15z m500 -390 c382 -30 757 -120 1057 -253 l67 -30
0 -2144 c0 -1712 -3 -2144 -12 -2140 -493 219 -895 318 -1402 347 -387 22
-812 -25 -1210 -135 -70 -19 -140 -35 -155 -35 -47 0 -114 41 -138 85 l-23 40
0 1905 c0 1831 1 1907 19 1946 46 102 101 134 373 218 524 162 1006 229 1424
196z m3070 0 c346 -27 682 -97 1063 -222 162 -53 189 -65 228 -101 25 -23 54
-59 66 -82 l22 -40 3 -1890 c1 -1039 0 -1905 -3 -1923 -8 -43 -67 -108 -111
-122 -46 -15 -78 -11 -264 38 -326 86 -605 122 -953 122 -251 0 -386 -10 -604
-45 -321 -52 -605 -135 -902 -264 -52 -23 -96 -41 -98 -41 -2 0 -3 965 -3
2144 l0 2145 58 26 c105 48 302 115 455 155 353 91 713 126 1043 100z"/>
</g>
</svg>
