<?xml version="1.0" standalone="no"?>
<!DOCTYPE svg PUBLIC "-//W3C//DTD SVG 20010904//EN"
 "http://www.w3.org/TR/2001/REC-SVG-20010904/DTD/svg10.dtd">
<svg version="1.0" xmlns="http://www.w3.org/2000/svg"
 width="765.000000pt" height="765.000000pt" viewBox="0 0 765.000000 765.000000"
 preserveAspectRatio="xMidYMid meet">

<g transform="translate(0.000000,765.000000) scale(0.100000,-0.100000)"
fill="#000000" stroke="none">
<path d="M6725 7246 c-27 -7 -68 -22 -90 -33 -22 -12 -1392 -791 -3045 -1732
-2892 -1646 -3007 -1713 -3066 -1775 -160 -166 -173 -379 -34 -563 22 -28 61
-66 86 -84 25 -17 366 -165 756 -328 l710 -296 420 -995 c231 -547 427 -1003
436 -1014 27 -30 59 -37 95 -22 18 7 291 262 611 569 318 306 582 555 585 553
3 -2 374 -157 824 -345 590 -246 837 -344 883 -351 203 -33 412 96 473 290 6
19 207 1306 446 2860 479 3101 455 2918 402 3034 -83 180 -296 281 -492 232z
m-358 -3424 c-211 -1371 -386 -2495 -389 -2497 -10 -10 -2238 880 -2233 892
12 35 3000 4129 3003 4115 1 -9 -170 -1139 -381 -2510z m-487 2454 c-85 -80
-3823 -3386 -3828 -3386 -22 0 -1219 506 -1213 513 10 10 5044 2887 5051 2887
2 0 -2 -6 -10 -14z m-452 -1008 c-1867 -2563 -2227 -3064 -2238 -3110 -18 -72
1 -139 54 -193 36 -37 69 -53 276 -135 129 -51 239 -96 243 -100 7 -6 -651
-650 -673 -658 -4 -2 -10 3 -13 10 -3 7 -149 355 -326 772 -176 418 -322 765
-323 771 -2 10 3036 2715 3049 2715 2 0 -20 -33 -49 -72z"/>
</g>
</svg>
