<svg width="15" height="13" viewBox="0 0 15 13" fill="none" xmlns="http://www.w3.org/2000/svg">
<path d="M7.66659 10.167C7.66659 7.96033 9.45992 6.16699 11.6666 6.16699C12.3999 6.16699 13.0799 6.36699 13.6666 6.70699V1.50033C13.6666 1.1467 13.5261 0.807565 13.2761 0.557516C13.026 0.307468 12.6869 0.166992 12.3333 0.166992H1.66659C0.926585 0.166992 0.333252 0.760326 0.333252 1.50033V9.50033C0.333252 9.85395 0.473728 10.1931 0.723776 10.4431C0.973825 10.6932 1.31296 10.8337 1.66659 10.8337H7.72659C7.69325 10.6137 7.66659 10.3937 7.66659 10.167ZM1.66659 2.83366V1.50033L6.99992 4.83366L12.3333 1.50033V2.83366L6.99992 6.16699L1.66659 2.83366ZM12.3333 12.167V10.8337H9.66659V9.50033H12.3333V8.16699L14.3333 10.167L12.3333 12.167Z" fill="#828282"/>
</svg>
