<?xml version="1.0" standalone="no"?>
<!DOCTYPE svg PUBLIC "-//W3C//DTD SVG 20010904//EN"
 "http://www.w3.org/TR/2001/REC-SVG-20010904/DTD/svg10.dtd">
<svg version="1.0" xmlns="http://www.w3.org/2000/svg"
 width="765.000000pt" height="765.000000pt" viewBox="0 0 765.000000 765.000000"
 preserveAspectRatio="xMidYMid meet">

<g transform="translate(0.000000,765.000000) scale(0.100000,-0.100000)"
fill="#000000" stroke="none">
<path d="M2204 7366 c-60 -19 -101 -54 -129 -110 l-25 -50 0 -358 0 -358 -262
0 c-284 -1 -360 -9 -487 -53 -238 -83 -449 -296 -533 -537 -50 -145 -48 -23
-48 -2516 0 -2574 -5 -2395 65 -2557 54 -128 95 -187 195 -287 100 -100 159
-141 287 -195 162 -70 -17 -65 2552 -65 2541 0 2384 -4 2549 60 254 98 441
304 529 586 l28 89 0 2360 0 2360 -22 85 c-66 250 -239 462 -468 576 -160 79
-207 87 -542 92 l-293 4 0 339 c0 212 -4 356 -11 383 -33 133 -198 203 -319
136 -51 -29 -97 -90 -110 -146 -5 -21 -10 -191 -10 -376 l0 -338 -1330 0
-1330 0 0 358 0 358 -25 51 c-28 56 -77 95 -140 112 -50 14 -69 13 -121 -3z
m3978 -1343 c73 -28 102 -46 162 -102 58 -56 91 -106 119 -180 18 -50 21 -86
25 -318 l4 -263 -2666 0 -2666 0 0 240 c0 139 5 261 11 292 37 174 187 318
359 347 32 5 990 8 2325 7 l2270 -1 57 -22z m308 -3080 c0 -1120 -4 -1793 -10
-1837 -20 -136 -114 -272 -228 -330 -118 -60 40 -56 -2424 -56 -1621 0 -2272
3 -2310 11 -164 35 -301 165 -343 324 -13 52 -15 269 -15 1857 l0 1798 2665 0
2665 0 0 -1767z"/>
<path d="M2204 3816 c-60 -19 -101 -54 -129 -110 -64 -129 2 -278 140 -315 54
-15 3164 -15 3216 -1 195 54 225 310 48 410 l-44 25 -1595 2 c-1275 1 -1603
-1 -1636 -11z"/>
<path d="M2214 2489 c-52 -12 -121 -71 -145 -123 -45 -99 -6 -224 86 -281 l48
-30 951 0 c909 0 953 1 986 19 85 45 124 110 124 203 -1 80 -37 144 -108 188
l-49 30 -926 2 c-545 0 -943 -3 -967 -8z"/>
</g>
</svg>
