<svg width="40" height="40" viewBox="0 0 49 48" fill="none" xmlns="http://www.w3.org/2000/svg">
<rect x="0.5" width="48" height="48" rx="16" fill="#7A7A7A" fill-opacity="0.04"/>
<path fill-opacity="0.6" d="M26.5 32C26.5 32.2652 26.3946 32.5196 26.2071 32.7071C26.0196 32.8946 25.7652 33 25.5 33H13.5C13.2348 33 12.9804 32.8946 12.7929 32.7071C12.6054 32.5196 12.5 32.2652 12.5 32C12.5 31.7348 12.6054 31.4804 12.7929 31.2929C12.9804 31.1054 13.2348 31 13.5 31H25.5C25.7652 31 26.0196 31.1054 26.2071 31.2929C26.3946 31.4804 26.5 31.7348 26.5 32ZM13.5 17H35.5C35.7652 17 36.0196 16.8946 36.2071 16.7071C36.3946 16.5196 36.5 16.2652 36.5 16C36.5 15.7348 36.3946 15.4804 36.2071 15.2929C36.0196 15.1054 35.7652 15 35.5 15H13.5C13.2348 15 12.9804 15.1054 12.7929 15.2929C12.6054 15.4804 12.5 15.7348 12.5 16C12.5 16.2652 12.6054 16.5196 12.7929 16.7071C12.9804 16.8946 13.2348 17 13.5 17ZM25.5 23H13.5C13.2348 23 12.9804 23.1054 12.7929 23.2929C12.6054 23.4804 12.5 23.7348 12.5 24C12.5 24.2652 12.6054 24.5196 12.7929 24.7071C12.9804 24.8946 13.2348 25 13.5 25H25.5C25.7652 25 26.0196 24.8946 26.2071 24.7071C26.3946 24.5196 26.5 24.2652 26.5 24C26.5 23.7348 26.3946 23.4804 26.2071 23.2929C26.0196 23.1054 25.7652 23 25.5 23ZM39.025 27.15L31.025 22.15C30.8736 22.0566 30.7 22.0053 30.5221 22.0013C30.3442 21.9974 30.1685 22.041 30.0131 22.1276C29.8577 22.2142 29.7283 22.3407 29.6381 22.4941C29.5479 22.6474 29.5002 22.8221 29.5 23V33C29.501 33.178 29.5488 33.3527 29.6388 33.5063C29.7288 33.6599 29.8577 33.7871 30.0125 33.875C30.1682 33.9613 30.3442 34.0046 30.5221 34.0002C30.7001 33.9958 30.8737 33.9439 31.025 33.85L39.025 28.85C39.1697 28.7603 39.2891 28.6352 39.3719 28.4864C39.4548 28.3377 39.4982 28.1702 39.4982 28C39.4982 27.8298 39.4548 27.6623 39.3719 27.5136C39.2891 27.3648 39.1697 27.2397 39.025 27.15Z" fill="#7A7A7A"/>
</svg>
