<svg width="16" height="12" viewBox="0 0 16 12" fill="none" xmlns="http://www.w3.org/2000/svg">
<path d="M12.9 4.69366C12.6761 3.5588 12.0651 2.5369 11.1714 1.80249C10.2777 1.06808 9.15674 0.666731 8 0.666992C6.07333 0.666992 4.4 1.76033 3.56667 3.36033C2.58682 3.46621 1.68067 3.93046 1.02233 4.66387C0.363981 5.39728 -0.000114468 6.34811 2.69952e-08 7.33366C2.69952e-08 9.54033 1.79333 11.3337 4 11.3337H12.6667C14.5067 11.3337 16 9.84033 16 8.00033C16 6.24032 14.6333 4.81366 12.9 4.69366ZM11.3333 6.66699L8.23333 9.76699C8.1 9.90032 7.89333 9.90032 7.76 9.76699L4.66667 6.66699H6.66667V4.00033H9.33333V6.66699H11.3333Z" fill="#506883"/>
</svg>
