<?xml version="1.0" standalone="no"?>
<!DOCTYPE svg PUBLIC "-//W3C//DTD SVG 20010904//EN"
 "http://www.w3.org/TR/2001/REC-SVG-20010904/DTD/svg10.dtd">
<svg version="1.0" xmlns="http://www.w3.org/2000/svg"
 width="765.000000pt" height="765.000000pt" viewBox="0 0 765.000000 765.000000"
 preserveAspectRatio="xMidYMid meet">

<g transform="translate(0.000000,765.000000) scale(0.100000,-0.100000)"
fill="#000000" stroke="none">
<path d="M1095 6385 c-373 -70 -652 -370 -695 -748 -8 -62 -10 -666 -8 -1872
4 -1961 -1 -1810 64 -1975 93 -235 299 -423 549 -499 38 -12 115 -26 170 -32
64 -6 1036 -9 2720 -7 l2620 3 82 23 c331 88 570 336 638 663 13 61 15 319 15
1885 0 2000 4 1884 -62 2042 -103 247 -297 420 -570 504 l-73 23 -2690 2
c-2180 1 -2703 -1 -2760 -12z m5394 -426 c124 -28 234 -117 292 -235 l34 -69
3 -325 3 -325 -1331 -975 c-884 -648 -1353 -986 -1398 -1007 -182 -85 -381
-80 -562 13 -36 18 -659 469 -1385 1002 l-1320 968 -5 300 c-5 267 -4 305 12
359 36 124 155 244 281 284 61 20 101 20 2697 20 1742 0 2650 -3 2679 -10z
m-4448 -2379 c915 -670 1236 -900 1304 -934 303 -151 648 -151 950 -1 94 47
288 185 1315 939 l1205 884 3 -1214 c2 -1205 2 -1215 -19 -1276 -51 -151 -174
-258 -334 -287 -77 -14 -5193 -15 -5279 -1 -174 28 -318 166 -355 338 -8 38
-11 401 -11 1247 0 657 2 1195 4 1195 2 0 550 -400 1217 -890z"/>
</g>
</svg>
