<svg width="16" height="15" viewBox="0 0 16 15" fill="none" xmlns="http://www.w3.org/2000/svg">
<path d="M7.99996 3.70284C7.24901 3.70284 6.51492 3.92553 5.89053 4.34273C5.26614 4.75994 4.77948 5.35293 4.49211 6.04672C4.20473 6.7405 4.12954 7.50393 4.27604 8.24045C4.42255 8.97697 4.78416 9.65351 5.31517 10.1845C5.84617 10.7155 6.52271 11.0771 7.25923 11.2236C7.99575 11.3701 8.75917 11.2949 9.45296 11.0076C10.1468 10.7202 10.7397 10.2335 11.1569 9.60915C11.5742 8.98475 11.7968 8.25067 11.7968 7.49972C11.7968 6.49272 11.3968 5.52697 10.6848 4.81492C9.9727 4.10287 9.00696 3.70284 7.99996 3.70284ZM7.99996 10.4528C7.41589 10.4528 6.84493 10.2796 6.35929 9.95515C5.87365 9.63066 5.49514 9.16944 5.27163 8.62983C5.04811 8.09022 4.98963 7.49644 5.10358 6.92359C5.21753 6.35074 5.49878 5.82454 5.91179 5.41154C6.32479 4.99854 6.85099 4.71728 7.42384 4.60334C7.99669 4.48939 8.59046 4.54787 9.13007 4.77139C9.66969 4.9949 10.1309 5.37341 10.4554 5.85905C10.7799 6.34469 10.9531 6.91564 10.9531 7.49972C10.9531 8.28293 10.642 9.03407 10.0881 9.58789C9.53432 10.1417 8.78318 10.4528 7.99996 10.4528ZM15.3968 9.15909L14.3211 7.72472C14.3281 7.57003 14.3211 7.39425 14.3211 7.27472L15.3968 5.84034C15.4357 5.78884 15.4623 5.72909 15.4745 5.66571C15.4867 5.60232 15.4842 5.53698 15.4671 5.47472C15.2935 4.83753 15.0382 4.22544 14.7078 3.65362C14.6762 3.5982 14.6327 3.5505 14.5804 3.51401C14.5281 3.47752 14.4683 3.45316 14.4054 3.44269L12.6336 3.18956C12.5281 3.07706 12.4226 2.97159 12.3101 2.86612L12.057 1.09425C12.0478 1.03181 12.0247 0.972232 11.9894 0.919906C11.9541 0.86758 11.9075 0.823838 11.8531 0.791905C11.2776 0.463824 10.6635 0.208733 10.025 0.0325297C9.9627 0.0154973 9.89736 0.0129793 9.83397 0.0251692C9.77058 0.0373591 9.71084 0.063932 9.65934 0.102842L8.23199 1.17862C8.07731 1.17394 7.92262 1.17394 7.76793 1.17862L6.34059 0.102842C6.28908 0.063932 6.22934 0.0373591 6.16595 0.0251692C6.10256 0.0129793 6.03722 0.0154973 5.97496 0.0325297C5.33777 0.206207 4.72568 0.461442 4.15387 0.791905C4.09844 0.823449 4.05075 0.866955 4.01426 0.919258C3.97777 0.97156 3.9534 1.03134 3.94293 1.09425L3.68981 2.86612C3.57731 2.97159 3.47184 3.07706 3.36637 3.18956L1.59449 3.44269C1.53205 3.45189 1.47248 3.47499 1.42015 3.51028C1.36782 3.54557 1.32408 3.59215 1.29215 3.64659C0.964068 4.22206 0.708978 4.83616 0.532774 5.47472C0.515741 5.53698 0.513223 5.60232 0.525413 5.66571C0.537603 5.72909 0.564176 5.78884 0.603086 5.84034L1.67887 7.27472C1.67184 7.4294 1.67887 7.60519 1.67887 7.72472L0.603086 9.15909C0.564176 9.2106 0.537603 9.27034 0.525413 9.33373C0.513223 9.39712 0.515741 9.46246 0.532774 9.52472C0.706451 10.1619 0.961687 10.774 1.29215 11.3458C1.32244 11.4022 1.3656 11.4507 1.41813 11.4874C1.47065 11.524 1.53107 11.5478 1.59449 11.5567L3.36637 11.8099L3.68981 12.1333L3.94293 13.9052C3.9534 13.9681 3.97777 14.0279 4.01426 14.0802C4.05075 14.1325 4.09844 14.176 4.15387 14.2075C4.7263 14.5367 5.33822 14.7919 5.97496 14.9669L6.08746 14.981C6.17874 14.981 6.26756 14.9514 6.34059 14.8966L7.76793 13.8208H8.23199L9.65934 14.8966C9.71084 14.9355 9.77058 14.9621 9.83397 14.9743C9.89736 14.9865 9.9627 14.9839 10.025 14.9669C10.6639 14.792 11.2782 14.5368 11.8531 14.2075C11.9075 14.1756 11.9541 14.1319 11.9894 14.0795C12.0247 14.0272 12.0478 13.9676 12.057 13.9052L12.3101 12.1333C12.4226 12.0278 12.5421 11.9013 12.6265 11.8099L14.4054 11.5567C14.4679 11.5475 14.5274 11.5244 14.5798 11.4892C14.6321 11.4539 14.6758 11.4073 14.7078 11.3528C15.0359 10.7774 15.2909 10.1633 15.4671 9.52472C15.4842 9.46246 15.4867 9.39712 15.4745 9.33373C15.4623 9.27034 15.4357 9.2106 15.3968 9.15909ZM14.075 10.7482L12.3664 10.9942C12.2713 11.0103 12.1832 11.0544 12.1132 11.1208C12.0289 11.2192 11.7687 11.4864 11.6351 11.606C11.5594 11.6737 11.5096 11.7657 11.4945 11.8661L11.2484 13.5747C10.8504 13.7911 10.431 13.9655 9.99684 14.095L8.61168 13.0544C8.53201 12.9976 8.43507 12.9703 8.33746 12.9771H7.66246C7.56485 12.9703 7.46791 12.9976 7.38824 13.0544L6.00309 14.095C5.56787 13.9686 5.1481 13.7941 4.75152 13.5747L4.50543 11.8661C4.4903 11.7657 4.44056 11.6737 4.36481 11.606C4.1974 11.4597 4.04002 11.3023 3.89371 11.1349C3.82603 11.0591 3.73401 11.0094 3.63356 10.9942L1.92496 10.7482C1.70855 10.3502 1.53417 9.93071 1.40465 9.49659L2.44527 8.11144C2.50112 8.03362 2.53067 7.94002 2.52965 7.84425C2.52262 7.71769 2.51559 7.34503 2.52262 7.16222C2.52942 7.06461 2.50208 6.96767 2.44527 6.888L1.40465 5.50284C1.53108 5.06763 1.70559 4.64785 1.92496 4.25128L3.63356 4.00519C3.73401 3.99006 3.82603 3.94032 3.89371 3.86456C4.04002 3.69716 4.1974 3.53977 4.36481 3.39347C4.44056 3.32578 4.4903 3.23377 4.50543 3.13331L4.75152 1.42472C5.14952 1.2083 5.56897 1.03392 6.00309 0.904405L7.38824 1.94503C7.46791 2.00183 7.56485 2.02917 7.66246 2.02237C7.88746 2.01769 8.11246 2.01769 8.33746 2.02237C8.43507 2.02917 8.53201 2.00183 8.61168 1.94503L9.99684 0.904405C10.432 1.03084 10.8518 1.20535 11.2484 1.42472L11.4945 3.13331C11.5096 3.23377 11.5594 3.32578 11.6351 3.39347C11.8025 3.53977 11.9599 3.69716 12.1062 3.86456C12.1739 3.94032 12.2659 3.99006 12.3664 4.00519L14.075 4.25128C14.2914 4.64927 14.4658 5.06872 14.5953 5.50284L13.5546 6.888C13.4988 6.96581 13.4692 7.05941 13.4703 7.15519C13.4773 7.28175 13.4843 7.6544 13.4773 7.83722C13.4705 7.93483 13.4978 8.03176 13.5546 8.11144L14.5953 9.49659C14.4688 9.9318 14.2943 10.3516 14.075 10.7482Z" fill="#828282"/>
</svg>
