<svg width="19" height="18" viewBox="0 0 19 18" fill="none" xmlns="http://www.w3.org/2000/svg">
<path d="M8.25728 13.3822C9.55351 13.382 10.8124 12.948 11.8335 12.1495L15.0438 15.3598L16.0764 14.3272L12.8661 11.1169C13.665 10.0957 14.0992 8.83656 14.0995 7.53999C14.0995 4.31873 11.4785 1.69775 8.25728 1.69775C5.03601 1.69775 2.41504 4.31873 2.41504 7.53999C2.41504 10.7613 5.03601 13.3822 8.25728 13.3822ZM8.25728 3.15831C10.6738 3.15831 12.639 5.1235 12.639 7.53999C12.639 9.95649 10.6738 11.9217 8.25728 11.9217C5.84078 11.9217 3.8756 9.95649 3.8756 7.53999C3.8756 5.1235 5.84078 3.15831 8.25728 3.15831Z" fill="#BDBDBD"/>
</svg>
