<svg width="16" height="16" viewBox="0 0 16 16" fill="none" xmlns="http://www.w3.org/2000/svg">
<path d="M6.66668 12.0002C7.84999 11.9999 8.99921 11.6038 9.93134 10.8748L12.862 13.8055L13.8047 12.8628L10.874 9.93216C11.6033 8.99994 11.9997 7.85045 12 6.66683C12 3.72616 9.60734 1.3335 6.66668 1.3335C3.72601 1.3335 1.33334 3.72616 1.33334 6.66683C1.33334 9.6075 3.72601 12.0002 6.66668 12.0002ZM6.66668 2.66683C8.87268 2.66683 10.6667 4.46083 10.6667 6.66683C10.6667 8.87283 8.87268 10.6668 6.66668 10.6668C4.46068 10.6668 2.66668 8.87283 2.66668 6.66683C2.66668 4.46083 4.46068 2.66683 6.66668 2.66683Z" fill="#BDBDBD"/>
</svg>
