<?xml version="1.0" standalone="no"?>
<!DOCTYPE svg PUBLIC "-//W3C//DTD SVG 20010904//EN"
 "http://www.w3.org/TR/2001/REC-SVG-20010904/DTD/svg10.dtd">
<svg version="1.0" xmlns="http://www.w3.org/2000/svg"
 width="765.000000pt" height="765.000000pt" viewBox="0 0 765.000000 765.000000"
 preserveAspectRatio="xMidYMid meet">

<g transform="translate(0.000000,765.000000) scale(0.100000,-0.100000)"
fill="#000000" stroke="none">
<path d="M5820 7350 c-143 -16 -300 -78 -425 -168 -27 -20 -211 -196 -408
-391 l-357 -355 -118 115 c-132 130 -186 172 -287 222 -315 158 -683 117 -961
-107 -118 -95 -1605 -1598 -1626 -1644 -75 -160 79 -343 255 -302 51 12 62 22
862 820 741 739 815 810 875 838 130 62 258 63 387 3 50 -24 91 -57 181 -145
l117 -115 -1390 -1393 c-769 -770 -1436 -1447 -1492 -1513 -429 -507 -726
-1035 -922 -1637 -65 -200 -118 -411 -176 -708 -42 -213 -45 -240 -36 -293 13
-72 45 -130 104 -184 115 -106 171 -111 487 -48 552 110 899 223 1317 429 366
181 687 392 1003 661 160 137 3886 3860 3960 3958 112 147 167 297 177 484 11
214 -41 399 -162 568 -24 33 -193 209 -377 392 -363 361 -419 406 -571 461
-135 49 -281 67 -417 52z m280 -475 c59 -26 95 -58 397 -358 213 -212 340
-346 356 -376 71 -130 75 -267 12 -399 -34 -73 -54 -95 -393 -435 l-357 -357
-588 581 c-323 320 -587 585 -585 589 7 19 711 702 746 724 79 49 148 67 252
63 78 -2 106 -8 160 -32z m-882 -1653 l581 -589 -1377 -1375 c-757 -756 -1420
-1413 -1473 -1459 -203 -179 -490 -384 -714 -511 -309 -175 -681 -328 -1020
-419 -129 -34 -437 -100 -443 -94 -7 7 61 322 99 459 99 362 249 722 434 1041
146 253 362 543 571 766 125 135 2746 2768 2755 2769 3 0 267 -265 587 -588z"/>
</g>
</svg>
