<?xml version="1.0" standalone="no"?>
<!DOCTYPE svg PUBLIC "-//W3C//DTD SVG 20010904//EN"
 "http://www.w3.org/TR/2001/REC-SVG-20010904/DTD/svg10.dtd">
<svg version="1.0" xmlns="http://www.w3.org/2000/svg"
 width="765.000000pt" height="765.000000pt" viewBox="0 0 765.000000 765.000000"
 preserveAspectRatio="xMidYMid meet">

<g transform="translate(0.000000,765.000000) scale(0.100000,-0.100000)"
fill="#000000" stroke="none">
<path d="M3460 7084 c-1248 -136 -2320 -992 -2735 -2184 -77 -223 -134 -480
-160 -724 -17 -167 -20 -505 -5 -657 65 -649 302 -1233 707 -1744 115 -145
379 -408 523 -519 184 -143 371 -260 575 -361 361 -179 683 -274 1100 -327
154 -19 600 -16 760 6 754 103 1394 416 1915 936 462 463 774 1046 899 1685
44 224 55 350 55 625 0 343 -23 535 -105 849 -106 412 -316 832 -595 1191
-111 144 -374 408 -519 523 -511 405 -1095 642 -1744 707 -141 14 -519 11
-671 -6z m770 -418 c316 -50 576 -133 855 -271 300 -148 527 -309 754 -536
450 -449 724 -992 822 -1630 27 -174 33 -555 11 -729 -63 -508 -255 -983 -563
-1390 -90 -119 -274 -330 -288 -330 -4 0 -16 28 -25 63 -44 158 -158 380 -272
528 -274 356 -681 582 -1134 629 -128 13 -1015 13 -1138 -1 -393 -43 -708
-194 -988 -473 -191 -191 -315 -389 -397 -634 -19 -57 -37 -105 -40 -108 -6
-7 -153 151 -231 248 -326 405 -531 873 -613 1398 -26 165 -26 635 0 800 64
405 190 753 392 1085 444 730 1210 1236 2045 1349 63 9 129 18 145 20 79 11
565 -3 665 -18z m140 -4076 c440 -54 816 -338 988 -745 37 -89 76 -231 87
-317 l7 -57 -93 -61 c-128 -83 -397 -216 -551 -273 -597 -219 -1251 -234
-1851 -40 -240 77 -443 171 -658 306 -113 70 -111 65 -85 199 99 516 527 919
1051 988 91 12 1007 12 1105 0z"/>
<path d="M3715 5459 c-354 -36 -679 -270 -825 -593 -102 -224 -117 -517 -39
-749 109 -325 383 -581 718 -668 100 -27 303 -36 408 -19 612 98 994 690 832
1290 -48 178 -179 381 -324 503 -212 178 -494 265 -770 236z m296 -435 c274
-86 462 -380 420 -658 -38 -258 -220 -459 -471 -522 -88 -22 -241 -15 -330 16
-432 147 -561 690 -240 1010 171 171 391 225 621 154z"/>
</g>
</svg>
