<?xml version="1.0" standalone="no"?>
<!DOCTYPE svg PUBLIC "-//W3C//DTD SVG 20010904//EN"
 "http://www.w3.org/TR/2001/REC-SVG-20010904/DTD/svg10.dtd">
<svg version="1.0" xmlns="http://www.w3.org/2000/svg"
 width="765.000000pt" height="765.000000pt" viewBox="0 0 765.000000 765.000000"
 preserveAspectRatio="xMidYMid meet">

<g transform="translate(0.000000,765.000000) scale(0.100000,-0.100000)"
fill="#000000" stroke="none">
<path d="M3630 7349 c-387 -50 -759 -266 -976 -569 -33 -46 -37 -49 -67 -42
-18 4 -124 7 -237 7 -186 -1 -215 -3 -318 -28 -549 -129 -970 -550 -1099
-1099 -25 -103 -27 -132 -28 -318 0 -113 3 -219 7 -237 7 -30 4 -34 -45 -70
-705 -515 -773 -1581 -141 -2207 45 -45 107 -99 138 -121 45 -32 55 -44 50
-60 -3 -11 -8 -97 -11 -190 -7 -208 10 -335 67 -506 77 -233 183 -403 359
-580 216 -215 442 -337 745 -400 108 -23 342 -31 481 -17 l70 7 50 -70 c28
-39 90 -109 140 -155 390 -371 961 -496 1479 -322 255 85 522 274 678 479 l53
69 65 -7 c130 -15 377 -7 487 16 286 60 538 196 743 401 205 205 341 457 401
743 23 110 31 357 16 487 l-7 65 69 53 c38 29 108 93 154 142 425 446 524
1119 246 1671 -92 185 -254 381 -398 484 l-70 50 7 70 c14 139 6 373 -17 481
-63 303 -185 529 -400 745 -177 176 -347 282 -580 359 -171 57 -298 74 -506
67 -93 -3 -179 -8 -190 -11 -16 -5 -28 5 -60 50 -88 125 -251 270 -414 368
-267 161 -626 236 -941 195z m430 -448 c173 -45 320 -131 463 -270 98 -95 160
-181 236 -322 l51 -96 127 38 c165 50 258 63 402 56 252 -12 460 -101 644
-277 191 -183 287 -376 319 -642 18 -154 3 -249 -89 -558 -3 -11 30 -34 117
-80 315 -168 500 -407 566 -731 22 -112 15 -330 -15 -444 -31 -115 -118 -285
-195 -381 -101 -125 -193 -200 -365 -294 -85 -47 -111 -66 -107 -78 3 -10 21
-69 39 -132 64 -214 71 -384 22 -577 -46 -179 -134 -334 -269 -469 -135 -135
-290 -223 -469 -269 -193 -49 -363 -42 -577 22 -63 18 -122 36 -132 39 -12 4
-31 -22 -77 -106 -80 -146 -127 -208 -226 -305 -143 -138 -319 -231 -514 -270
-65 -14 -116 -16 -225 -12 -200 7 -321 42 -490 142 -163 96 -289 234 -396 435
-46 87 -69 120 -80 117 -349 -104 -460 -116 -667 -73 -344 73 -632 322 -753
653 -40 111 -60 227 -60 347 1 121 17 213 63 363 l34 113 -95 51 c-245 131
-397 280 -502 492 -75 152 -102 269 -104 442 -1 198 38 351 131 509 104 178
233 298 446 414 l123 67 -33 110 c-53 178 -66 263 -60 405 15 403 250 741 625
903 108 46 216 69 352 74 142 6 227 -7 405 -60 l110 -33 67 123 c79 145 129
212 229 309 149 142 321 232 518 269 109 21 302 14 411 -14z"/>
<path d="M4840 4694 c-22 -9 -290 -270 -747 -727 l-713 -712 -332 332 c-298
296 -338 333 -378 343 -136 36 -268 -55 -278 -191 -8 -110 -15 -102 455 -571
419 -416 429 -426 481 -438 63 -14 113 -7 167 25 50 30 1608 1589 1628 1630
38 77 33 158 -14 228 -55 84 -177 121 -269 81z"/>
</g>
</svg>
