<svg width="16" height="16" viewBox="0 0 16 16" fill="none" xmlns="http://www.w3.org/2000/svg">
<path d="M4 5.33366C4 5.15685 4.07024 4.98728 4.19526 4.86225C4.32029 4.73723 4.48986 4.66699 4.66667 4.66699H11.3333C11.5101 4.66699 11.6797 4.73723 11.8047 4.86225C11.9298 4.98728 12 5.15685 12 5.33366C12 5.51047 11.9298 5.68004 11.8047 5.80506C11.6797 5.93009 11.5101 6.00033 11.3333 6.00033H4.66667C4.48986 6.00033 4.32029 5.93009 4.19526 5.80506C4.07024 5.68004 4 5.51047 4 5.33366ZM5.33333 8.00033C5.33333 7.82351 5.40357 7.65395 5.5286 7.52892C5.65362 7.4039 5.82319 7.33366 6 7.33366H10C10.1768 7.33366 10.3464 7.4039 10.4714 7.52892C10.5964 7.65395 10.6667 7.82351 10.6667 8.00033C10.6667 8.17714 10.5964 8.34671 10.4714 8.47173C10.3464 8.59675 10.1768 8.66699 10 8.66699H6C5.82319 8.66699 5.65362 8.59675 5.5286 8.47173C5.40357 8.34671 5.33333 8.17714 5.33333 8.00033ZM7.33333 10.0003C7.15652 10.0003 6.98695 10.0706 6.86193 10.1956C6.7369 10.3206 6.66667 10.4902 6.66667 10.667C6.66667 10.8438 6.7369 11.0134 6.86193 11.1384C6.98695 11.2634 7.15652 11.3337 7.33333 11.3337H8.66667C8.84348 11.3337 9.01305 11.2634 9.13807 11.1384C9.2631 11.0134 9.33333 10.8438 9.33333 10.667C9.33333 10.4902 9.2631 10.3206 9.13807 10.1956C9.01305 10.0706 8.84348 10.0003 8.66667 10.0003H7.33333Z" fill="black"/>
</svg>
