<?xml version="1.0" standalone="no"?>
<!DOCTYPE svg PUBLIC "-//W3C//DTD SVG 20010904//EN"
 "http://www.w3.org/TR/2001/REC-SVG-20010904/DTD/svg10.dtd">
<svg version="1.0" xmlns="http://www.w3.org/2000/svg"
 width="147.000000pt" height="122.000000pt" viewBox="0 0 147.000000 122.000000"
 preserveAspectRatio="xMidYMid meet">

<g transform="translate(0.000000,122.000000) scale(0.100000,-0.100000)"
fill="#000000" stroke="none">
<path d="M305 1063 c-32 -9 -65 -34 -81 -64 -21 -42 -21 -587 1 -595 8 -4 22
-1 30 6 13 10 15 55 15 279 0 267 0 268 23 289 23 22 26 22 443 22 l421 0 21
-23 c21 -23 22 -30 22 -289 0 -223 2 -268 15 -278 8 -7 22 -10 30 -6 13 5 15
45 15 286 0 320 -2 328 -73 361 -39 17 -69 18 -452 18 -226 -1 -419 -4 -430
-6z"/>
<path d="M80 315 c-8 -10 -10 -30 -5 -62 9 -62 56 -109 118 -118 23 -3 283 -5
578 -3 l536 3 36 28 c42 32 65 95 50 137 l-8 25 -646 3 c-564 2 -648 0 -659
-13z m1250 -60 c0 -8 -9 -24 -20 -35 -20 -20 -33 -20 -575 -20 -542 0 -555 0
-575 20 -11 11 -20 27 -20 35 0 13 73 15 595 15 522 0 595 -2 595 -15z"/>
</g>
</svg>
