<svg width="23" height="23" viewBox="0 0 23 23" fill="none" xmlns="http://www.w3.org/2000/svg">
<circle cx="11.5" cy="11.5" r="11" stroke="#7E899D"/>
<path d="M13.9838 11.992C14.1438 12.36 14.2238 12.784 14.2238 13.264C14.2238 13.696 14.1518 14.096 14.0078 14.464C13.8158 14.976 13.4918 15.376 13.0358 15.664C12.5878 15.952 12.0558 16.096 11.4398 16.096C10.8318 16.096 10.2958 15.944 9.83177 15.64C9.37577 15.336 9.04777 14.924 8.84777 14.404C8.73577 14.092 8.67177 13.756 8.65577 13.396C8.65577 13.3 8.70377 13.252 8.79977 13.252H10.2158C10.3118 13.252 10.3598 13.3 10.3598 13.396C10.3918 13.66 10.4358 13.856 10.4918 13.984C10.5638 14.192 10.6798 14.356 10.8398 14.476C11.0078 14.588 11.2038 14.644 11.4278 14.644C11.8758 14.644 12.1838 14.448 12.3518 14.056C12.4638 13.816 12.5198 13.536 12.5198 13.216C12.5198 12.84 12.4598 12.532 12.3398 12.292C12.1558 11.916 11.8478 11.728 11.4158 11.728C11.3278 11.728 11.2358 11.756 11.1398 11.812C11.0438 11.86 10.9278 11.932 10.7918 12.028C10.7598 12.052 10.7278 12.064 10.6958 12.064C10.6478 12.064 10.6118 12.04 10.5878 11.992L9.87977 10.996C9.86377 10.972 9.85577 10.944 9.85577 10.912C9.85577 10.864 9.87177 10.824 9.90377 10.792L11.8118 9.124C11.8278 9.108 11.8318 9.092 11.8238 9.076C11.8238 9.06 11.8118 9.052 11.7878 9.052H8.96777C8.92777 9.052 8.89177 9.04 8.85977 9.016C8.83577 8.984 8.82377 8.948 8.82377 8.908V7.744C8.82377 7.704 8.83577 7.672 8.85977 7.648C8.89177 7.616 8.92777 7.6 8.96777 7.6H13.9718C14.0118 7.6 14.0438 7.616 14.0678 7.648C14.0998 7.672 14.1158 7.704 14.1158 7.744V9.064C14.1158 9.128 14.0878 9.188 14.0318 9.244L12.4598 10.684C12.4438 10.7 12.4358 10.716 12.4358 10.732C12.4438 10.748 12.4638 10.756 12.4958 10.756C13.1918 10.892 13.6878 11.304 13.9838 11.992Z" fill="#7E899D"/>
</svg>
