<?xml version="1.0" standalone="no"?>
<!DOCTYPE svg PUBLIC "-//W3C//DTD SVG 20010904//EN"
 "http://www.w3.org/TR/2001/REC-SVG-20010904/DTD/svg10.dtd">
<svg version="1.0" xmlns="http://www.w3.org/2000/svg"
 width="765.000000pt" height="765.000000pt" viewBox="0 0 765.000000 765.000000"
 preserveAspectRatio="xMidYMid meet">

<g transform="translate(0.000000,765.000000) scale(0.100000,-0.100000)"
fill="#000000" stroke="none">
<path d="M2632 6679 c-272 -46 -498 -251 -572 -523 -27 -96 -29 -249 -5 -351
54 -234 232 -428 470 -512 74 -25 92 -28 227 -28 l147 0 206 -450 c114 -247
209 -455 212 -461 2 -6 -25 -32 -60 -57 -173 -123 -341 -340 -418 -541 -27
-70 -50 -150 -73 -258 l-6 -28 -558 0 -557 0 -24 75 c-75 239 -306 421 -576
455 -357 44 -687 -185 -776 -539 -30 -121 -24 -281 16 -400 78 -229 270 -406
506 -465 92 -23 255 -21 351 3 140 36 281 125 363 228 52 66 121 197 131 248
l6 35 559 0 559 0 6 -27 c52 -241 111 -377 233 -540 95 -128 207 -231 345
-317 309 -194 700 -238 1061 -120 176 57 395 198 511 328 l56 63 507 -302 506
-303 -2 -33 c-1 -19 -5 -82 -9 -140 -9 -135 10 -228 73 -359 85 -177 262 -320
459 -370 162 -42 360 -20 503 55 380 200 505 671 272 1027 -115 176 -296 289
-507 319 -183 25 -397 -35 -538 -151 -26 -22 -53 -40 -58 -40 -8 0 -1003 593
-1016 605 -1 1 11 42 27 91 42 126 61 247 61 394 0 190 -39 375 -110 522 l-28
57 564 406 c310 223 568 405 573 405 5 0 35 -16 67 -35 162 -98 363 -127 549
-80 33 8 98 34 145 57 68 34 103 60 175 133 100 99 146 176 186 305 30 97 33
280 6 380 -102 371 -471 595 -852 515 -208 -43 -403 -204 -495 -409 -67 -149
-79 -353 -28 -504 l25 -72 -561 -404 -561 -403 -59 53 c-177 160 -407 271
-641 310 -155 25 -368 14 -545 -28 -17 -4 -447 935 -431 940 24 8 131 154 165
225 130 269 75 597 -134 808 -169 171 -397 246 -628 208z m260 -381 c78 -36
142 -98 180 -175 28 -57 32 -76 32 -147 1 -71 -3 -90 -31 -148 -37 -78 -92
-137 -165 -175 -48 -25 -62 -28 -158 -28 -94 0 -110 3 -155 27 -105 55 -185
166 -200 278 -13 94 23 205 92 281 102 113 269 149 405 87z m3942 -718 c72
-34 132 -95 168 -168 30 -60 33 -75 33 -157 0 -78 -4 -97 -28 -147 -17 -35
-51 -78 -88 -112 -48 -45 -73 -60 -131 -77 -169 -52 -340 22 -425 183 -25 48
-28 63 -28 153 0 119 18 167 91 245 104 111 275 145 408 80z m-2574 -1434
c154 -50 296 -139 397 -249 473 -518 202 -1343 -488 -1483 -100 -20 -300 -15
-394 11 -33 9 -111 41 -173 72 -96 47 -127 69 -204 141 -207 197 -300 425
-285 700 7 135 27 211 86 337 118 249 342 428 616 490 41 10 108 13 210 11
131 -3 161 -7 235 -30z m-3155 -530 c76 -34 139 -97 178 -175 28 -58 32 -75
32 -151 0 -76 -4 -93 -33 -152 -87 -177 -291 -252 -464 -171 -219 103 -278
362 -127 554 91 116 276 158 414 95z m5723 -1611 c73 -32 152 -111 184 -182
34 -74 32 -208 -4 -285 -70 -151 -226 -235 -382 -207 -84 15 -145 49 -204 113
-64 71 -92 142 -92 236 0 260 262 431 498 325z"/>
</g>
</svg>
