<svg width="23" height="23" viewBox="0 0 23 23" fill="none" xmlns="http://www.w3.org/2000/svg">
<circle cx="11.5" cy="11.5" r="11" stroke="#3A1C46"/>
<path d="M10.9386 14.476C10.9226 14.492 10.9186 14.508 10.9266 14.524C10.9346 14.54 10.9506 14.548 10.9746 14.548H14.2266C14.2666 14.548 14.2986 14.564 14.3226 14.596C14.3546 14.62 14.3706 14.652 14.3706 14.692V15.856C14.3706 15.896 14.3546 15.932 14.3226 15.964C14.2986 15.988 14.2666 16 14.2266 16H8.82658C8.78658 16 8.75058 15.988 8.71858 15.964C8.69458 15.932 8.68258 15.896 8.68258 15.856V14.752C8.68258 14.68 8.70658 14.62 8.75458 14.572C9.14658 14.188 9.54658 13.772 9.95458 13.324C10.3626 12.868 10.6186 12.584 10.7226 12.472C10.9466 12.208 11.1746 11.956 11.4066 11.716C12.1346 10.908 12.4986 10.308 12.4986 9.916C12.4986 9.636 12.3986 9.408 12.1986 9.232C11.9986 9.048 11.7386 8.956 11.4186 8.956C11.0986 8.956 10.8386 9.048 10.6386 9.232C10.4386 9.408 10.3386 9.644 10.3386 9.94V10.24C10.3386 10.28 10.3226 10.316 10.2906 10.348C10.2666 10.372 10.2346 10.384 10.1946 10.384H8.77858C8.73858 10.384 8.70258 10.372 8.67058 10.348C8.64658 10.316 8.63458 10.28 8.63458 10.24V9.676C8.65858 9.244 8.79458 8.864 9.04258 8.536C9.29058 8.2 9.61858 7.944 10.0266 7.768C10.4426 7.592 10.9066 7.504 11.4186 7.504C11.9866 7.504 12.4786 7.612 12.8946 7.828C13.3186 8.036 13.6426 8.32 13.8666 8.68C14.0986 9.04 14.2146 9.44 14.2146 9.88C14.2146 10.216 14.1306 10.56 13.9626 10.912C13.7946 11.264 13.5426 11.644 13.2066 12.052C12.9586 12.364 12.6906 12.672 12.4026 12.976C12.1146 13.28 11.6866 13.72 11.1186 14.296L10.9386 14.476Z" fill="#3A1C46"/>
</svg>

