<svg width="17" height="17" viewBox="0 0 17 17" fill="none" xmlns="http://www.w3.org/2000/svg">
<g clip-path="url(#clip0_6671_20233)">
<path d="M12.6704 5.81159C12.4496 5.81159 12.2336 5.83159 12.0232 5.86599C11.4984 4.14999 9.8728 2.90039 7.9472 2.90039C5.596 2.90039 3.6912 4.76279 3.6912 7.05959C3.6912 7.26439 3.7072 7.46599 3.7368 7.66439C3.62294 7.6503 3.50833 7.64309 3.3936 7.64279C1.7952 7.64279 0.5 8.90839 0.5 10.4708C0.5 12.0332 1.7952 13.3004 3.3936 13.3004H6.9V10.1004H4.9L8.5 6.10039L12.1 10.1004H10.1V13.3004H12.6704C14.7848 13.3004 16.5 11.6236 16.5 9.55639C16.5 7.48759 14.7848 5.81159 12.6704 5.81159Z" fill="#4F4F4F"/>
</g>
<defs>
<clipPath id="clip0_6671_20233">
<rect width="16" height="16" fill="white" transform="translate(0.5 0.5)"/>
</clipPath>
</defs>
</svg>
