<svg width="20" height="19" viewBox="0 0 20 19" fill="none" xmlns="http://www.w3.org/2000/svg">
<path d="M7.99974 11.6533H11.9997V5.65332H14.9997L9.99974 0.65332L4.99974 5.65332H7.99974V11.6533ZM19.3377 13.1853C19.1277 12.9613 17.7267 11.4623 17.3267 11.0713C17.0464 10.8026 16.673 10.6528 16.2847 10.6533H14.5277L17.5917 13.6473H14.0477C13.9996 13.6464 13.952 13.6583 13.9099 13.6816C13.8678 13.705 13.8325 13.739 13.8077 13.7803L12.9917 15.6533H7.00774L6.19174 13.7803C6.1668 13.7391 6.13154 13.7052 6.08944 13.6819C6.04734 13.6586 5.99987 13.6466 5.95174 13.6473H2.40774L5.47074 10.6533H3.71474C3.31774 10.6533 2.93874 10.8123 2.67274 11.0713C2.27274 11.4633 0.871737 12.9623 0.661737 13.1853C0.172737 13.7063 -0.0962632 14.1213 0.0317368 14.6343L0.592737 17.7083C0.720737 18.2223 1.28374 18.6443 1.84474 18.6443H18.1567C18.7177 18.6443 19.2807 18.2223 19.4087 17.7083L19.9697 14.6343C20.0957 14.1213 19.8277 13.7063 19.3377 13.1853Z" fill="white"/>
</svg>
