<svg width="40" height="40" viewBox="0 0 49 48" fill="none" xmlns="http://www.w3.org/2000/svg">
<g opacity="0.5">
<rect x="0.5" width="48" height="48" rx="16" fill="#1E1E1E" fill-opacity="0.04"/>
<g clip-path="url(#clip0)">
<path d="M24.6513 27.614C25.9066 26.5575 26.8068 25.1406 27.2297 23.5552C27.6526 21.9699 27.5779 20.2929 27.0156 18.7515C26.4533 17.2101 25.4306 15.8789 24.0862 14.9383C22.7419 13.9977 21.1408 13.4932 19.5 13.4932C17.8593 13.4932 16.2582 13.9977 14.9138 14.9383C13.5694 15.8789 12.5468 17.2101 11.9845 18.7515C11.4222 20.2929 11.3474 21.9699 11.7704 23.5552C12.1933 25.1406 13.0934 26.5575 14.3488 27.614C12.3127 28.535 10.5602 29.984 9.27303 31.8107C9.15962 31.9718 9.07905 32.1536 9.03592 32.3458C8.99278 32.538 8.98793 32.7369 9.02163 32.9309C9.05533 33.125 9.12693 33.3106 9.23234 33.477C9.33774 33.6434 9.4749 33.7874 9.63596 33.9008C9.96125 34.1298 10.3642 34.2203 10.7562 34.1522C11.1481 34.0841 11.497 33.8632 11.726 33.5379C12.6027 32.2905 13.7667 31.2724 15.1197 30.5696C16.4727 29.8668 17.975 29.4999 19.4996 29.4998C21.0243 29.4997 22.5265 29.8665 23.8796 30.5693C25.2326 31.272 26.3967 32.29 27.2735 33.5373C27.3869 33.6983 27.531 33.8355 27.6974 33.9409C27.8638 34.0463 28.0493 34.1179 28.2434 34.1516C28.4375 34.1853 28.6363 34.1804 28.8285 34.1373C29.0208 34.0941 29.2026 34.0135 29.3636 33.9001C29.5247 33.7867 29.6619 33.6427 29.7673 33.4763C29.8727 33.3099 29.9443 33.1243 29.978 32.9302C30.0117 32.7361 30.0068 32.5373 29.9637 32.3451C29.9205 32.1529 29.8399 31.9711 29.7265 31.81C28.4394 29.9836 26.6871 28.5348 24.6513 27.614ZM14.5 21.4997C14.5 20.5108 14.7933 19.5441 15.3427 18.7219C15.8921 17.8997 16.673 17.2588 17.5866 16.8804C18.5002 16.5019 19.5056 16.4029 20.4755 16.5958C21.4454 16.7887 22.3363 17.265 23.0356 17.9642C23.7348 18.6635 24.211 19.5544 24.404 20.5243C24.5969 21.4942 24.4979 22.4995 24.1194 23.4132C23.741 24.3268 23.1001 25.1077 22.2779 25.6571C21.4556 26.2065 20.4889 26.4997 19.5 26.4997C18.1744 26.4983 16.9035 25.971 15.9661 25.0336C15.0288 24.0963 14.5015 22.8254 14.5 21.4997ZM39.554 33.9001C39.393 34.0136 39.2111 34.0942 39.0189 34.1373C38.8267 34.1805 38.6279 34.1854 38.4338 34.1517C38.2397 34.118 38.0541 34.0464 37.8877 33.941C37.7213 33.8355 37.5773 33.6983 37.4639 33.5373C36.586 32.2911 35.4218 31.274 34.069 30.5714C32.7163 29.8688 31.2146 29.5013 29.6903 29.4997C29.2925 29.4997 28.9109 29.3417 28.6296 29.0604C28.3483 28.7791 28.1903 28.3976 28.1903 27.9997C28.1903 27.6019 28.3483 27.2204 28.6296 26.9391C28.9109 26.6578 29.2925 26.4997 29.6903 26.4997C30.4043 26.4989 31.1098 26.3451 31.7594 26.0488C32.409 25.7525 32.9876 25.3205 33.4562 24.7819C33.9249 24.2433 34.2728 23.6105 34.4765 22.9262C34.6802 22.2419 34.735 21.5219 34.6371 20.8147C34.5393 20.1074 34.2911 19.4293 33.9093 18.826C33.5275 18.2227 33.0209 17.7081 32.4236 17.3169C31.8264 16.9258 31.1522 16.6671 30.4466 16.5582C29.7409 16.4494 29.0202 16.4929 28.3328 16.6859C27.9498 16.7936 27.5397 16.7448 27.1927 16.5502C26.8458 16.3555 26.5903 16.031 26.4826 15.6481C26.3749 15.2651 26.4237 14.855 26.6183 14.508C26.8129 14.1611 27.1374 13.9056 27.5204 13.7979C29.2802 13.3011 31.1571 13.4223 32.8383 14.1414C34.5195 14.8606 35.9036 16.1341 36.7597 17.7499C37.6159 19.3656 37.8925 21.226 37.5434 23.0209C37.1943 24.8159 36.2407 26.437 34.8414 27.6141C36.8772 28.5349 38.6296 29.9836 39.9168 31.81C40.1458 32.1353 40.2363 32.5382 40.1682 32.9301C40.1002 33.3221 39.8793 33.6709 39.554 33.9V33.9001Z" fill="#7A7A7A"/>
</g>
</g>
<defs>
<clipPath id="clip0">
<rect width="32" height="32" fill="white" transform="translate(8.5 8)"/>
</clipPath>
</defs>
</svg>
