<svg width="15" height="14" viewBox="0 0 15 14" fill="none" xmlns="http://www.w3.org/2000/svg">
<g clip-path="url(#clip0_10337_30488)">
<path d="M7.5 8.75C8.4665 8.75 9.25 7.9665 9.25 7C9.25 6.0335 8.4665 5.25 7.5 5.25C6.5335 5.25 5.75 6.0335 5.75 7C5.75 7.9665 6.5335 8.75 7.5 8.75Z" fill="#2F80ED"/>
<path d="M14.0361 6.85125C13.5215 5.52022 12.6282 4.36914 11.4665 3.54029C10.3049 2.71143 8.92584 2.24113 7.49981 2.1875C6.07379 2.24113 4.69473 2.71143 3.53309 3.54029C2.37145 4.36914 1.47813 5.52022 0.963564 6.85125C0.928812 6.94737 0.928812 7.05263 0.963564 7.14875C1.47813 8.47978 2.37145 9.63086 3.53309 10.4597C4.69473 11.2886 6.07379 11.7589 7.49981 11.8125C8.92584 11.7589 10.3049 11.2886 11.4665 10.4597C12.6282 9.63086 13.5215 8.47978 14.0361 7.14875C14.0708 7.05263 14.0708 6.94737 14.0361 6.85125V6.85125ZM7.49981 9.84375C6.93737 9.84375 6.38756 9.67697 5.91991 9.36449C5.45226 9.05202 5.08777 8.60788 4.87253 8.08826C4.65729 7.56863 4.60098 6.99685 4.71071 6.44521C4.82043 5.89358 5.09127 5.38687 5.48898 4.98917C5.88668 4.59146 6.39339 4.32062 6.94503 4.21089C7.49666 4.10117 8.06844 4.15748 8.58807 4.37272C9.1077 4.58795 9.55183 4.95245 9.86431 5.4201C10.1768 5.88775 10.3436 6.43756 10.3436 7C10.3424 7.75385 10.0424 8.4765 9.50937 9.00956C8.97631 9.54261 8.25367 9.84259 7.49981 9.84375V9.84375Z" fill="#2F80ED"/>
</g>
<defs>
<clipPath id="clip0_10337_30488">
<rect width="14" height="14" fill="white" transform="translate(0.5)"/>
</clipPath>
</defs>
</svg>
